<svg xmlns="http://www.w3.org/2000/svg" viewBox="0 0 252 252"><path d="M67.793 193.75s8.254-8.742 10.75-11.148c25.379 19.132 55.219 21.093 79.078 10.035l-4.86-10.883 7-3.125 4.864 10.258c21.855-13.157 37.11-38.09 36.441-70.914l14.72-1.383c4.679 89.113-94.114 125.598-147.993 77.16m-40.05-64.27.089 2.54h139.961a9271 9271 0 0 1-16.95-34.254c-.804-1.696-1.605-3.79-1.027-4.235.582-.449.98.043 1.606.399 4.73 2.812 9.637 11.062 9.95 11.597 2.05 3.434 3.655 6.2 4.593 7.852l8.785-3.926a58.5 58.5 0 0 0-9.145-15.566 54.6 54.6 0 0 0-8.52-8.34.68.68 0 0 1-.233-.48.66.66 0 0 1 .191-.5l2.586-2.454a.58.58 0 0 1 .414-.207c.16-.008.32.051.434.16a63.3 63.3 0 0 1 11.152 11.106 64.3 64.3 0 0 1 8.293 13.738l10.394-5.308a69.5 69.5 0 0 0-9.054-16.325 67.7 67.7 0 0 0-13.516-13.558.66.66 0 0 1-.258-.469.67.67 0 0 1 .168-.512c1.16-1.293 1.918-2.496 2.903-3.746.238-.3.671-.36.98-.133 4.684 4.102 10.793 9.856 16.145 17.793a92.1 92.1 0 0 1 11.73 24.754l14.762-3.746c-1.246-4.906-11.774-44.734-51.113-62.039-31.489-13.828-69.086-7.762-96.473 15.477 5.129 1.293 31.98 8.34 41.078 31.043 1.562 3.836 6.422 15.968.582 24.707-5.844 8.742-20.027 9.504-25.824 9.191-5.801-.312-17.797-6.379-27.477-5.578-12.043 1.785-12.62 7.809-22.656 11.02a30.5 30.5 0 0 1-4.55 0m125.956 35.723-7.004 3.168 3.168 6.957 6.957-3.121Zm-4.73-10.523-7 3.12 3.164 7.005 6.96-3.125Zm-4.95-10.973-6.957 3.168 3.122 6.957 6.957-3.121ZM56.2 201.914c1.112-.137 2.093.266 3.3 1.336l2.629 2.32-13.512 15.387-2.633-2.32c-1.203-1.024-1.695-1.918-1.695-3.078 0-1.157.492-2.184 1.875-3.79s1.918-1.917 3.344-2.05c.5-.051 1.008.027 1.472.222a2.93 2.93 0 0 1-.492-1.515c-.043-1.563.848-2.813 1.828-3.883 1.653-1.918 2.676-2.496 3.883-2.629m-9.235 15.563 1.472 1.25 4.997-5.707-1.43-1.25c-1.336-1.16-2.762-1.028-4.594 1.07-1.828 2.097-1.738 3.48-.445 4.637m6.023-6.825 1.426 1.25 5.484-6.289-1.425-1.246c-1.383-1.207-2.766-1.25-4.95 1.203-2.187 2.453-1.964 3.836-.535 5.082m.621-12.886L38.492 211.59l-4.55-5.04 1.117-1.027 3.476 3.836 5.887-5.351-3.031-3.301 1.113-1.023 3.035 3.3 5.887-5.398-3.524-3.836 1.16-1.027Zm-6.597-7.63-16.191 12.58-.98-1.293 16.144-12.578Zm-6.559-7.581c1.07.242 2 .902 2.586 1.828a3.73 3.73 0 0 1 .535 3.39l-1.605-.355a2.28 2.28 0 0 0-.176-2.188c-.758-1.16-2.277-1.472-3.969-.355l-13.426 8.875-.894-1.34 13.426-8.875c1.203-.8 2.41-1.16 3.523-.98m-1.738-4.684-17.84 10.035-.805-1.383 17.887-10.035Zm-5.574-11.285L20.785 178.14l14.586-6.559.668 1.473-18.687 8.43-.672-1.516 12.355-11.508-14.586 6.555-.668-1.47 18.688-8.386Zm-2.989-8.875a3.57 3.57 0 0 1-.27 3.121c-.937 1.61-2.405 2.23-8.429 4.106-6.02 1.875-7.539 2.273-9.23 1.515a4.19 4.19 0 0 1-1.832-5.441 5.5 5.5 0 0 1 3.257-2.32l.493 1.519c-1.563.535-3.078 1.469-2.5 3.387a2.05 2.05 0 0 0 1.25 1.382c1.203.493 2.363.27 8.07-1.558 5.71-1.828 6.824-2.32 7.586-3.39a2.2 2.2 0 0 0 .176-1.876c-.446-1.293-1.828-1.96-3.657-1.383l-4.816 1.52.71 2.316-1.335.45-1.25-3.883 6.2-1.918c2.902-.938 4.952.402 5.577 2.453m-5.218-18.106a3.98 3.98 0 0 1 1.605 2.676 3.88 3.88 0 0 1-.715 3.031 4.73 4.73 0 0 1-3.078 1.696L6.69 149.504l-.222-1.606 16.187-2.543c1.696-.265 2.59-1.515 2.41-2.851-.18-1.34-1.425-2.188-3.168-1.918L5.71 143.129l-.27-1.61 16.06-2.539a4.68 4.68 0 0 1 3.434.625m.09-11.464L9.32 134.387l15.97-.805.089 1.606-20.473 1.027-.09-1.653 15.7-6.199-15.965.805-.09-1.606 20.473-1.027Zm.042-4.95-20.515-.625v-1.605l20.515.625Zm.536-8.964-.133 1.605-20.785 2.14.132-1.784 17.707-1.473-17.082-4.86.18-1.785Zm.757-5.711L6.2 104.68l1.293-6.692 1.516.313-.98 5.086 7.804 1.472.805-4.37 1.515.265-.847 4.371 7.851 1.52.98-5.086 1.473.265Zm4.461-17.75h-9.632l-.762 2.406 8.789 2.723-.492 1.515-19.535-6.156 1.117-3.656c.71-2.274 2.14-3.746 6.687-2.32 3.035.937 4.238 2.187 4.371 3.882h9.946ZM11.773 88l-.668 2.184L19 92.637l.668-2.14c.582-1.872-.621-2.9-3.164-3.657s-4.106-.715-4.73 1.16m23.106-9.367c.355.89.312 1.96-.27 3.258a4.14 4.14 0 0 1-2.273 2.316c-1.203.402-2.23.223-4.281-.71l.668-1.474c1.43.668 2.277.848 3.078.579a2.77 2.77 0 0 0 1.562-3.344c-.402-.89-1.16-1.383-2.59-2.051-2.363-1.07-3.343-1.117-4.68.086l-1.695 1.52c-1.605 1.468-2.945 1.515-5.753.222-1.563-.758-2.676-1.742-3.125-2.945a4.375 4.375 0 0 1 2.453-5.219c1.34-.445 2.5-.176 4.105.582l-.668 1.473c-1.16-.535-2.008-.762-2.855-.492a2.05 2.05 0 0 0-1.426 1.293 2.23 2.23 0 0 0-.137 1.828c.313.804 1.16 1.472 2.32 2.007 2.141.981 2.899.938 4.372-.355l1.648-1.52c1.695-1.515 3.348-1.246 6.023 0 1.961.895 3.079 1.786 3.524 2.946m3.3-4.149L20.427 64.27l.804-1.426 17.797 10.215Zm-10.304-19.09 15.566 10.794-.937 1.34-15.563-10.84-1.875 2.722-1.25-.894 4.641-6.688 1.246.89Zm15.121-2.496 6.512 5.575-1.07 1.25-6.512-5.621-11.239-5.172 1.157-1.34 8.699 4.281-5.531-7.984 1.203-1.383Zm20.828-9.011a3.57 3.57 0 0 1-1.558 2.765 3.65 3.65 0 0 1-3.036.848c-1.785-.312-2.898-1.473-6.777-6.422-3.883-4.95-4.773-6.289-4.64-8.117a3.75 3.75 0 0 1 1.515-2.766 3.85 3.85 0 0 1 3.035-.847c1.828.312 2.942 1.472 6.825 6.422 3.878 4.953 4.769 6.289 4.636 8.117M52.094 30.91a2.15 2.15 0 0 0-1.828.488c-.54.38-.871.993-.891 1.653 0 1.293.625 2.32 4.324 7.047 3.703 4.726 4.551 5.53 5.801 5.843a2.1 2.1 0 0 0 1.828-.492c.535-.386.879-.988.938-1.648 0-1.297-.625-2.32-4.328-7.051-3.704-4.727-4.594-5.527-5.844-5.84m7.672-5.976 4.191 6.777 3.793-2.363.805 1.293-3.793 2.363 4.996 8.074-1.383.848-10.793-17.438 5.797-3.57.805 1.293Zm23.64-.938-2.097.848 3.343 8.43-1.468.578-7.582-19.043 3.609-1.43c2.144-.848 4.238-.711 6.023 3.75 1.786 4.457.715 5.887-1.828 6.867m-3.613-9.187-2.098.8 3.078 7.805 2.098-.844c1.828-.715 1.828-2.32.848-4.82-.985-2.496-2.098-3.656-3.926-2.941m20.875 12.175A4.2 4.2 0 0 1 95 28.5c-1.516-1.023-2.094-2.543-3.746-8.562-1.649-6.024-1.918-7.672-1.07-9.325a3.65 3.65 0 0 1 2.5-1.914 3.56 3.56 0 0 1 3.12.399c1.563.98 2.098 2.543 3.747 8.566 1.652 6.02 1.918 7.668 1.117 9.32m-5.711-16.546a2.15 2.15 0 0 0-1.918-.27 2.24 2.24 0 0 0-1.473 1.16c-.488 1.203-.312 2.363 1.25 8.164 1.563 5.797 2.008 6.91 3.079 7.672.527.387 1.21.488 1.828.266a2.09 2.09 0 0 0 1.515-1.16c.492-1.204.313-2.364-1.25-8.16-1.558-5.801-2.004-6.915-3.031-7.672m17.484 14.359c-.535.805-1.425 1.34-2.808 1.562-1.383.223-2.367.043-3.215-.578-.844-.625-1.426-1.742-1.828-3.972l1.605-.266c.27 1.562.582 2.363 1.25 2.898.555.395 1.25.54 1.918.403.89-.18 1.426-.492 1.739-.98.312-.493.492-1.743.222-3.302-.398-2.542-.933-3.39-2.676-3.835l-2.23-.536c-2.094-.535-2.852-1.605-3.344-4.64-.312-1.739-.09-3.211.668-4.235a3.76 3.76 0 0 1 2.633-1.52 3.76 3.76 0 0 1 3.078.626c1.113.848 1.516 1.965 1.785 3.703l-1.605.266c-.18-1.246-.492-2.051-1.16-2.63a2.14 2.14 0 0 0-1.875-.445 2.3 2.3 0 0 0-1.606.891c-.492.758-.535 1.785-.355 3.031.402 2.367.847 2.989 2.718 3.438l2.188.578c2.23.535 2.898 2.05 3.39 4.95.356 2.14.223 3.523-.492 4.593m7.27-18.863 1.473 18.91-1.606.09-1.473-18.914-3.257.27-.133-1.517 8.117-.625.137 1.516Zm15.61 17.57c-.622.715-1.606 1.117-3.032 1.117s-2.363-.312-3.078-1.07-1.16-1.965-1.16-4.196h1.605c.047 1.563.18 2.41.805 3.036a2.36 2.36 0 0 0 1.828.668 2.5 2.5 0 0 0 1.875-.668c.621-.715.758-1.606.758-3.258 0-2.54-.402-3.477-2.098-4.192l-2.05-.89c-2.008-.848-2.59-2.008-2.59-5.086-.043-1.785.402-3.168 1.296-4.059a3.87 3.87 0 0 1 2.852-1.113 3.9 3.9 0 0 1 2.945 1.113c.98.98 1.203 2.184 1.203 3.969h-1.648c0-1.293-.133-2.14-.715-2.809a2.32 2.32 0 0 0-1.785-.757 2.13 2.13 0 0 0-1.695.668c-.621.625-.844 1.695-.844 2.945 0 2.363.309 3.031 2.094 3.836l2.097.89c2.141.848 2.543 2.497 2.543 5.442 0 2.14-.312 3.523-1.207 4.414m18.644 4.773.312-5.707-4.414-1.117-2.363 5.176-1.695-.402 9.23-18.825 1.473.403-.89 20.918Zm1.027-17.707-4.418 9.5 3.793.938Zm9.32 21.23.356-16.902-5.441 15.032-1.559-.582 7-19.223 1.52.535-.313 16.86 5.441-15.032 1.516.578-7.004 19.27Zm11.82 4.106a3.87 3.87 0 0 1-3.12-.226l-3.57-1.782 9.097-18.378 3.57 1.785a3.85 3.85 0 0 1 2.098 2.363c.488 1.742-.047 3.168-2.812 8.742-2.766 5.578-3.567 6.824-5.262 7.496m6.513-15.836a2.37 2.37 0 0 0-1.25-1.425l-2.094-1.028-7.762 15.61 2.094 1.027a2.28 2.28 0 0 0 1.918.133c1.16-.489 1.785-1.469 4.418-6.735 2.633-5.261 2.988-6.332 2.676-7.582m15.746 8.832-11.02 15.434-1.293-.938 11.016-15.433-2.676-1.918.894-1.203 6.645 4.726-.89 1.203Zm-5.266 19.891 13.738-15.254 5.04 4.55-1.024 1.161-3.836-3.48-5.356 5.886 3.348 2.989-1.027 1.16-3.301-2.989-5.352 5.934 3.836 3.434-1.027 1.16Zm8.297 7.895 15.387-13.512 1.07 1.203-14.227 12.531 3.434 3.883-1.16 1.023Zm6.957 8.296 16.816-11.683 3.88 5.574-1.25.848-2.99-4.239-6.51 4.551 2.59 3.656-1.298.891-2.539-3.7-6.512 4.548 2.942 4.28-1.246.849Zm10.035 15.032a4.054 4.054 0 0 1-2.406-5.04c.62-1.742 2.004-2.585 7.535-5.53s7.047-3.571 8.832-3.122a3.8 3.8 0 0 1 2.453 2.004c.531.906.649 1.996.313 2.988-.403 1.16-1.426 2.145-2.766 2.903l-.758-1.43c.89-.488 1.696-1.113 2.008-1.96.223-.59.156-1.25-.18-1.786a1.92 1.92 0 0 0-1.425-1.16c-1.293-.266-2.41.18-7.72 2.988-5.304 2.813-6.288 3.48-6.823 4.64a2.13 2.13 0 0 0 .136 1.872 1.99 1.99 0 0 0 1.426 1.16c.848.223 1.828-.09 2.723-.578l.758 1.426c-1.473.757-2.903 1.07-4.106.625m4.55 10.168a3.7 3.7 0 0 1-2.187-2.274 3.61 3.61 0 0 1 .047-3.12c.848-1.653 2.274-2.411 8.117-4.685s7.403-2.765 9.145-2.097a3.71 3.71 0 0 1 2.184 2.23 3.98 3.98 0 0 1-.043 3.211c-.848 1.653-2.32 2.364-8.165 4.64-5.843 2.274-7.359 2.766-9.097 2.095m15.833-7.45a2.17 2.17 0 0 0 .047-1.914 2.1 2.1 0 0 0-1.34-1.34c-1.203-.355-2.363-.09-7.984 2.141-5.618 2.23-6.645 2.766-7.27 3.836-.324.59-.355 1.3-.09 1.918a2.33 2.33 0 0 0 1.34 1.34c1.25.355 2.406.086 7.984-2.145 5.575-2.226 6.645-2.761 7.313-3.836m-13.336 19.45 15.969-4.196h-11.196l-.27-.933 9.415-5.399-15.613 4.149-.313-1.25 19.805-5.22.355 1.25-10.836 6.247 12.489.133.355 1.25-19.8 5.215Zm2.008 11.82 16.324-2.32-11.106-1.293-.132-.938 9.988-4.238-16.012 2.277-.176-1.297 20.293-2.898.18 1.293-11.465 4.953 12.399 1.605.18 1.247-20.294 2.902Zm1.562 11.148a3.83 3.83 0 0 1-1.25-2.855 3.93 3.93 0 0 1 1.07-2.899 4.78 4.78 0 0 1 3.258-1.293l16.235-.445v1.606l-16.371.488c-1.739.047-2.766 1.16-2.72 2.5.044 1.336 1.114 2.406 2.9 2.363l16.367-.492v1.605l-16.145.493a4.6 4.6 0 0 1-3.344-1.07m-1.52 10.973 16.372-4.191-15.969-1.25.137-1.606 20.426 1.606-.09 1.605-16.367 4.191 15.921 1.208-.132 1.605-20.43-1.563Zm-.577 4.55 20.25 3.122-.27 1.605-20.246-3.168Zm-1.473 11.06a4.07 4.07 0 0 1-.356-2.856 3.88 3.88 0 0 1 1.829-2.54c1.652-.894 3.257-.671 9.367.712s7.625 1.918 8.695 3.437a3.72 3.72 0 0 1 .535 3.075 3.61 3.61 0 0 1-1.695 2.5c-1.024.625-2.496.667-4.012.355l.356-1.563c1.027.227 2.05.27 2.812-.132.563-.32.953-.875 1.07-1.516a2.1 2.1 0 0 0-.359-1.828c-.8-.98-1.918-1.383-7.758-2.723-5.843-1.336-7.05-1.515-8.207-.933a2.05 2.05 0 0 0-1.117 1.515 2.15 2.15 0 0 0 .27 1.785c.535.711 1.468 1.114 2.496 1.336l-.356 1.563c-1.605-.36-2.898-1.07-3.57-2.188m-4.371 11.242 5.664.71 1.652-4.636-4.953-2.899.625-1.785 17.797 11.196-.535 1.515-20.875-2.363Zm17.664 2.316-9.055-5.395-1.383 4.012Zm-3.836 13.293-17.172-8.074.758-1.606 17.129 8.117 1.515-3.21 1.383.667-3.746 7.942-1.383-.668Zm-19.625-3.344 17.93 9.988-.891 1.516-17.887-9.988Zm-5.664 10.969a4.24 4.24 0 0 1 .758-3.3 4.16 4.16 0 0 1 2.765-1.962c1.871-.312 3.301.446 8.52 3.926 5.219 3.477 6.465 4.504 6.867 6.379a4.23 4.23 0 0 1-.715 3.3 4.4 4.4 0 0 1-2.765 1.962c-1.914.312-3.344-.446-8.563-3.926-5.219-3.477-6.465-4.504-6.867-6.38m15.254 8.652a2.5 2.5 0 0 0 1.648-1.156 2.23 2.23 0 0 0 .403-1.965c-.356-1.293-1.25-2.05-6.243-5.394-4.996-3.348-6.066-3.883-7.359-3.746a2.31 2.31 0 0 0-1.652 1.156 2.28 2.28 0 0 0-.446 1.965c.356 1.293 1.25 2.05 6.243 5.394 4.996 3.348 6.066 3.883 7.406 3.746m-22.703-.843 16.011 5.707-12.265-10.258 1.117-1.34 15.742 13.113-1.113 1.383-16.012-5.707 12.266 10.21-1.117 1.34-15.743-13.113Zm-6.868 8.34c.043-.981.489-2.008 1.56-3.079 1.07-1.07 2.097-1.562 3.167-1.562s2.23.535 3.836 2.14l-1.25 1.207c-1.113-1.117-1.828-1.605-2.766-1.562a2.73 2.73 0 0 0-1.87.89c-.716.672-.981 1.293-.938 1.876.043.578.535 1.738 1.648 2.898 1.785 1.828 2.723 2.187 4.551 1.426l2.23-.934c2.141-.894 3.391-.492 5.575 1.695 1.207 1.247 1.875 2.586 1.785 3.922a4.3 4.3 0 0 1-1.426 2.946c-.984.937-2.008 1.425-3.035 1.425-1.024 0-2.453-.668-3.703-1.96l1.25-1.204c.894.891 1.605 1.383 2.543 1.426a2.5 2.5 0 0 0 1.918-.805 2.68 2.68 0 0 0 .847-1.738c0-.937-.535-1.87-1.425-2.765-1.653-1.696-2.41-1.918-4.329-1.114l-2.23.938c-2.23.98-3.656.133-5.754-2.008s-2.23-2.723-2.184-4.059m0 0" style="stroke:none;fill-rule:nonzero;fill:#039;fill-opacity:1"/><path d="M83.496 233.625c-1.473 2.809-2.723 4.281-3.793 4.547h-.355c-.305 0-.602-.09-.848-.266l-1.562-.804a1.98 1.98 0 0 1-1.204-1.114c-.207-.625-.074-1.425.403-2.41l8.027-15.566c.313-.266.535-.309.715-.223.176.09.223.313.223.672h-.047l-3.032 5.887a19.1 19.1 0 0 0 5.665-2.41h.042c.313.046.536.132.582.312.043.18.043.445-.222.805a20.5 20.5 0 0 1-6.735 2.675l-4.195 8.25c-.312.668-.402 1.16-.265 1.516a.97.97 0 0 0 .625.535l1.605.805a.53.53 0 0 0 .535.133c.711-.223 1.695-1.473 2.899-3.79h.043c.27-.179.445-.226.625-.136s.222.27.27.582m20.559-2.723a2.17 2.17 0 0 1 0 1.696l-.89 3.035c-.134.8-.446 1.293-.892 1.515a1.43 1.43 0 0 1-1.34 0l-3.835-1.07-1.649 6.02a1.8 1.8 0 0 1-.715 1.203c-.195.094-.41.14-.625.137-.32.003-.64-.055-.937-.18a7.7 7.7 0 0 1-1.918-1.473h-.043a1.15 1.15 0 0 1 .043-.89.71.71 0 0 1 .625-.223h.09c1.383 1.426 2.008 1.605 2.273 1.516.27-.09.223-.223.223-.493l1.652-5.886-4.105-1.16a1.29 1.29 0 0 1-1.024-.446c-.312-.488-.312-1.25-.047-2.32l.805-2.899c.445-1.16 1.203-1.605 2.23-1.336l9.055 2.497a1.7 1.7 0 0 1 1.024.757m-1.024.848a.86.86 0 0 0-.625-.402l-8.52-2.407h-.402c-.402 0-.668.223-.8.715l-.758 2.719a1.3 1.3 0 0 0-.047.938c.078.09.195.136.312.132h.047l9.051 2.5c.156.11.356.14.535.086.227-.086.313-.355.403-.8l.757-2.723a.8.8 0 0 0 .047-.758m3.614-3.7-6.825-1.874q.014-1.389-.18-2.766h-.042c-.137-.312-.313-.445-.54-.445-.222 0-.355.222-.535.578.125.754.184 1.516.18 2.277l-6.555-1.832h-.136a.98.98 0 0 0-.309 1.16h.043l14.496 4.016h.09a.67.67 0 0 0 .535-.492.73.73 0 0 0-.222-.668Zm-13.473 8.919v-.09c.09-.399.09-.668-.09-.8-.176-.134-.309-.134-.578 0h-.043a36 36 0 0 1-4.996 4.233h-.047c-.266.313-.356.536-.266.762a.54.54 0 0 0 .489.356h.09a31.6 31.6 0 0 0 5.44-4.461m6.781 1.027h-.047a.8.8 0 0 0-.71-.18c-.18.09-.27.356-.313.805h.043c.625 1.738 1.25 3.879 1.875 6.375h.043c.14.121.308.2.492.223h.133c.222-.043.355-.309.402-.758a48 48 0 0 0-1.918-6.465m-18.512-21.32c0-.356-.043-.582-.222-.668-.176-.09-.399-.047-.668.222l-2.274 4.325-4.058-2.094c-.36.086-.535.176-.625.398s-.09.403.043.715l4.058 2.051-2.988 5.844a26 26 0 0 1-6.512 1.785h-.043c-.312.266-.492.488-.445.668.043.18.133.355.398.492h.047a19 19 0 0 0 5.754-1.383l-2.453 4.77c0 .402.043.625.223.672h.133a.93.93 0 0 0 .535-.223h.047l9.05-17.621Zm87.286 7.847 10.882-5.707a.273.273 0 0 1 .36 0c.355.133.847.891 1.25 3.567h.043c.265.27.492.36.668.312a.58.58 0 0 0 .402-.445c-.535-2.766-1.203-4.324-2.098-4.727a1.02 1.02 0 0 0-1.07.043l-1.426.758a29 29 0 0 0-.492-4.012c-.266-.269-.488-.402-.71-.312-.224.09-.27.176-.36.445.336 1.461.457 2.965.36 4.461l-2.056 1.07a32.6 32.6 0 0 0-3.968-3.21h-.09c-.223.043-.399.132-.445.312a.81.81 0 0 0 .09.758h.042a36 36 0 0 1 3.348 2.676l-3.078 1.605a20 20 0 0 0-3.566-2.453h-.09a.54.54 0 0 0-.36.402.85.85 0 0 0 .137.625h.043c1.16.758 2.098 1.38 2.766 1.918l-1.426.758a1.44 1.44 0 0 0-.762.934c-.031.504.094 1 .36 1.43l1.472 2.808h.043c.133.09.285.152.445.18h.18a.88.88 0 0 0 .266-.625l-1.336-2.543c-.403-.625-.09-.89.176-1.028m16.55.985a1.1 1.1 0 0 0-.582-.403h-.043l-5.8 3.032a4.6 4.6 0 0 0-.848-.535c-.266-.09-.399-.176-.445-.313a.71.71 0 0 1 .27-.578c1.202-1.828 1.827-3.031 1.827-3.613a1.12 1.12 0 0 0-.582-.891c-.355-.18-.933-.09-1.691.313l-6.914 3.613a.97.97 0 0 0 0 .71.67.67 0 0 0 .535.36h.043l6.824-3.57c.223-.09.313-.09.313-.043 0 .043.132.398-1.606 2.676-.445.8-.355 1.472.356 1.96l.847.403-6.644 3.434a.98.98 0 0 0 0 .714c.125.203.34.336.582.356h.043l7.09-3.746c1.605 1.605 2.367 2.898 2.277 3.879a1.88 1.88 0 0 1-.848 1.34c-.804.535-1.828.624-3.035.222h-.133a.8.8 0 0 0-.265.578c0 .18.132.36.355.582a5 5 0 0 0 1.563.266 4.46 4.46 0 0 0 2.093-.535 2.76 2.76 0 0 0 1.43-2.004c.176-1.297-.625-2.945-2.41-4.863l5.398-2.809a.9.9 0 0 0 0-.535m-17.664 14.539h-.043c-3.746-.758-7.406-4.371-10.93-10.84l7.227-2.05h.09a.93.93 0 0 0 .176-.716c-.043-.222-.223-.355-.535-.488h-.043l-7.27 2.05-1.203-4.323h-.047c-.222-.27-.445-.403-.625-.36-.176.047-.312.27-.355.625l1.203 4.328-6.422 1.829h-.09a.74.74 0 0 0-.176.71.83.83 0 0 0 .535.493h.043l6.47-1.828c1.245 6.468.222 11.46-3.126 14.808h-.043c-.105.29-.09.61.043.89.149.13.34.196.535.18h.18c3.168-3.125 4.461-7.628 3.879-13.292 3.168 5.308 6.691 8.386 10.484 9.277h.086c.192-.156.32-.38.36-.625a.76.76 0 0 0-.403-.668m-49.465-7.715-1.113 12.977c0 .757-.18 1.293-.535 1.562a.95.95 0 0 1-.715.223h-.355l-5.176-.446a1.11 1.11 0 0 1-.934-.359c-.312-.309-.449-.844-.36-1.648l1.071-13.024c0-.492.172-.965.492-1.34a1.29 1.29 0 0 1 1.16-.398l2.051.176.313-3.614a.72.72 0 0 1 .535-.355c.223 0 .356.18.492.445l-.312 3.614 2.093.18c1.07.175 1.473.89 1.293 2.007m-7.668 6.512-.449 5.531c-.07.3-.023.621.137.89.129.09.285.137.445.133l1.828.133.536-6.465Zm5.575 6.066.445-5.531-2.496-.223-.535 6.465 1.781.133a.62.62 0 0 0 .582 0c.168-.246.25-.547.223-.844m-4.196-13.738a.76.76 0 0 0-.578.176c-.14.214-.219.46-.222.714l-.493 5.532 2.5.18.579-6.47Zm2.813.223-.535 6.464 2.496.227.445-5.531c.086-.25.067-.524-.043-.758a.73.73 0 0 0-.578-.223Zm31.531 10.035c.27 2.23.047 3.656-.621 4.414-.36.37-.871.554-1.383.492l-5.176.492h-.355c-.258 0-.504-.078-.715-.226-.402-.266-.625-.848-.715-1.692l-.265-2.902-4.774.449a1.16 1.16 0 0 1-.98-.137q-.58-.397-.668-1.605l-.848-8.785c-.07-.493.024-.993.266-1.43a1.21 1.21 0 0 1 1.027-.578l4.816-.445-.222-2.364c.133-.36.265-.535.445-.535s.356.133.578.445l.227 2.364 4.77-.446c.406-.066.824.028 1.16.266.355.406.53.938.492 1.473l.8 8.832c.137 1.25-.355 1.918-1.425 2.008l-4.64.445.226 2.496c.015.379.156.738.398 1.027.168.082.36.102.535.043l4.774-.445a.85.85 0 0 0 .847-.266c.493-.445.578-1.562.356-3.3.137-.36.312-.536.492-.536s.355.133.535.446Zm-10.3-10.618-4.505.403c-.312.047-.671.18-.625 1.027l.313 3.031 5.219-.488Zm.488 5.266-5.22.488.36 3.746c.043.45.18.762.356.848.18.09.222.09.445.047l4.508-.445Zm5.843-4.906a.93.93 0 0 0-.18-.758.62.62 0 0 0-.577-.137l-4.504.403.355 4.015 5.219-.492Zm.715 8.965c.133-.18.133-.446.043-.895l-.312-3.746-5.22.492.45 4.684 4.504-.402a.77.77 0 0 0 .535-.133m-18.734-12.399-3.031-.27c-.98-.09-1.516.536-1.606 1.739l-1.516 17.977c.133.355.266.535.446.535h.043c.18 0 .36-.133.535-.446l1.473-17.664c.027-.257.117-.5.27-.714a.72.72 0 0 1 .534-.176l2.453.222a.27.27 0 0 1 .266.133c.098.278.082.582-.043.848a29.6 29.6 0 0 1-2.008 5.664 2.54 2.54 0 0 0 0 1.828c1.426 2.453 2.051 4.371 1.828 5.621-.222 1.25-.222 1.516-.625 1.875-.34.27-.777.383-1.203.309a4 4 0 0 1-1.652-.98h-.043a.72.72 0 0 0-.535.179c-.18.133-.223.402-.223.8h.043c.402.536 1.207.985 2.41 1.298 1.203.312 2.453-.762 2.809-2.68.355-1.914-.266-4.367-1.871-7a.89.89 0 0 1 .086-.938c.91-2 1.64-4.074 2.187-6.199a2.1 2.1 0 0 0-.09-1.426 1.4 1.4 0 0 0-.937-.535m0 0" style="stroke:none;fill-rule:nonzero;fill:#039;fill-opacity:1"/><path d="M506.698 283.104c0 122.876-99.615 222.499-222.499 222.499S61.701 405.98 61.701 283.104c0-122.884 99.614-222.507 222.498-222.507s222.499 99.623 222.499 222.507Zm0 0" style="fill:none;stroke-width:2;stroke-linecap:butt;stroke-linejoin:miter;stroke:#039;stroke-opacity:1;stroke-miterlimit:10" transform="rotate(.172)scale(.44602)"/><path d="M563.003 282.5c0 154.913-125.59 280.503-280.503 280.503S1.997 437.413 1.997 282.5 127.587 1.997 282.5 1.997 563.003 127.587 563.003 282.5Zm0 0" style="fill:none;stroke-width:4;stroke-linecap:butt;stroke-linejoin:miter;stroke:#039;stroke-opacity:1;stroke-miterlimit:10" transform="rotate(.172)scale(.44602)"/></svg>