<svg width="88" height="88" viewBox="0 0 88 88" fill="none" xmlns="http://www.w3.org/2000/svg">
<path d="M47.4655 5.64778L46.7074 10.382C46.5372 11.5113 47.4964 12.4551 49.1828 12.7181C49.5114 12.8125 49.8566 12.8341 50.1945 12.7814C50.5323 12.7287 50.8545 12.603 51.1388 12.413C51.423 12.223 51.6624 11.9733 51.8403 11.6813C52.0182 11.3893 52.1303 11.0621 52.1687 10.7223L52.6793 7.51979C52.8185 6.59152 53.2517 6.11192 53.7777 5.97268C53.9479 5.97268 54.1181 5.97268 54.1335 5.86438C54.149 5.75608 54.1335 5.74061 53.9943 5.72514L52.8959 5.60137L51.751 5.40024C51.6272 5.40024 51.5963 5.40024 51.5808 5.49307C51.5653 5.5859 51.72 5.63231 51.8748 5.70967C52.3544 5.95721 52.6174 6.52964 52.4627 7.45791L51.9521 10.7378C51.9472 11.0129 51.8812 11.2836 51.7588 11.5301C51.6365 11.7765 51.4608 11.9928 51.2446 12.163C51.0285 12.3333 50.7771 12.4534 50.5088 12.5146C50.2405 12.5758 49.962 12.5766 49.6933 12.517C49.4672 12.5067 49.2462 12.447 49.0457 12.342C48.8452 12.237 48.6702 12.0893 48.533 11.9094C48.3958 11.7294 48.2997 11.5215 48.2516 11.3004C48.2035 11.0792 48.2045 10.8502 48.2545 10.6295L48.9971 5.89532C49.1364 5.02894 50.0028 5.60137 50.0492 5.29195C50.0956 4.98252 50.0492 5.13724 49.8635 5.12176L48.3164 4.90517L46.7693 4.64216C46.7074 4.62669 46.7074 4.6731 46.7074 4.7814C46.7074 4.8897 47.6047 4.7814 47.4655 5.64778ZM53.4064 13.1358C53.4064 13.1358 53.4064 13.2596 53.4992 13.306L54.6441 13.7856L55.7735 14.3116H55.9591C55.9901 14.3116 55.7271 14.126 55.5105 13.8784C55.2939 13.6309 55.0928 13.1513 55.5105 12.3313L57.3051 8.26241L59.239 15.8123C59.239 15.967 59.239 16.1217 59.3783 16.1682C59.5175 16.2146 59.533 16.0753 59.6103 15.8742L61.8846 10.7223C62.2404 9.91782 62.7046 9.73216 63.0604 9.73216C63.4162 9.73216 63.6174 9.94876 63.6792 9.73216C63.7411 9.51557 63.6792 9.6084 63.5864 9.56198L62.4415 9.08238L61.3122 8.55636H61.1265C61.0956 8.55636 61.3586 8.74201 61.5906 8.98955C61.8227 9.23709 62.0084 9.73216 61.5906 10.5367L60.2756 13.4917L58.7285 7.41149L57.5372 6.9783L56.4697 6.48322H56.2995C56.2686 6.48322 56.2995 6.62246 56.4697 6.71529C56.6554 6.82841 56.8113 6.98436 56.9243 7.17009C57.0373 7.35581 57.1043 7.56591 57.1195 7.7828L55.2165 12.1921C54.8607 12.9966 54.3966 13.1822 54.0407 13.1822C53.6849 13.1822 53.4838 12.9656 53.4064 13.1358ZM65.8297 12.2849L62.5344 16.9262C62.0238 17.6379 61.5133 16.7406 61.3276 16.9262C61.142 17.1119 61.3276 17.0655 61.4205 17.1738L62.6736 18.0402L63.8958 18.9375C64.0351 19.0458 64.1124 19.0149 64.1588 18.9375C64.2053 18.8601 63.3234 18.4888 63.834 17.7772L67.1293 13.1358C67.6399 12.4241 68.1504 13.3215 68.3361 13.1358C68.5217 12.9502 68.3361 12.9966 68.2432 12.8883L66.9901 12.0219L65.7678 11.1246C65.6286 11.0163 65.5512 11.0472 65.5048 11.1246C65.4584 11.2019 66.3403 11.5732 65.8297 12.2849ZM70.0379 15.6112L67.2067 21.9234C67.2067 22.0472 67.0984 22.171 67.2067 22.2174C67.315 22.2638 67.3768 22.2174 67.5161 22.2174L73.3487 19.9741C74.8958 19.3552 75.1898 20.2835 75.4218 20.0669C75.6539 19.8503 75.4218 19.8812 75.2826 19.7111L74.509 18.9375L73.7664 18.1175C73.6891 18.0247 73.5962 18.0247 73.5498 18.1175C73.5034 18.2104 74.1842 18.8137 73.4261 19.5409C73.2447 19.7059 73.035 19.8369 72.8072 19.9277L69.2643 21.3046L71.2601 17.05C71.3156 16.9231 71.3943 16.8077 71.4922 16.7097C71.9099 16.3074 72.2348 17.0655 72.405 16.9108C72.5751 16.7561 72.405 16.787 72.3121 16.6323L71.2756 15.5648L70.2235 14.4199H70.0379C69.9915 14.4199 70.4401 14.6829 70.0379 15.6112ZM75.886 22.2328L71.0126 25.1414C70.2545 25.5901 70.1462 24.569 69.8832 24.7237C69.6202 24.8784 69.7903 24.832 69.8832 24.9867L70.6877 26.2863C71.4612 27.5859 72.2348 28.8545 72.931 30.0922L75.2671 29.2568L75.5611 29.133C75.5714 29.1229 75.5796 29.1109 75.5851 29.0976C75.5907 29.0843 75.5936 29.07 75.5936 29.0556C75.5936 29.0412 75.5907 29.027 75.5851 29.0137C75.5796 29.0004 75.5714 28.9884 75.5611 28.9783C75.5611 28.9009 75.4218 28.9783 75.2052 28.9783C74.5538 29.1657 73.8588 29.134 73.2271 28.888C72.5954 28.642 72.062 28.1954 71.7088 27.6168C71.3529 27.0134 71.4767 26.704 71.9099 26.4565L74.277 25.0486L74.4162 25.2807C74.5149 25.443 74.5785 25.6241 74.603 25.8125C74.6275 26.0009 74.6123 26.1923 74.5584 26.3744C74.5045 26.5566 74.413 26.7254 74.29 26.8701C74.1669 27.0148 74.0149 27.1321 73.8438 27.2146C73.6581 27.3383 73.6272 27.4002 73.6891 27.493C73.751 27.5859 73.7974 27.493 73.8747 27.493L76.7524 25.7757C76.8297 25.7757 76.8607 25.652 76.7524 25.6056C76.6441 25.5591 76.6286 25.5127 76.4429 25.6056C76.2887 25.6976 76.1178 25.7583 75.94 25.784C75.7622 25.8098 75.5811 25.8001 75.4071 25.7555C75.2331 25.7109 75.0696 25.6323 74.9261 25.5243C74.7826 25.4162 74.6619 25.2809 74.5709 25.126L74.5555 24.8939L77.2629 23.3468L77.5723 23.8573C77.8756 24.2629 78.0546 24.7478 78.0876 25.2531C78.1206 25.7585 78.006 26.2625 77.758 26.704C77.3712 27.4312 77.201 27.524 77.2474 27.6013C77.2938 27.6787 77.3248 27.6787 77.3712 27.6013L77.5878 27.4002L79.1349 25.8531C78.4697 24.7546 77.7889 23.6562 77.0927 22.4804C76.8607 22.1091 76.6131 21.6449 76.3346 21.1653C76.2418 21.0106 76.1799 21.0106 76.1026 21.057C76.0252 21.1035 76.6441 21.7997 75.886 22.2328ZM73.8283 31.562C73.751 31.562 73.7045 31.6393 73.8283 31.8095C73.983 32.351 74.1532 32.8461 74.277 33.2638C74.4007 33.6815 74.5245 34.192 74.6792 34.7335C74.6792 34.9037 74.7875 34.9347 74.8803 34.9037C74.9732 34.8728 74.4936 34.0373 75.3445 33.7898L77.8663 33.0472C77.9751 33.3065 78.0038 33.5924 77.9486 33.8682C77.8935 34.1439 77.757 34.3968 77.5569 34.5943L75.2052 36.652L75.5456 37.7813C75.6539 38.1527 75.7467 38.5394 75.855 38.9262C75.855 39.019 75.9324 39.019 75.9943 38.9262C76.0562 38.8334 75.6849 38.261 76.3811 37.5957L77.6652 36.358C77.9865 36.0454 78.2013 35.6395 78.279 35.198C78.3568 34.7565 78.2936 34.3017 78.0983 33.8981C78.9647 35.9867 79.8621 36.3271 80.7439 36.0641C81.6258 35.801 82.291 34.5169 81.796 32.7687C81.5948 32.0725 81.4401 31.6238 81.2854 31.0978C81.1307 30.5718 81.0379 30.1695 80.8832 29.6281C80.8677 29.5352 80.7439 29.5352 80.7439 29.5352C80.7439 29.5352 81.1307 30.4016 80.2798 30.6492L74.8494 32.1963C73.983 32.5057 74.1223 31.4846 73.8283 31.562ZM81.3163 31.9951L81.5175 32.6604C81.7805 33.5577 81.5175 34.2075 80.3107 34.5943C80.0896 34.6989 79.8468 34.7496 79.6023 34.7422C79.3578 34.7349 79.1186 34.6696 78.9042 34.5518C78.6898 34.4341 78.5063 34.2671 78.3689 34.0648C78.2316 33.8624 78.1441 33.6303 78.1138 33.3875L77.9901 32.9853L81.3163 31.9951ZM83.1884 43.7377C83.3814 43.1468 83.4958 42.533 83.5287 41.9121C83.5308 41.6021 83.4708 41.2949 83.3523 41.0084C83.2337 40.722 83.0589 40.4622 82.8382 40.2445C82.6176 40.0267 82.3556 39.8554 82.0676 39.7406C81.7796 39.6258 81.4716 39.5698 81.1616 39.576C78.4542 39.7152 79.7383 44.0317 77.5414 44.14C76.7059 44.14 76.1026 43.5676 75.9943 42.4536C75.9943 40.9065 77.2784 40.2413 78.6553 39.9164C78.8874 39.9164 79.0421 39.9164 79.0421 39.7462C79.0421 39.576 79.0421 39.6379 78.8719 39.6379L75.7777 39.7771C75.7777 39.7771 75.6848 39.7771 75.6848 39.87C75.6848 39.9628 76.0562 39.9783 76.0871 40.396C76.118 40.8137 75.623 41.3552 75.6848 42.4382C75.6744 42.7987 75.7369 43.1577 75.8687 43.4935C76.0005 43.8292 76.1988 44.1349 76.4516 44.3921C76.7045 44.6494 77.0068 44.8528 77.3403 44.9903C77.6738 45.1277 78.0316 45.1964 78.3923 45.192C81.3473 45.0528 80.1405 40.659 81.9352 40.5507C82.7706 40.5507 83.1419 41.1076 83.1729 41.8812C83.1729 43.1034 82.5386 43.7223 81.3473 44.2638C80.9141 44.4649 80.6975 44.4804 80.6975 44.5887C80.6975 44.6969 80.6975 44.6815 80.8058 44.666H81.1616L83.2193 44.3721C83.3895 44.3721 83.4204 44.3721 83.405 44.2328C83.3895 44.0936 83.2038 44.1245 83.1884 43.7377ZM83.1729 47.4663C82.8635 47.4663 83.1729 48.41 82.291 48.3017L76.675 47.5436C75.8086 47.4199 76.3501 46.5535 76.0562 46.5071C75.7622 46.4607 75.9169 46.5071 75.886 46.7082C75.886 47.2652 75.7622 47.7912 75.7003 48.2553C75.6384 48.7195 75.5456 49.1991 75.4683 49.8024C75.4683 49.9726 75.4682 50.0345 75.5765 50.0345C75.6848 50.0345 75.5766 49.0908 76.4584 49.1991L82.0744 49.9571C82.9408 50.0809 82.3993 50.9473 82.6933 50.9937C82.9872 51.0401 82.8325 50.9937 82.8635 50.7926C82.8635 50.2356 82.9872 49.7096 83.0491 49.2455C83.111 48.7813 83.2038 48.2863 83.2657 47.6984C83.3121 47.5282 83.2657 47.4818 83.1729 47.4663ZM82.291 53.5929L80.5118 52.6182L80.156 52.4325C80.1473 52.4226 80.1366 52.4147 80.1246 52.4093C80.1126 52.4039 80.0996 52.4011 80.0864 52.4011C80.0732 52.4011 80.0602 52.4039 80.0482 52.4093C80.0362 52.4147 80.0255 52.4226 80.0168 52.4325C80.4502 52.8213 80.7948 53.299 81.027 53.8329C81.2593 54.3669 81.3738 54.9446 81.3628 55.5268L75.6384 53.6702C74.9732 53.4536 74.9422 53.0823 75.1124 52.5718V52.3397C75.1124 52.3088 74.9732 52.3397 74.9422 52.4635C74.7411 53.0514 74.5864 53.5929 74.4162 54.0106C74.246 54.4283 74.0604 55.0162 73.8593 55.5577V55.7588C73.8593 55.7898 74.014 55.7588 74.0604 55.6196C74.2306 55.109 74.4781 54.846 75.1434 55.0626L80.8832 56.9965C79.63 58.8685 78.0055 58.4199 77.9127 58.6674C77.8975 58.6844 77.8891 58.7064 77.8891 58.7293C77.8891 58.7521 77.8975 58.7741 77.9127 58.7912H78.2995L80.3107 59.0851H80.5428C80.5629 59.0302 80.5629 58.9699 80.5428 58.9149C80.5074 58.8148 80.5074 58.7056 80.5428 58.6055L82.0899 53.9642C82.1247 53.8686 82.1899 53.787 82.2756 53.7321C82.2756 53.7321 82.3839 53.7321 82.3993 53.6083C82.4148 53.4846 82.4457 53.6702 82.291 53.5929ZM78.0829 62.0246L74.4317 61.8235L72.3586 60.4775C71.6159 60.0134 72.4823 59.441 72.2193 59.2862C71.9563 59.1315 72.0801 59.2862 71.9872 59.3945C71.6933 59.8741 71.4303 60.3228 71.1982 60.6941C70.9661 61.0654 70.6722 61.4986 70.3782 61.9782C70.2854 62.1329 70.3782 62.1948 70.3782 62.2412C70.3782 62.2876 70.7805 61.3748 71.5231 61.839L73.7664 63.2314L74.9113 65.4747C75.8396 67.2848 75.3135 67.5633 75.4992 67.6716C75.5093 67.6819 75.5213 67.6901 75.5346 67.6957C75.5479 67.7012 75.5621 67.7041 75.5765 67.7041C75.591 67.7041 75.6052 67.7012 75.6185 67.6957C75.6318 67.6901 75.6438 67.6819 75.6539 67.6716L76.1799 66.8052C76.412 66.4339 76.5667 66.2173 76.7524 65.9234C76.938 65.6294 76.7524 65.7068 76.7524 65.6758C76.7524 65.6449 76.3346 66.2173 75.7158 65.8305C75.3447 65.5653 75.0423 65.2152 74.8339 64.8094L73.9985 63.2623L76.7369 63.448C76.9529 63.4467 77.1657 63.4999 77.3557 63.6027C77.8818 63.9276 77.3557 64.3762 77.4795 64.5C77.6033 64.6238 77.6187 64.5 77.6961 64.3608C77.9746 63.9276 78.2221 63.4789 78.4851 63.0457L79.3206 61.7462V61.5296C79.3206 61.4986 79.0576 62.0246 78.0829 62.0246ZM18.5499 63.5717C18.3178 63.2159 18.4416 62.5042 17.8382 61.6069C17.6609 61.2924 17.4218 61.0169 17.1353 60.7972C16.8487 60.5775 16.5207 60.418 16.1709 60.3284C15.8211 60.2388 15.4568 60.2209 15.0999 60.2758C14.743 60.3306 14.4009 60.4572 14.0942 60.6477C11.6343 62.2876 14.9297 65.4283 13.429 66.4339C12.7328 66.898 12.1139 66.5732 11.6807 65.9234C11 64.9177 11.2785 64.0204 12.0211 62.9529C12.2841 62.5661 12.4698 62.4269 12.4079 62.3341C12.346 62.2412 12.4079 62.3341 12.2686 62.3341L11.9901 62.5661L10.443 63.8812C10.3038 63.974 10.3038 64.0359 10.3502 64.0978C10.3966 64.1597 10.6287 63.9585 10.8298 64.268C10.9727 64.8997 11.2018 65.5087 11.5105 66.0781C11.6679 66.3455 11.8773 66.5787 12.1264 66.7638C12.3754 66.949 12.6591 67.0822 12.9606 67.1558C13.262 67.2294 13.5752 67.2417 13.8815 67.1921C14.1879 67.1425 14.4811 67.032 14.744 66.8671C17.0028 65.32 13.661 62.3186 15.5021 61.0964C16.1983 60.6322 17.0492 60.8334 17.6526 61.7616C18.5344 63.0921 17.6526 64.3144 16.6779 65.3045C16.5077 65.4747 16.3685 65.5521 16.4304 65.6449C16.4923 65.7377 16.5232 65.6449 16.6315 65.6449L19.1533 63.9585V63.8348C19.1533 63.7883 18.8593 63.8502 18.5499 63.5717ZM15.1617 57.9403C15.2391 57.9403 15.2855 57.8474 15.1617 57.6927C14.9761 57.1667 14.7904 56.6716 14.6512 56.2539C14.5119 55.8362 14.3572 55.3411 14.1871 54.7996C14.1871 54.6294 14.0633 54.614 13.9859 54.6449C13.9086 54.6758 14.4036 55.4958 13.5682 55.7743L10.8298 56.6871L9.9789 53.9796L12.6709 53.0514C13.5063 52.7729 13.398 53.794 13.692 53.7012C13.9859 53.6083 13.8157 53.6083 13.692 53.4536C13.5063 52.9276 13.3207 52.4325 13.1814 52.0148C13.0422 51.5971 12.9029 51.102 12.7173 50.5605C12.7173 50.3903 12.5935 50.3749 12.5162 50.4058C12.4388 50.4367 12.9339 51.2567 12.0984 51.5352L6.83826 53.3453C6.00282 53.6238 6.11111 52.6027 5.81716 52.6955C5.52321 52.7884 5.69339 52.7884 5.81716 52.9431C5.98735 53.4691 6.18847 53.9642 6.32771 54.3819C6.46695 54.7996 6.60619 55.3102 6.79184 55.8362C6.79184 56.0064 6.91561 56.0218 6.99297 55.9909C7.07033 55.9599 6.57525 55.14 7.41069 54.8615L9.79325 54.057L10.706 56.7799L8.32349 57.5844C7.48805 57.8629 7.59634 56.8418 7.30239 56.9346C7.00844 57.0275 7.17862 57.0275 7.30239 57.1822C7.48805 57.7082 7.6737 58.2033 7.81294 58.621C7.95218 59.0387 8.09142 59.5338 8.27707 60.0753C8.27707 60.2455 8.40084 60.2609 8.4782 60.2454C8.55556 60.23 8.06048 59.3945 8.89592 59.1161L14.218 57.2905C14.9761 57.012 14.8678 58.0331 15.1617 57.9403ZM11.6343 48.1006C12.5162 48.1006 12.1294 49.0134 12.4388 48.9979C12.7482 48.9825 12.5781 48.9979 12.5626 48.7659C12.5626 48.2089 12.5626 47.6829 12.4698 47.2188C12.4698 45.6716 12.3305 44.2483 12.2841 42.8095L9.83966 42.4536L9.57665 42.3763C9.56243 42.3763 9.54835 42.3791 9.53521 42.3845C9.52207 42.39 9.51013 42.3979 9.50007 42.408C9.49002 42.4181 9.48204 42.43 9.4766 42.4431C9.47115 42.4563 9.46835 42.4704 9.46835 42.4846C9.46835 42.5774 9.57665 42.5929 9.77778 42.6393C10.4408 42.7805 11.0391 43.1355 11.4807 43.6498C11.9223 44.1641 12.1829 44.8092 12.2222 45.486C12.2222 46.1822 12.0056 46.3988 11.4951 46.4142L8.66385 46.5535V46.275C8.66385 45.5169 9.11252 44.929 10.0872 44.8362C10.3038 44.8362 10.3502 44.8362 10.3502 44.666C10.3502 44.4958 10.3502 44.5577 10.1955 44.5577L6.85373 44.7124C6.7609 44.7124 6.69902 44.7124 6.69902 44.8362C6.69902 44.96 6.69902 44.9754 6.9775 44.9754C7.15633 44.9671 7.33505 44.9942 7.50342 45.055C7.67179 45.1158 7.82651 45.2093 7.95872 45.33C8.09092 45.4507 8.19803 45.5963 8.27389 45.7585C8.34976 45.9206 8.3929 46.0962 8.40084 46.275V46.5535L5.30661 46.7082V46.1203C5.23611 45.6246 5.30944 45.119 5.51788 44.6638C5.72632 44.2085 6.06109 43.8226 6.48242 43.5521C7.17862 43.088 7.36428 43.088 7.34881 42.9951C7.33333 42.9023 7.34881 42.8868 7.25598 42.8868L6.9775 42.9642L4.91984 43.614C4.91984 44.8981 5.07455 46.1977 5.13643 47.5436V49.0908C5.13643 49.2609 5.13643 49.3074 5.29114 49.3074C5.44586 49.3074 5.12096 48.3791 6.00282 48.3327L11.6343 48.1006ZM5.07455 39.4986C5.19832 39.4986 5.21379 39.4986 5.2602 39.2821C5.33554 39.0806 5.45754 38.8999 5.6162 38.7546C5.77487 38.6094 5.96568 38.5039 6.173 38.4466L10.8143 39.4677C11.6653 39.6534 11.9437 40.0711 12.0211 40.4269C12.0984 40.7827 11.9128 41.0148 12.0211 41.0458C12.1294 41.0767 12.1449 41.0458 12.1758 40.922C12.2532 40.5662 12.3305 40.133 12.4233 39.6998C12.5162 39.2666 12.6709 38.8179 12.8256 38.4776C12.8256 38.3538 12.8256 38.3228 12.7482 38.3074C12.6709 38.2919 12.609 38.5704 12.4233 38.8334C12.2377 39.0964 11.789 39.3904 10.8762 39.2047L6.54431 38.261L13.5991 34.8418C13.7539 34.8418 13.8931 34.7335 13.9086 34.6252C13.924 34.5169 13.7848 34.5015 13.5837 34.4551L8.02954 33.2483C7.17862 33.0627 6.90014 32.6449 6.82279 32.2891C6.74543 31.9333 6.93109 31.7012 6.82279 31.6702C6.71449 31.6393 6.69902 31.6702 6.66808 31.794C6.59072 32.1499 6.51336 32.583 6.42054 33.0162C6.32771 33.4494 6.21941 33.8671 6.12659 34.223C6.12659 34.3468 6.12659 34.3777 6.20394 34.3932C6.2813 34.4086 6.32771 34.1766 6.48242 33.8826C6.63713 33.5887 7.11674 33.3257 8.02954 33.5113L11.1238 34.1766L5.52321 36.9923L5.2602 38.1836C5.16737 38.5858 5.07455 38.9726 4.98172 39.3285C4.93531 39.4213 4.93531 39.4832 5.07455 39.4986ZM9.57665 30.7884C9.58386 30.798 9.5932 30.8058 9.60394 30.8112C9.61468 30.8165 9.62653 30.8193 9.63854 30.8193C9.65055 30.8193 9.66239 30.8165 9.67313 30.8112C9.68387 30.8058 9.69321 30.798 9.70042 30.7884C9.70042 30.6646 9.60759 30.6801 9.11252 29.9375C8.83306 29.5223 8.67489 29.0374 8.65576 28.5373C8.63663 28.0371 8.7573 27.5416 9.00422 27.1063L9.31364 26.441L13.7693 33.0472C13.8622 33.171 13.9086 33.2483 13.955 33.2638C14.0014 33.2792 14.0633 33.2638 14.0942 33.2638C14.481 32.4593 14.8368 31.6238 15.2236 30.8193C15.6104 30.0148 15.9972 29.2722 16.384 28.4058L14.481 27.0134L14.1252 26.7659C14.1151 26.7556 14.103 26.7474 14.0898 26.7418C14.0765 26.7363 14.0622 26.7334 14.0478 26.7334C14.0334 26.7334 14.0191 26.7363 14.0059 26.7418C13.9926 26.7474 13.9805 26.7556 13.9705 26.7659C13.8931 26.9361 14.4965 27.1991 14.9142 27.9262C15.1632 28.3454 15.301 28.8212 15.3146 29.3086C15.3281 29.796 15.2169 30.2787 14.9916 30.711L14.6048 31.5155L10.1646 25.0177C10.1026 24.9085 10.0243 24.8093 9.93249 24.7237C9.93249 24.7237 9.83966 24.7237 9.77778 24.8475C9.42194 25.6056 9.11252 26.3946 8.75668 27.0598C8.40084 27.7251 8.06048 28.5141 7.72011 29.2258L9.37553 30.6027L9.57665 30.7884ZM12.3305 22.3876L16.7553 25.9305C17.436 26.4719 16.5232 26.9515 16.7553 27.1372C16.9873 27.3229 16.8945 27.1372 17.0028 27.0598L17.9311 25.8531L18.9058 24.6773C19.014 24.5381 18.9986 24.4762 18.9058 24.4143C18.8129 24.3524 18.4107 25.2188 17.7299 24.6773L15.5021 22.8826L17.3122 20.6393L19.571 22.4494C20.2517 22.9909 19.3389 23.4705 19.571 23.6562C19.8031 23.8419 19.7103 23.6562 19.8185 23.5788L20.7468 22.3721L21.7215 21.1963C21.8298 21.057 21.8143 20.9952 21.7215 20.9333C21.6287 20.8714 21.2264 21.7378 20.5457 21.1963L16.1209 17.6534C15.4402 17.1119 16.353 16.6323 16.1209 16.4466C15.8889 16.261 15.9817 16.4466 15.8734 16.524L14.9451 17.7307L13.9705 18.9066C13.8622 19.0458 13.8776 19.1077 13.9705 19.1696C14.0633 19.2314 14.4655 18.3651 15.1463 18.9066L17.1111 20.4537L15.2855 22.7125L13.3207 21.1653C12.6399 20.6238 13.5527 20.1442 13.3207 19.9586C13.0886 19.7729 13.1814 19.9586 13.0731 20.0359L12.1449 21.2427L11.1238 22.3876C11.0155 22.5268 11.0309 22.5887 11.1238 22.6506C11.2166 22.7125 11.6498 21.7997 12.3305 22.3876ZM19.8804 14.2033L23.1758 18.8447C23.6863 19.5563 22.6652 19.7575 22.8509 20.005C23.0365 20.2525 22.9747 20.0978 23.1139 20.005L24.3361 19.1077L27.9409 16.5549L26.9198 14.2962C26.8743 14.2001 26.8226 14.1071 26.7651 14.0177C26.755 14.0074 26.743 13.9992 26.7297 13.9936C26.7164 13.988 26.7021 13.9852 26.6877 13.9852C26.6733 13.9852 26.6591 13.988 26.6458 13.9936C26.6325 13.9992 26.6205 14.0074 26.6104 14.0177C26.5949 14.0641 26.5949 14.0641 26.5949 14.2807C26.8337 14.9134 26.8585 15.6069 26.6658 16.2552C26.473 16.9034 26.0731 17.4706 25.5274 17.87C24.955 18.2722 24.6455 18.1794 24.3516 17.7772L22.8045 15.5338L23.0211 15.3791C23.1753 15.2667 23.3514 15.1879 23.538 15.1479C23.7246 15.108 23.9175 15.1076 24.1042 15.147C24.291 15.1864 24.4673 15.2646 24.6219 15.3766C24.7764 15.4885 24.9057 15.6317 25.0014 15.7969C25.1406 15.967 25.2025 15.998 25.2799 15.9361C25.3572 15.8742 25.2799 15.8278 25.2799 15.7504L23.346 13.012C23.346 12.9347 23.2222 12.9192 23.1603 13.012C23.0984 13.1049 23.083 13.1358 23.1603 13.3215C23.2644 13.4676 23.3386 13.6328 23.3786 13.8077C23.4186 13.9826 23.4236 14.1636 23.3935 14.3405C23.3633 14.5173 23.2984 14.6865 23.2027 14.8381C23.1069 14.9898 22.9821 15.1211 22.8354 15.2244L22.6188 15.3791L20.8242 12.7645L21.3038 12.4241C21.6826 12.0899 22.1501 11.8726 22.6498 11.7985C23.1495 11.7244 23.66 11.7966 24.1195 12.0064C24.8776 12.3313 24.9859 12.486 25.0633 12.4396C25.1406 12.3932 25.0633 12.3468 25.0633 12.3004L24.8467 12.1147L23.1913 10.7378L20.0351 13.0275L18.782 13.8939C18.6427 14.0022 18.6427 14.0641 18.6892 14.1414C18.7356 14.2188 19.3854 13.4917 19.8804 14.2033ZM26.8734 8.83484C27.0846 8.78667 27.3043 8.78961 27.5142 8.84343C27.7241 8.89724 27.9181 9.00038 28.0801 9.14426L29.7665 13.6154C30.0759 14.4354 29.8748 14.8995 29.6118 15.1625C29.3488 15.4255 29.0703 15.3946 29.1322 15.5648C29.1941 15.735 29.1322 15.6731 29.3178 15.5648L30.4782 15.1007L31.654 14.6829C31.7777 14.6829 31.7777 14.5746 31.7623 14.5127C31.7468 14.4509 31.4683 14.5127 31.128 14.5127C30.7876 14.5127 30.3235 14.2807 30.014 13.4607L28.4514 9.42274L35.1195 13.4607C35.2588 13.5535 35.3825 13.6464 35.4753 13.6154C35.5682 13.5845 35.4753 13.4452 35.4753 13.2441L33.4641 7.87563C33.1547 7.05566 33.3558 6.59152 33.6188 6.32851C33.8818 6.0655 34.1603 6.09645 34.0984 5.92626C34.0365 5.75608 34.0984 5.81797 33.9128 5.92626L31.6076 6.74623C31.4838 6.74623 31.4838 6.85453 31.5147 6.91642C31.5457 6.9783 31.8087 6.91642 32.1336 6.91642C32.4585 6.91642 32.9535 7.14848 33.2475 7.96845L34.3305 10.9699L28.9311 7.87563L27.7862 8.30882L26.6723 8.71107C26.5949 8.71107 26.564 8.71107 26.5949 8.86578C26.6258 9.02049 26.7032 8.88125 26.8734 8.83484Z" fill="#980042"/>
<path d="M23.5937 74.2623C23.5936 74.3964 23.62 74.5292 23.6713 74.6532C23.7226 74.7771 23.7978 74.8897 23.8926 74.9845C23.9875 75.0794 24.1 75.1546 24.2239 75.2059C24.3478 75.2573 24.4806 75.2837 24.6148 75.2837C24.7489 75.2837 24.8817 75.2573 25.0056 75.2059C25.1295 75.1546 25.2421 75.0794 25.3369 74.9845C25.4317 74.8897 25.5069 74.7771 25.5582 74.6532C25.6095 74.5292 25.6359 74.3964 25.6359 74.2623C25.6359 74.1282 25.6095 73.9954 25.5582 73.8715C25.5069 73.7475 25.4317 73.6349 25.3369 73.5401C25.2421 73.4452 25.1295 73.37 25.0056 73.3187C24.8817 73.2673 24.7489 73.2409 24.6148 73.2409C24.4806 73.2409 24.3478 73.2673 24.2239 73.3187C24.1 73.37 23.9875 73.4452 23.8926 73.5401C23.7978 73.6349 23.7226 73.7475 23.6713 73.8715C23.62 73.9954 23.5936 74.1282 23.5937 74.2623Z" fill="#980042"/>
<path d="M62.5808 74.2622C62.5808 74.533 62.6884 74.7928 62.8799 74.9843C63.0714 75.1758 63.3311 75.2833 63.6019 75.2833C63.8727 75.2833 64.1325 75.1758 64.324 74.9843C64.5155 74.7928 64.623 74.533 64.623 74.2622C64.623 73.9914 64.5155 73.7317 64.324 73.5402C64.1325 73.3487 63.8727 73.2411 63.6019 73.2411C63.3311 73.2411 63.0714 73.3487 62.8799 73.5402C62.6884 73.7317 62.5808 73.9914 62.5808 74.2622Z" fill="#980042"/>
<path d="M32.2574 74.1849C31.3291 73.9993 31.1434 73.86 31.097 74.0147C31.0506 74.1695 31.097 74.1385 31.2053 74.1849L32.6132 74.6645C32.7989 74.6645 32.8453 74.8038 32.7679 75.0358L31.2208 79.8783C31.0816 80.3115 30.7257 80.4507 30.1223 80.2806C29.519 80.1104 29.4416 80.0794 29.3797 80.2806C29.3178 80.4817 29.3797 80.4198 29.5035 80.4662L31.6385 81.1624L33.7271 81.8586H33.9282C33.9437 81.8586 33.9282 81.6575 33.3094 81.4409C32.6906 81.2243 32.5358 80.8994 32.6751 80.4507L34.5935 74.4015V74.123C33.8247 74.2823 33.0336 74.3033 32.2574 74.1849ZM40.256 75.3298C38.4149 75.1287 37.3474 76.026 37.1617 77.341C37.1311 77.66 37.1683 77.9819 37.2708 78.2855C37.3733 78.5891 37.5388 78.8676 37.7565 79.1028C37.9741 79.3379 38.239 79.5245 38.5338 79.6501C38.8285 79.7758 39.1465 79.8377 39.4669 79.8319C40.0006 79.8973 40.5415 79.7945 41.014 79.5379C40.7532 80.2673 40.3269 80.9262 39.7685 81.4631C39.2102 81.9999 38.535 82.4001 37.796 82.6322V82.725C38.2911 82.725 42.4374 82.0133 42.7159 78.8572C42.803 78.4626 42.8073 78.0543 42.7287 77.6579C42.65 77.2616 42.4901 76.8858 42.259 76.5544C42.0278 76.2229 41.7305 75.943 41.3858 75.7322C41.041 75.5215 40.6563 75.3844 40.256 75.3298ZM41.3389 78.192C41.3119 78.5202 41.239 78.8431 41.1223 79.1512C40.9566 79.3188 40.7548 79.4464 40.5322 79.5242C40.3097 79.602 40.0723 79.6278 39.8382 79.5998C39.1266 79.5998 38.5387 78.9191 38.7088 77.4339C38.879 75.9486 39.5597 75.4536 40.256 75.5154C40.9522 75.5773 41.5555 76.2116 41.3389 78.1765V78.192ZM49.0436 78.5942C49.3822 78.3433 49.6226 77.982 49.7234 77.5728C49.8242 77.1636 49.7791 76.732 49.5957 76.3525C49.4124 75.973 49.1024 75.6694 48.7191 75.494C48.3359 75.3186 47.9035 75.2824 47.4964 75.3917C47.1815 75.3834 46.868 75.4374 46.5739 75.5503C46.2798 75.6633 46.0109 75.8331 45.7824 76.05C45.554 76.267 45.3705 76.5268 45.2425 76.8147C45.1146 77.1026 45.0446 77.4129 45.0365 77.7278C45.0692 78.0509 45.1808 78.361 45.3616 78.6308C45.5424 78.9006 45.7867 79.1218 46.0731 79.2749C45.7432 79.4725 45.4719 79.7544 45.287 80.0915C45.1021 80.4287 45.0103 80.809 45.0211 81.1934C45.0763 81.4934 45.1913 81.7793 45.3592 82.0339C45.5272 82.2886 45.7447 82.5069 45.9987 82.6758C46.2528 82.8446 46.5382 82.9607 46.838 83.017C47.1379 83.0733 47.446 83.0687 47.744 83.0035C49.5386 82.8488 50.6835 81.7348 50.5752 80.4817C50.5608 80.0431 50.4033 79.6212 50.1268 79.2804C49.8502 78.9396 49.4698 78.6986 49.0436 78.5942ZM47.4964 75.5928C47.7146 75.5664 47.936 75.5868 48.1456 75.6527C48.3553 75.7185 48.5486 75.8283 48.7125 75.9747C48.8765 76.1211 49.0074 76.3007 49.0965 76.5016C49.1855 76.7025 49.2308 76.9201 49.2292 77.1399C49.2736 77.378 49.2661 77.6228 49.2074 77.8577C49.1486 78.0927 49.04 78.3122 48.8888 78.5014C48.0998 78.3157 46.4135 78.0682 46.3206 76.9543C46.3014 76.7888 46.3162 76.6211 46.3641 76.4616C46.412 76.302 46.492 76.1539 46.5992 76.0264C46.7065 75.8989 46.8386 75.7947 46.9876 75.7201C47.1365 75.6456 47.2992 75.6022 47.4655 75.5928H47.4964ZM47.6976 82.8024C47.4416 82.8314 47.1824 82.8049 46.9376 82.7248C46.6927 82.6447 46.468 82.5129 46.2787 82.3382C46.0893 82.1636 45.9398 81.9502 45.8403 81.7126C45.7407 81.475 45.6935 81.2188 45.7018 80.9613C45.6449 80.6727 45.6714 80.3739 45.7783 80.0999C45.8852 79.8259 46.0679 79.588 46.3052 79.4142C46.7722 79.5124 47.2322 79.6416 47.6821 79.801C48.8889 80.1258 49.2292 80.59 49.2292 81.1779C49.2397 81.3875 49.2075 81.597 49.1344 81.7937C49.0614 81.9904 48.9491 82.1703 48.8044 82.3222C48.6596 82.4742 48.4855 82.5951 48.2926 82.6777C48.0997 82.7602 47.8919 82.8026 47.6821 82.8024H47.6976ZM56.1603 76.552C56.2869 76.3604 56.3693 76.1429 56.4014 75.9154C56.4335 75.688 56.4146 75.4562 56.3459 75.237C56.2527 74.9921 56.1107 74.7688 55.9285 74.5805C55.7464 74.3922 55.5279 74.2429 55.2862 74.1416C55.0446 74.0404 54.785 73.9892 54.523 73.9914C54.261 73.9935 54.0022 74.0488 53.7623 74.154C53.2886 74.2909 52.8703 74.5741 52.5674 74.9632C52.2645 75.3522 52.0924 75.8271 52.0759 76.3199C52.0917 76.3313 52.1106 76.3374 52.1301 76.3374C52.1495 76.3374 52.1684 76.3313 52.1842 76.3199C52.3853 76.3199 52.1842 75.3917 53.36 75.0358C53.5248 74.9568 53.7048 74.9147 53.8875 74.9125C54.0703 74.9104 54.2512 74.9482 54.4178 75.0234C54.5844 75.0986 54.7325 75.2092 54.8517 75.3477C54.971 75.4862 55.0586 75.649 55.1082 75.8249C55.207 76.0536 55.2433 76.3045 55.2134 76.5518C55.1835 76.7991 55.0885 77.0341 54.9381 77.2327C54.5049 77.6659 54.0253 77.5576 54.0871 77.7897C54.149 78.0218 54.5358 77.6969 54.9845 77.6969C55.3709 77.7131 55.7415 77.8547 56.0402 78.1004C56.3389 78.346 56.5494 78.6823 56.6399 79.0583C56.7396 79.2591 56.7944 79.4791 56.8007 79.7031C56.807 79.9271 56.7645 80.1498 56.6762 80.3558C56.5879 80.5618 56.4559 80.7461 56.2894 80.8961C56.1229 81.0461 55.9257 81.158 55.7116 81.2243C55.2165 81.379 54.7369 81.2243 54.4739 80.5126C54.2109 79.8009 53.9015 79.5689 53.3755 79.7391C53.1787 79.8091 53.0178 79.9543 52.9279 80.1428C52.838 80.3313 52.8265 80.5477 52.8959 80.7447C53.1279 81.4873 54.3037 81.8741 55.789 81.41C56.5148 81.23 57.1414 80.773 57.5346 80.1369C57.9279 79.5008 58.0565 78.7361 57.8931 78.0063C57.7462 77.64 57.5112 77.3157 57.2089 77.062C56.9067 76.8083 56.5465 76.6331 56.1603 76.552Z" fill="#980042"/>
<path d="M84.5499 26.9206C80.3133 16.8621 72.4896 8.73728 62.5984 4.12395C52.7071 -0.489382 41.4543 -1.26187 31.0253 1.95652C20.5964 5.17491 11.7359 12.1544 6.16455 21.5396C0.593231 30.9247 -1.29117 42.0455 0.877326 52.7421C3.04582 63.4387 9.11243 72.9477 17.8989 79.4221C26.6854 85.8965 37.5646 88.8742 48.4235 87.777C59.2824 86.6797 69.346 81.5858 76.6597 73.4846C83.9734 65.3834 88.0151 54.853 87.9999 43.9388C87.9993 38.0925 86.8262 32.3056 84.5499 26.9206ZM44.1547 86.3143C35.7859 86.3143 27.605 83.8326 20.6465 79.1832C13.6881 74.5337 8.26468 67.9252 5.06206 60.1934C1.85945 52.4616 1.0215 43.9538 2.65418 35.7457C4.28686 27.5377 8.31684 19.9981 14.2345 14.0805C20.1522 8.16283 27.6917 4.13285 35.8997 2.50017C44.1078 0.867494 52.6156 1.70544 60.3474 4.90806C68.0792 8.11067 74.6877 13.5341 79.3372 20.4925C83.9866 27.451 86.4683 35.6319 86.4683 44.0007C86.456 55.2192 81.994 65.9747 74.0614 73.9074C66.1287 81.84 55.3732 86.302 44.1547 86.3143Z" fill="#980042"/>
<path d="M36.5893 47.7292C36.6896 47.7634 36.7984 47.7634 36.8987 47.7292C37.1076 47.7074 37.306 47.627 37.4711 47.4972C37.4711 47.4972 37.5949 47.4972 37.5949 47.4198C37.5949 47.3425 37.1463 47.1104 36.9142 47.1104C36.654 47.1202 36.4064 47.2248 36.218 47.4044C36.2335 47.5745 36.5119 47.6983 36.5893 47.7292ZM39.2194 53.1596C39.3432 52.5098 39.1266 52.68 37.7651 52.6336H34.3769C34.33 52.6393 34.2847 52.6543 34.2437 52.6777C34.2027 52.7011 34.1667 52.7324 34.1379 52.7699C34.1091 52.8073 34.088 52.8501 34.076 52.8958C34.0639 52.9414 34.061 52.9891 34.0675 53.0359C34.0675 53.5 33.9437 53.4536 36.2644 53.4536H37.1617C38.616 53.3607 38.9719 53.5309 39.2194 53.1596Z" fill="#980042"/>
<path d="M70.8115 53.0978C70.821 52.8098 70.7693 52.523 70.66 52.2563C70.5507 51.9897 70.3861 51.7492 70.1772 51.5507L63.2307 44.6041C63.0389 44.4137 62.8868 44.1871 62.7832 43.9375C62.6796 43.6878 62.6266 43.4201 62.6273 43.1498V41.6956C62.6179 41.9836 62.6695 42.2704 62.7789 42.537C62.8882 42.8037 63.0527 43.0442 63.2616 43.2427L70.2082 50.1892C70.4 50.3796 70.5521 50.6062 70.6556 50.8559C70.7592 51.1055 70.8122 51.3732 70.8115 51.6435V43.7842C70.821 43.4961 70.7693 43.2094 70.66 42.9427C70.5507 42.6761 70.3861 42.4356 70.1772 42.237L63.2307 35.2905C63.0389 35.1001 62.8868 34.8735 62.7832 34.6239C62.6796 34.3742 62.6266 34.1065 62.6273 33.8362V32.3819C62.6179 32.67 62.6695 32.9567 62.7789 33.2234C62.8882 33.49 63.0527 33.7305 63.2616 33.929L70.2082 40.8756C70.4 41.066 70.5521 41.2926 70.6556 41.5422C70.7592 41.7919 70.8122 42.0596 70.8115 42.3299V33.6351C70.7867 33.1645 70.601 32.7166 70.2855 32.3665L55.7117 17.7926C55.3615 17.4772 54.9137 17.2915 54.4431 17.2666H53.3756C53.2402 17.2666 53.1103 17.3204 53.0146 17.4162C52.9188 17.5119 52.865 17.6418 52.865 17.7772V24.7082C52.865 24.8098 52.845 24.9104 52.8061 25.0043C52.7673 25.0981 52.7103 25.1834 52.6385 25.2552C52.5666 25.3271 52.4813 25.384 52.3875 25.4229C52.2936 25.4618 52.193 25.4818 52.0915 25.4818H51.3488V18.8137C51.3488 18.4034 51.1858 18.0099 50.8957 17.7198C50.6056 17.4296 50.2121 17.2666 49.8017 17.2666H38.5078C38.0975 17.2666 37.704 17.4296 37.4138 17.7198C37.1237 18.0099 36.9607 18.4034 36.9607 18.8137V25.4818H36.1871C35.9847 25.4778 35.7919 25.3945 35.6501 25.2498C35.5084 25.1052 35.429 24.9108 35.429 24.7082V17.7926C35.429 17.7256 35.4158 17.6592 35.3902 17.5973C35.3645 17.5353 35.3269 17.479 35.2795 17.4316C35.2321 17.3842 35.1758 17.3466 35.1139 17.321C35.0519 17.2953 34.9855 17.2821 34.9185 17.2821H33.8355C33.3649 17.307 32.917 17.4927 32.5669 17.8081L17.9931 32.3819C17.6776 32.7321 17.4919 33.1799 17.467 33.6506V42.3454C17.4664 42.0751 17.5194 41.8074 17.6229 41.5577C17.7265 41.3081 17.8786 41.0815 18.0704 40.8911L25.0479 33.929C25.2568 33.7305 25.4213 33.49 25.5307 33.2234C25.64 32.9567 25.6916 32.67 25.6822 32.3819V33.8362C25.6829 34.1065 25.6299 34.3742 25.5263 34.6239C25.4227 34.8735 25.2706 35.1001 25.0788 35.2905L18.1323 42.237C17.9234 42.4356 17.7589 42.6761 17.6495 42.9427C17.5402 43.2094 17.4886 43.4961 17.498 43.7842V51.6435C17.4973 51.3732 17.5503 51.1055 17.6539 50.8559C17.7575 50.6062 17.9096 50.3796 18.1014 50.1892L25.0479 43.2427C25.2568 43.0442 25.4213 42.8037 25.5307 42.537C25.64 42.2704 25.6916 41.9836 25.6822 41.6956V43.1498C25.6829 43.4201 25.6299 43.6878 25.5263 43.9375C25.4227 44.1871 25.2706 44.4137 25.0788 44.6041L18.1323 51.5507C17.9234 51.7492 17.7589 51.9897 17.6495 52.2563C17.5402 52.523 17.4886 52.8098 17.498 53.0978V54.2891C17.5229 54.7597 17.7086 55.2075 18.024 55.5577L20.0662 57.5999L25.0479 52.5563C25.2568 52.3578 25.4213 52.1173 25.5307 51.8506C25.64 51.584 25.6916 51.2972 25.6822 51.0092V52.4635C25.6829 52.7337 25.6299 53.0015 25.5263 53.2511C25.4227 53.5007 25.2706 53.7273 25.0788 53.9178L20.7624 58.2342L32.4586 69.9304L35.5528 64.237C35.6837 63.9771 35.8852 63.7594 36.1343 63.6089C36.3833 63.4584 36.6697 63.3812 36.9607 63.3861H38.1829C37.8877 63.3796 37.5968 63.4578 37.3446 63.6113C37.0924 63.7648 36.8894 63.9873 36.7596 64.2525L33.294 70.4409C33.4492 70.4904 33.6108 70.5165 33.7736 70.5183H39.7764L40.9213 64.1906C40.9648 63.9516 41.0909 63.7355 41.2775 63.5799C41.4641 63.4244 41.6995 63.3394 41.9424 63.3397H42.9944C42.7493 63.34 42.5121 63.4272 42.3252 63.5859C42.1383 63.7445 42.0136 63.9642 41.9733 64.2061L40.8285 70.5183H47.3418L46.197 64.2061C46.1567 63.9642 46.032 63.7445 45.8451 63.5859C45.6581 63.4272 45.421 63.34 45.1759 63.3397H46.2279C46.4708 63.3394 46.7062 63.4244 46.8928 63.5799C47.0794 63.7355 47.2055 63.9516 47.249 64.1906L48.3939 70.5183H54.4431C54.6058 70.5156 54.7673 70.4895 54.9227 70.4409L51.4571 64.2525C51.3273 63.9873 51.1243 63.7648 50.8721 63.6113C50.6199 63.4578 50.329 63.3796 50.0338 63.3861H51.256C51.547 63.3812 51.8334 63.4584 52.0824 63.6089C52.3315 63.7594 52.533 63.9771 52.6639 64.237L55.7581 69.9304L67.4543 58.2342L63.1379 53.9178C62.9461 53.7273 62.794 53.5007 62.6904 53.2511C62.5868 53.0015 62.5338 52.7337 62.5345 52.4635V51.0092C62.5251 51.2972 62.5767 51.584 62.686 51.8506C62.7954 52.1173 62.9599 52.3578 63.1688 52.5563L68.166 57.5535L70.2082 55.5113C70.5236 55.1611 70.7093 54.7133 70.7342 54.2427L70.8115 53.0978ZM49.8017 32.8925C50.0338 30.7575 50.0802 30.9741 51.3488 30.5254C52.3079 30.2844 53.2864 30.1291 54.2729 30.0613C55.6044 30.0621 56.9267 30.2816 58.1871 30.711C58.8369 30.9431 58.5739 31.1597 58.6048 33.6196C58.4965 34.5479 58.4192 34.3932 57.4754 34.486C56.7304 34.5254 55.9837 34.447 55.263 34.2539C54.9381 33.8517 54.5359 31.6393 53.7159 31.9178C53.4065 32.1499 53.7159 32.1808 53.1744 33.2483C53.0329 33.5647 52.8674 33.8699 52.6794 34.1611C51.9452 34.4183 51.164 34.5133 50.3896 34.4396C49.647 34.4241 49.8017 34.0219 49.8017 32.8925ZM48.2546 31.0824C48.2546 30.6337 48.2546 30.5254 48.6259 30.4945C48.9972 30.4635 49.2138 30.6956 49.2602 30.9895C49.3067 31.2835 49.2602 32.4129 49.2602 33.3257C49.2602 33.8517 49.2602 34.9811 48.8425 35.1358C48.4248 35.2905 48.0999 35.2441 48.1309 34.7181C48.1558 34.2947 48.2232 33.8749 48.332 33.4649C48.3731 32.67 48.3473 31.873 48.2546 31.0824ZM48.5331 36.5437C49.0746 36.7603 49.1055 38.4466 49.1055 38.4466V40.659C49.1604 41.0127 49.1604 41.3728 49.1055 41.7265C49.0087 41.7971 48.8965 41.8437 48.7782 41.8625C48.6599 41.8813 48.5388 41.8718 48.4248 41.8348C48.1773 41.6956 48.0535 40.3805 48.0535 39.9473C48.057 39.1356 48.0105 38.3244 47.9143 37.5183C47.8678 36.5437 47.9761 36.652 48.595 36.5437H48.5331ZM46.4909 35.6309C46.6313 34.3619 46.7036 33.0862 46.7075 31.8095C46.6823 31.3279 46.7134 30.845 46.8003 30.3707C46.8003 30.1696 47.0788 30.1386 47.4346 30.1077C47.7905 30.0767 47.8833 32.0106 47.8833 32.0106C47.8833 33.7589 47.3573 37.1935 47.3573 38.0908C47.1871 39.6379 47.8833 43.5057 47.4965 43.8615C47.3728 43.8615 46.8777 44.0008 46.7539 43.7532C46.4317 42.4161 46.2758 41.0442 46.2898 39.6688C46.2732 38.3181 46.3611 36.9681 46.5528 35.6309H46.4909ZM44.9438 33.3411C45.1604 32.2891 45.1604 31.0824 45.1604 30.7575C45.263 30.6865 45.3804 30.6398 45.5037 30.621C45.627 30.6023 45.753 30.6119 45.8721 30.6492C46.2588 30.9276 46.3826 34.3468 45.5162 35.043C45.2532 35.043 44.9438 35.043 44.851 34.8883C44.7581 34.7335 44.9129 34.1766 45.0521 33.3411H44.9438ZM44.4797 37.9825C44.4797 36.6056 44.6189 36.4354 44.8974 35.9558C45.0416 35.9078 45.1968 35.9043 45.3431 35.9457C45.4893 35.9871 45.6197 36.0714 45.7174 36.1878C45.76 37.5263 45.6979 38.8661 45.5317 40.1949C45.5317 41.2624 45.8102 42.3608 45.377 42.531C44.9438 42.7012 44.6034 42.531 44.5725 42.237C44.5261 40.9065 44.588 37.9515 44.588 37.9515L44.4797 37.9825ZM43.242 54.8615C43.242 56.6716 43.1337 56.5014 41.8805 56.5014H37.889V57.8165C37.889 58.327 38.3376 58.6984 35.4445 58.9923C34.7638 58.9923 30.4164 58.884 30.1224 58.3735C29.8285 57.8629 29.2715 56.9965 29.6738 56.2539C30.4246 56.8535 31.2795 57.3098 32.1956 57.5999C33.398 57.8459 34.635 57.8721 35.8468 57.6772C36.4656 57.4297 36.4501 57.2441 36.4192 56.5633L32.7835 56.3467C31.6695 56.2075 31.7314 56.223 31.716 55.666C31.7005 55.109 31.8861 55.109 32.6133 55.1555C33.4196 55.2471 34.2308 55.2884 35.0423 55.2792H36.5894V54.3819H34.4544C32.6133 54.3045 32.9072 54.0415 32.8144 53.2061C32.9691 51.659 32.9691 51.9065 34.3615 51.8137C35.7539 51.7209 38.8327 51.7363 39.6836 51.8137C41.0141 51.9375 40.8439 52.0303 40.813 53.2216C40.6738 53.9023 40.9213 54.1344 39.6063 54.3355L38.0591 54.4283V55.3102H41.0296C41.0296 55.3102 42.0816 55.3102 42.0816 54.4128C42.0816 53.5155 42.2054 52.2159 42.2054 52.2159C42.2075 52.0927 42.185 51.9704 42.1392 51.856C42.0935 51.7415 42.0255 51.6374 41.939 51.5495C41.8526 51.4617 41.7496 51.3919 41.636 51.3443C41.5223 51.2967 41.4003 51.2722 41.2771 51.2722H33.3559C31.8088 51.2722 31.8088 51.5352 31.6077 52.0767C31.4065 52.6182 31.3447 55.1709 30.8805 55.1709C29.6892 54.877 29.9677 54.7532 29.9832 54.057C30.0518 53.106 30.181 52.1603 30.37 51.2258C30.6175 50.576 30.7413 50.2047 34.6245 50.2356H41.6639C42.8552 50.2356 43.211 50.2356 43.4276 51.4579C43.4868 52.5828 43.4558 53.7106 43.3348 54.8306L43.242 54.8615ZM31.5613 46.9248C31.5613 47.2033 32.0254 47.1569 32.9537 47.1259C33.8819 47.095 33.7117 46.9557 33.7427 47.621C33.7427 47.8685 33.7427 47.9304 33.2321 47.9459C31.3756 48.0387 31.5303 47.9459 31.5458 48.4255C31.5613 48.9051 31.8707 48.7195 32.9846 48.6576C33.7117 48.6576 33.7736 48.5183 33.82 49.0134C33.8483 49.1824 33.8483 49.3549 33.82 49.524C33.294 49.524 31.2518 49.7406 30.7258 49.6787C30.1998 49.6168 30.1843 49.6787 30.2153 48.5648C30.2428 47.6493 30.3515 46.7381 30.5402 45.8418C30.7722 45.3467 30.8032 45.4396 32.8763 45.3622C33.9748 45.3622 33.851 45.3622 33.9438 46.0275C33.9438 46.2905 33.9438 46.3524 32.242 46.4607C31.4994 46.3833 31.6386 46.3214 31.6541 46.8939L31.5613 46.9248ZM34.6555 45.9192C34.5472 45.9192 34.9185 45.3313 35.1196 45.2849C35.5215 45.443 35.914 45.6238 36.2954 45.8264C36.4859 45.9035 36.6718 45.9913 36.8524 46.0894L37.1463 45.9501C37.6268 45.6427 38.1474 45.4033 38.6935 45.2385C38.7708 45.2385 39.1731 45.9037 38.8946 46.0739C38.5755 46.3053 38.2393 46.5121 37.889 46.6927L38.5078 47.0331C38.9565 47.2497 39.0338 47.358 38.9874 47.7912C38.8965 47.9126 38.7804 48.0128 38.647 48.0851C38.415 48.1934 38.2138 48.3172 37.9663 48.4255L38.5387 48.704C39.3587 49.1681 39.3123 49.0598 39.0648 49.4776C38.9521 49.6184 38.7891 49.7101 38.6102 49.7332C38.4312 49.7563 38.2503 49.709 38.1055 49.6013C37.9972 49.6013 37.3629 49.2919 36.775 48.9825C36.3741 49.2159 35.9609 49.4276 35.5373 49.6168C34.9649 49.8798 34.8721 49.8953 34.671 49.6168C34.4698 49.3383 34.5317 49.1372 35.1196 48.7968C35.3121 48.7066 35.4982 48.6032 35.6766 48.4874C35.429 48.3482 35.1351 48.2553 34.8257 48.0542C34.5162 47.8531 34.5162 47.884 34.4853 47.7293C34.4544 47.5746 34.3925 47.2806 35.0423 46.9403L35.6147 46.6618C35.2675 46.4719 34.9664 46.2078 34.7328 45.8882L34.6555 45.9192ZM42.9944 49.524C42.5612 49.6168 40.0859 49.6787 40.0394 49.6632C39.993 49.6477 39.7764 49.6632 39.7764 49.3383C39.7764 49.0134 39.7764 48.8123 40.6273 48.8278C41.4783 48.8432 42.0662 48.9051 42.0662 48.4255C42.0662 47.9459 41.9733 47.9768 40.6583 48.0233C39.9002 48.0233 39.9311 48.0233 39.9002 47.8685C39.8074 47.4044 39.6991 47.1414 40.3643 47.095C41.2771 47.0176 42.0507 47.095 42.0971 46.8629C42.1435 46.6309 42.0971 46.3214 41.37 46.3678C39.8228 46.4761 39.8228 46.5844 39.7455 46.1048C39.6681 45.6252 39.5444 45.5015 40.7666 45.4241C41.9888 45.3467 43.0099 45.2539 43.0873 45.8109C43.2916 46.7297 43.3799 47.6704 43.3503 48.6112C43.4431 49.4621 43.3967 49.4311 43.0563 49.493L42.9944 49.524ZM42.7933 44.2792C42.3756 44.4958 40.7975 42.3453 39.6991 40.9375C38.905 40.0066 37.8104 39.3827 36.6048 39.1738C34.7328 39.0655 32.1492 42.3918 31.4994 43.5366C31.1745 44.0472 30.8032 44.5423 30.2462 44.2947C29.6892 44.0472 29.7511 43.9853 30.0451 43.1344C31.0514 41.4122 32.3558 39.8825 33.8974 38.6168C34.9494 37.6266 35.2124 37.5029 35.5528 36.3271C35.723 34.1766 35.6611 33.666 35.0423 33.5577C34.4234 33.4494 31.6541 33.0936 31.5303 34.8109C31.4375 36.2652 31.4375 36.915 31.4375 37.5029C31.4375 38.3693 31.4375 38.23 30.5092 38.23C29.9368 38.23 30.2462 35.306 30.2462 33.3257C30.5556 32.1189 31.2828 32.351 32.474 32.2582C33.0924 32.2915 33.7122 32.2915 34.3306 32.2582C35.3207 32.2582 35.5528 31.7476 35.6147 30.9586C35.6766 30.1696 35.7694 30.0922 36.4656 29.9839C37.1618 29.8756 37.0226 30.3707 37.1618 30.9895C37.3784 31.9642 37.0535 32.0416 38.4614 32.1035C39.8693 32.1653 40.5655 32.1035 41.0915 32.1035C42.2518 32.2118 42.8861 32.1035 42.9635 33.8826C42.9635 35.4297 43.3812 36.8067 42.9635 37.3636C42.8224 37.5159 42.6493 37.6351 42.4568 37.7127C42.2642 37.7903 42.0568 37.8243 41.8496 37.8123C41.37 37.5493 42.3911 34.223 41.1224 33.666C39.9984 33.3572 38.8119 33.3572 37.6878 33.666C37.1154 33.9445 37.3475 35.1203 37.2856 35.9712C37.2237 36.8222 37.2856 37.3482 38.647 38.2455C40.0991 39.3591 41.4131 40.6419 42.5612 42.0669C43.3812 42.8404 44.0619 43.8925 42.8552 44.2638L42.7933 44.2792ZM43.6133 25.4818H37.4248C37.4248 25.0715 37.5878 24.678 37.878 24.3878C38.1681 24.0977 38.5616 23.9347 38.9719 23.9347H42.8242C43.0294 23.9347 43.2262 24.0162 43.3712 24.1613C43.5163 24.3063 43.5978 24.5031 43.5978 24.7082L43.6133 25.4818ZM49.4923 52.1076C49.2448 52.3397 48.3629 52.4635 48.1773 52.742C48.018 53.549 48.018 54.3794 48.1773 55.1864C48.332 55.3566 48.7497 55.1864 49.384 55.1864C50.0183 55.1864 50.0183 56.7335 49.6625 56.7335C49.3067 56.7335 47.9297 56.9501 47.2181 57.0275C46.5777 57.1214 45.9313 57.1679 45.2842 57.1667C44.6034 57.1667 44.6189 56.7954 44.5415 56.2849C44.4642 55.7743 44.5415 55.4958 45.0366 55.5577C45.2817 55.6114 45.5359 55.6086 45.7798 55.5497C46.0237 55.4907 46.251 55.3771 46.4445 55.2173C46.8003 54.9234 46.5992 54.1653 46.6456 53.5774C46.692 52.9895 46.7694 52.5872 46.0422 52.7729C45.0211 53.0204 44.9593 53.1751 44.9593 51.4269V49.787C44.9593 48.9515 44.8355 48.5183 45.8875 48.2399C46.3517 48.147 46.1041 49.524 46.0887 50.1738C46.0732 50.8235 46.0113 51.4424 46.3517 51.4424C47.2181 51.4424 46.723 49.5549 46.7849 47.915C46.7849 46.832 46.5992 46.3678 47.4501 46.1822C48.301 45.9965 48.038 46.3524 48.069 47.2497C48.0999 48.147 48.069 51.0556 48.3939 51.0247C49.121 51.0247 48.9818 48.4874 48.9354 48.0542C48.9354 47.3889 48.7961 47.095 49.4768 47.0331C50.1576 46.9712 50.0183 47.0331 50.1112 47.5591C50.1906 48.1176 50.2268 48.6814 50.2195 49.2455C50.185 49.7649 50.1178 50.2816 50.0183 50.7926C50.0256 51.0348 49.9841 51.276 49.8964 51.5019C49.8087 51.7278 49.6766 51.9338 49.5078 52.1076H49.4923ZM52.7103 58.9304C52.3755 59.0176 52.024 59.0176 51.6892 58.9304C51.3488 58.9304 51.1787 58.4818 50.9002 57.5844C50.7609 57.1048 50.6372 56.6252 50.4051 55.4958C50.2055 54.5209 50.2055 53.5157 50.4051 52.5408C50.5784 51.9536 50.8063 51.3838 51.0858 50.839C51.367 50.2361 51.5948 49.6097 51.7666 48.967C51.9321 48.3855 51.9321 47.7693 51.7666 47.1878C51.655 46.8017 51.5154 46.4242 51.3488 46.0584C51.1013 45.5015 50.9311 45.2384 51.5654 45.1611C52.4782 45.1611 52.4164 45.1611 52.8186 45.8109C53.0923 46.3388 53.2505 46.9189 53.2827 47.5127C53.3924 48.6231 53.1603 49.7404 52.6175 50.7152C51.9713 51.6704 51.6611 52.8134 51.7356 53.9642C51.8211 55.1693 52.0337 56.3621 52.3699 57.5225C52.4782 57.8784 53.0043 58.7912 52.7103 58.9304ZM54.9382 56.9037C55.2166 57.8784 55.851 58.7138 55.4332 58.8221C55.2505 58.8676 55.0605 58.876 54.8745 58.8468C54.6885 58.8175 54.5102 58.7513 54.3503 58.6519C53.8094 57.9276 53.4679 57.0741 53.3601 56.1766C53.1463 55.0397 53.0891 53.8789 53.1899 52.7265C53.6076 50.8854 54.5514 50.313 54.737 48.7813C54.8361 48.204 54.7773 47.6107 54.5668 47.064C54.3193 46.3214 53.4529 45.192 54.4431 45.192C55.0619 45.192 55.0774 45.2694 55.3095 45.4551C55.8193 46.1518 56.1247 46.9769 56.1913 47.8376C56.1686 48.967 55.8937 50.077 55.3868 51.0865C54.8847 51.9347 54.5633 52.8776 54.4431 53.8559C54.5204 54.8638 54.686 55.8629 54.9382 56.8418V56.9037ZM58.481 49.9572C57.9705 51.8292 57.5373 51.6126 57.1815 53.7012C57.2824 54.7801 57.4844 55.8471 57.7848 56.8882C57.9086 57.4916 58.481 58.6983 58.2026 58.7912C57.7939 58.8437 57.3795 58.7565 57.0268 58.5436C56.6864 58.2806 56.4079 56.9965 56.2532 56.6407C55.7341 55.028 55.7833 53.2862 56.3924 51.7054C56.82 50.8902 57.1176 50.0133 57.2743 49.1062C57.3626 48.1162 57.2359 47.1188 56.903 46.1822C56.7019 45.6716 56.4234 45.2849 56.903 45.2694C58.2644 45.2694 58.0943 45.6871 58.4501 46.5999C58.7087 47.682 58.7193 48.8085 58.481 49.8953V49.9572ZM58.1407 43.6295C57.3981 43.8925 57.4599 43.5366 57.429 42.4691C57.429 41.7884 57.429 39.6379 56.5471 39.3749C55.6653 39.1119 55 38.9572 54.8144 39.2202C54.6287 39.4832 54.8144 43.1963 54.8144 43.1963C54.8144 44.0936 54.4276 43.9543 54.0408 43.8925C53.2827 43.6913 53.3601 43.2581 53.3756 42.5465C53.4186 41.4159 53.3824 40.2838 53.2673 39.1583C53.0618 39.0843 52.8421 39.0582 52.625 39.0817C52.4078 39.1053 52.1989 39.1779 52.014 39.2942C51.8292 39.4105 51.6732 39.5674 51.5579 39.7529C51.4427 39.9384 51.3712 40.1478 51.3488 40.365C51.1168 41.8039 50.9621 42.7785 50.9002 43.088C50.8383 43.3974 50.9002 43.5212 50.6836 43.5676C50.467 43.614 49.8791 43.7687 49.7863 43.5676C49.6941 42.8101 49.7202 42.0428 49.8636 41.2933C50.0367 40.4494 50.2799 39.6214 50.5908 38.8179C50.6991 38.261 52.1379 37.8897 53.0352 37.5338C53.5303 37.3946 53.391 36.621 53.2363 36.6056C52.6095 36.5998 51.9834 36.6464 51.3643 36.7448C50.9311 36.7448 50.5443 37.0852 50.204 36.3271C50.0338 35.9558 49.9564 35.6309 50.993 35.569L52.3235 35.4607C52.3235 35.4607 53.2827 35.4607 53.3446 35.275C53.3452 34.8964 53.441 34.524 53.6231 34.1921C53.6231 34.0683 54.0872 34.1921 54.3193 34.1921C54.8299 34.3313 54.6287 34.3622 54.7216 34.9966C54.7216 35.2905 54.7216 35.3679 56.2687 35.3214C57.4445 35.3214 58.3109 35.1513 58.2799 35.6154C58.2799 35.8475 58.2799 36.3271 58.1716 36.4508C58.0633 36.5746 57.6611 36.5591 57.1196 36.5746H54.7525C54.5514 36.5746 54.6442 36.884 54.7525 37.1316C54.8608 37.3791 54.7525 37.3482 55.4796 37.5183C58.0633 38.2764 58.0324 38.1217 58.4346 39.7926C58.5893 40.6608 58.6669 41.5409 58.6667 42.4227C58.6512 42.9951 58.8524 43.32 58.1562 43.5676L58.1407 43.6295Z" fill="#980042"/>
<path d="M56.6091 33.1245H57.2279C57.5528 33.1245 57.5219 32.5676 57.3362 31.8714C57.1351 31.4537 56.5472 31.4846 55.9748 31.5001C55.7427 31.5001 55.5725 31.5001 55.6499 31.9023C55.8819 33.2483 55.9902 33.0317 56.6091 33.1245ZM51.1942 33.2019H51.6428C52.5556 33.2019 52.4937 32.6449 52.602 31.8869C52.602 31.5774 52.1534 31.6548 51.6428 31.7476C51.1323 31.8404 51.1632 31.7476 51.0704 32.1653C50.9776 32.5831 50.8693 33.1091 51.1942 33.2019Z" fill="#980042"/>
</svg>
