<svg width="88" height="88" viewBox="0 0 88 88" fill="none" xmlns="http://www.w3.org/2000/svg">
<path fill-rule="evenodd" clip-rule="evenodd" d="M26.8758 3.45903C21.631 5.67386 16.9289 8.84721 12.8886 12.8886C8.84721 16.9278 5.67607 21.6355 3.46013 26.8747C1.16477 32.3004 0 38.0603 0 44.0033C0 49.943 1.16477 55.7073 3.46013 61.1308C5.67607 66.3701 8.84721 71.0733 12.8886 75.1147C16.9289 79.155 21.631 82.3261 26.8758 84.5421C32.2971 86.8374 38.0581 88 43.9989 88C49.9375 88 55.7018 86.8374 61.1275 84.5421C66.3667 82.3261 71.0722 79.155 75.1125 75.1147C79.155 71.0733 82.3261 66.3701 84.5399 61.1308C86.8374 55.7073 88 49.943 88 44.0033C88 38.0603 86.8374 32.3004 84.5399 26.8747C82.3261 21.6355 79.155 16.9278 75.1125 12.8886C71.0722 8.84721 66.3667 5.67386 61.1275 3.45903C55.7018 1.16919 49.9375 0 43.9989 0C38.0581 0 32.2971 1.16919 26.8758 3.45903ZM27.4406 83.2008C22.3745 81.0599 17.8246 77.9924 13.9188 74.0834C10.0076 70.1798 6.93901 65.6255 4.80028 60.5627C2.58103 55.319 1.45817 49.7478 1.45817 44.0033C1.45817 38.2589 2.58103 32.6865 4.80028 27.4384C6.93901 22.3734 10.0076 17.8235 13.9188 13.9177C17.8246 10.0098 22.3745 6.93791 27.4406 4.79477C32.6821 2.57662 38.2544 1.45045 43.9989 1.45045C49.7433 1.45045 55.3135 2.57662 60.5583 4.79477C65.6277 6.93791 70.1743 10.0098 74.0823 13.9177C77.9935 17.8235 81.0577 22.3734 83.2019 27.4384C85.4212 32.6865 86.5451 38.2589 86.5451 44.0033C86.5451 49.7478 85.4212 55.319 83.2019 60.5627C81.0577 65.6255 77.9935 70.1798 74.0823 74.0834C70.1743 77.9924 65.6277 81.0599 60.5583 83.2008C55.3135 85.4201 49.7433 86.5396 43.9989 86.5396C38.2544 86.5396 32.6821 85.4201 27.4406 83.2008Z" fill="#7E181C"/>
<path fill-rule="evenodd" clip-rule="evenodd" d="M31.3316 14.0182C27.4589 15.655 23.9767 18.0011 20.9953 20.9914C18.005 23.9827 15.6578 27.4583 14.0188 31.3321C12.3235 35.3459 11.4642 39.6057 11.4642 43.9979C11.4642 48.3912 12.3235 52.651 14.0188 56.6648C15.6578 60.5375 18.005 64.0141 20.9953 67.0044C23.9767 69.9924 27.4589 72.3396 31.3316 73.9765C35.3465 75.6795 39.6019 76.5366 43.9963 76.5366C48.3895 76.5366 52.6505 75.6795 56.6643 73.9765C60.5402 72.3396 64.0202 69.9924 67.0083 67.0044C69.9963 64.0141 72.338 60.5397 73.9782 56.6648C75.6735 52.651 76.5382 48.3912 76.5382 43.9979C76.5382 39.6057 75.6735 35.3459 73.9782 31.3321C72.338 27.4583 69.9963 23.9827 67.0083 20.9914C64.0202 18.0011 60.5402 15.655 56.6643 14.0182C52.6505 12.3196 48.3895 11.4625 43.9963 11.4625C39.6019 11.4625 35.3465 12.3196 31.3316 14.0182ZM31.7187 73.072C27.9619 71.4859 24.5845 69.2104 21.6847 66.3106C18.7871 63.4108 16.5149 60.04 14.9243 56.2821C13.282 52.3929 12.4448 48.2621 12.4448 43.9979C12.4448 39.7392 13.282 35.6073 14.9243 31.7148C16.5149 27.9547 18.7871 24.5795 21.6847 21.6863C24.5845 18.7865 27.9619 16.511 31.7187 14.9249C35.6068 13.2759 39.7354 12.4442 43.9963 12.4442C48.2561 12.4442 52.3901 13.2759 56.2826 14.9249C60.0406 16.511 63.4136 18.7865 66.3112 21.6863C69.211 24.5795 71.4843 27.9547 73.0748 31.7148C74.7216 35.6073 75.5522 39.7392 75.5522 43.9979C75.5522 48.2621 74.7216 52.3929 73.0748 56.2821C71.4843 60.04 69.211 63.4108 66.3112 66.3106C63.4136 69.2104 60.0406 71.4859 56.2826 73.072C52.3901 74.721 48.2561 75.5527 43.9963 75.5527C39.7354 75.5527 35.6068 74.721 31.7187 73.072Z" fill="#7E181C"/>
<path fill-rule="evenodd" clip-rule="evenodd" d="M28.9916 81.6104L28.9298 81.6369C28.5703 81.4449 28.1235 81.2299 27.5919 80.9916C27.0713 80.7556 26.5176 80.5162 25.9363 80.278L25.9109 80.2151L26.0201 79.9746L26.083 79.9537C26.2264 80.0022 26.3631 80.0507 26.4944 80.0938C26.7293 80.1809 26.8815 80.2217 26.9599 80.2261C27.015 80.2261 27.0757 80.193 27.1419 80.1324C27.2489 80.0265 27.5014 79.5423 27.8974 78.661L28.3419 77.6771C28.4787 77.3804 28.643 77.0053 28.8372 76.5443L28.964 76.2432C29.0247 76.113 29.0247 76.0358 28.9706 76.0093C28.9486 76.0005 28.8537 75.9928 28.6949 75.9939C28.2581 75.9961 27.8809 76.0038 27.5665 76.0126L27.5334 75.9641C27.5853 75.8075 27.6338 75.6277 27.6757 75.4214L27.6934 75.3939C28.5151 75.5185 29.456 75.6133 30.5115 75.6729L30.5689 75.7689C30.4873 75.9211 30.3682 76.1472 30.2115 76.445C30.1498 76.5553 30.0009 76.8631 29.7615 77.3627L29.0467 78.9169C28.5438 80.0265 28.2912 80.6331 28.2912 80.7324C28.2879 80.8019 28.3121 80.8615 28.3618 80.8934C28.4401 80.964 28.675 81.103 29.0699 81.3071L29.1008 81.3677L28.9916 81.6104Z" fill="#7E181C"/>
<path fill-rule="evenodd" clip-rule="evenodd" d="M40.9798 82.5302C40.9335 82.8666 40.8287 83.1622 40.6544 83.4004C40.3301 83.8637 39.8702 84.1483 39.2679 84.252C39.0187 84.2994 38.7242 84.295 38.3855 84.2509C37.6575 84.1527 37.1325 83.8317 36.8082 83.2857C36.6615 83.0453 36.6141 82.743 36.6615 82.3835C36.72 81.9478 36.924 81.6114 37.2748 81.3786C37.3895 81.3069 37.6322 81.2 38.0017 81.0797C37.4016 80.6672 37.1413 80.1609 37.2197 79.5631C37.3112 78.8891 37.7171 78.4435 38.4396 78.2196C38.755 78.127 39.0992 78.1038 39.4764 78.1535C40.0268 78.224 40.4493 78.4082 40.7338 78.6994C41.0052 78.9785 41.1122 79.305 41.0647 79.6866C40.9941 80.2039 40.6302 80.5878 39.9739 80.8326C40.4018 81.0632 40.6919 81.3191 40.843 81.5981C40.9853 81.843 41.0272 82.1618 40.9798 82.5302ZM39.836 82.8864C39.8933 82.4706 39.7257 82.1254 39.3396 81.864C39.0882 81.6897 38.8157 81.5242 38.5212 81.3676L38.3966 81.3069C37.898 81.5562 37.6189 81.9224 37.5539 82.4011C37.5164 82.6769 37.5406 82.903 37.6355 83.0883C37.834 83.5008 38.1638 83.7424 38.6183 83.8041C38.9403 83.8461 39.2095 83.7799 39.4323 83.6144C39.6606 83.4379 39.7974 83.1975 39.836 82.8864ZM40.2287 79.6988C40.264 79.4142 40.2033 79.1781 40.0367 78.9785C39.8702 78.7822 39.6275 78.6608 39.3065 78.62C39.0142 78.5781 38.776 78.6288 38.583 78.77C38.4021 78.8991 38.3028 79.0745 38.2686 79.2995C38.2421 79.5168 38.3182 79.7329 38.498 79.937C38.5973 80.0506 38.7484 80.1642 38.9459 80.2845C39.0142 80.333 39.1223 80.3936 39.2635 80.4764L39.5117 80.6142C39.9308 80.44 40.1702 80.1322 40.2287 79.6988Z" fill="#7E181C"/>
<path fill-rule="evenodd" clip-rule="evenodd" d="M51.1999 80.3175C51.3058 81.0885 51.2385 81.7426 51.0025 82.2874C50.7576 82.861 50.3914 83.3441 49.9028 83.728C49.4021 84.125 48.823 84.3677 48.1711 84.4581L47.7509 84.2276L47.8435 84.0434C47.9439 84.0589 48.063 84.0589 48.2086 84.0401C48.7072 83.9717 49.123 83.7423 49.4539 83.3551C49.584 83.2007 49.6999 83.0011 49.7969 82.7595C49.9536 82.3779 50.0241 81.8352 50.0065 81.1414C49.584 81.6025 49.3414 81.8429 49.2895 81.8584C49.0877 81.9554 48.8627 82.0194 48.6189 82.0547C48.1887 82.1143 47.8226 82.0194 47.5159 81.7756C47.1828 81.5087 46.9799 81.1149 46.9093 80.5899C46.789 79.7439 47.035 79.0744 47.6372 78.578C47.9229 78.3442 48.2913 78.1964 48.7502 78.1357C49.6094 78.0133 50.2723 78.2924 50.7356 78.9597C50.9672 79.2906 51.1183 79.7417 51.1999 80.3175ZM49.8819 80.045C49.8046 79.5112 49.6635 79.1284 49.4539 78.8913C49.2443 78.6597 48.9895 78.5648 48.6939 78.6012C48.3233 78.6563 48.0961 78.8681 48.0167 79.2509C47.9715 79.4538 47.9648 79.6865 48.0034 79.9535C48.0685 80.3991 48.2086 80.7322 48.4226 80.9451C48.6266 81.148 48.8781 81.2263 49.1715 81.1844C49.5543 81.137 49.7848 80.9484 49.8719 80.6285C49.9116 80.4818 49.9116 80.2866 49.8819 80.045Z" fill="#7E181C"/>
<path fill-rule="evenodd" clip-rule="evenodd" d="M61.4145 78.5119C61.5535 78.823 61.613 79.1285 61.5921 79.4197C61.5535 79.9833 61.3042 80.4675 60.8431 80.869C60.6523 81.04 60.4008 81.1911 60.0854 81.3246C59.4114 81.6147 58.8004 81.6147 58.2433 81.3191C57.9907 81.1845 57.7933 80.9507 57.6488 80.6286C57.4723 80.2216 57.4723 79.8223 57.6488 79.4428C57.7084 79.3215 57.8639 79.1097 58.1187 78.8108C57.3863 78.77 56.9021 78.4722 56.6627 77.9229C56.3892 77.2975 56.5061 76.703 57.0113 76.1393C57.2297 75.8934 57.512 75.697 57.8606 75.5393C58.3691 75.3209 58.8246 75.2558 59.2184 75.3606C59.5934 75.4577 59.8614 75.6849 60.0126 76.0357C60.2254 76.5155 60.1096 77.0328 59.6739 77.581C60.1582 77.5567 60.5409 77.6218 60.8133 77.7795C61.0615 77.9229 61.2623 78.1645 61.4145 78.5119ZM59.3044 76.4791C59.1875 76.2199 59.0088 76.0445 58.7662 75.964C58.5213 75.8801 58.2533 75.9033 57.9577 76.0357C57.6918 76.1504 57.5087 76.3169 57.4183 76.5364C57.3334 76.7416 57.3334 76.9412 57.4249 77.1475C57.5154 77.3538 57.6918 77.4927 57.951 77.581C58.0911 77.6207 58.2786 77.645 58.5114 77.645C58.5941 77.6483 58.7176 77.6483 58.882 77.645L59.1643 77.6295C59.4335 77.2655 59.4798 76.8795 59.3044 76.4791ZM60.6225 79.4076C60.456 79.0237 60.135 78.8163 59.6673 78.7877C59.3596 78.77 59.0419 78.7711 58.7099 78.7932L58.5709 78.7987C58.2753 79.2708 58.2235 79.7329 58.4176 80.173C58.5279 80.4256 58.6702 80.6087 58.8434 80.7245C59.2305 80.976 59.6331 81.0047 60.0556 80.8216C60.349 80.6948 60.5519 80.494 60.6556 80.2326C60.7593 79.969 60.7461 79.6932 60.6225 79.4076Z" fill="#7E181C"/>
<path fill-rule="evenodd" clip-rule="evenodd" d="M6.67948 55.2672C6.98832 55.1513 7.2729 55.1127 7.54203 55.1558C7.81006 55.191 8.05603 55.3002 8.27994 55.4635C8.51047 55.6389 8.71011 55.8639 8.88659 56.1308C9.06197 56.3977 9.2197 56.7132 9.35868 57.0772L9.52854 57.5129L11.0474 56.9371C11.1389 56.9051 11.2106 56.8577 11.2625 56.7937C11.3176 56.7341 11.3474 56.6459 11.3474 56.5345C11.3507 56.4738 11.3419 56.379 11.3176 56.2566C11.2967 56.1308 11.2757 56.0216 11.2503 55.9433L11.5515 55.8275L12.682 58.7902L12.382 58.9016C12.3456 58.8332 12.2993 58.7383 12.2364 58.6225C12.1758 58.5023 12.1272 58.4262 12.0875 58.382C12.0092 58.2993 11.9331 58.2508 11.8614 58.242C11.7886 58.2353 11.7059 58.2497 11.5989 58.2872L7.77697 59.7443C7.68652 59.7807 7.61593 59.8237 7.56409 59.8843C7.51004 59.9362 7.47916 60.0244 7.47585 60.1446C7.47254 60.2274 7.48247 60.33 7.50453 60.4601C7.52438 60.5881 7.54203 60.684 7.55968 60.7436L7.25856 60.8583L6.12246 57.8702C5.85222 57.1754 5.76398 56.6062 5.85443 56.1771C5.94929 55.7503 6.22173 55.4436 6.67948 55.2672ZM7.43393 56.6735C7.03134 56.829 6.75779 57.0253 6.62543 57.2647C6.48866 57.5085 6.503 57.8316 6.66073 58.2508L6.78095 58.5696L9.15904 57.6585L9.09506 57.4974C8.93843 57.0871 8.72224 56.8081 8.44649 56.6614C8.17074 56.5147 7.83432 56.5213 7.43393 56.6735Z" fill="#7E181C"/>
<path fill-rule="evenodd" clip-rule="evenodd" d="M5.13972 46.1607L5.17391 46.4795C4.96985 46.5776 4.76249 46.7398 4.55733 46.956C4.35327 47.1766 4.24518 47.3784 4.22643 47.5736C4.21761 47.6508 4.21761 47.7634 4.22974 47.9101C4.24187 48.0523 4.2529 48.177 4.26503 48.263L4.3632 49.0958L6.58355 48.8366L6.51406 48.2487C6.49752 48.102 6.46663 47.9729 6.41479 47.8549C6.36626 47.7391 6.28684 47.6376 6.17544 47.5494C6.10926 47.4964 5.99124 47.4468 5.82468 47.3983C5.66365 47.3574 5.52136 47.3321 5.40554 47.3266L5.36914 47.0078L7.76377 46.7287L7.80348 47.0497C7.69097 47.0729 7.55309 47.1291 7.38875 47.2196C7.2255 47.3067 7.113 47.3784 7.05454 47.4468C6.9663 47.5461 6.91225 47.6564 6.89129 47.7799C6.86702 47.9101 6.86703 48.0479 6.88467 48.2057L6.95306 48.7958L8.61639 48.5939C8.78956 48.5763 8.92634 48.5498 9.02671 48.5123C9.12267 48.4726 9.19547 48.4185 9.244 48.3391C9.28592 48.2707 9.30687 48.1704 9.31018 48.0479C9.31349 47.9299 9.30467 47.7711 9.2793 47.5703C9.26827 47.4755 9.25724 47.363 9.23407 47.2284C9.21974 47.096 9.19547 46.9813 9.1712 46.8876C9.14694 46.7751 9.11385 46.6725 9.07414 46.5765C9.03443 46.4817 8.98921 46.4122 8.92854 46.3692C8.78295 46.2544 8.56565 46.1331 8.27336 46.0019C7.98327 45.8728 7.77039 45.7901 7.62479 45.7537L7.5917 45.4592L9.39622 45.3621L10.026 50.7646L9.71057 50.8021C9.69623 50.726 9.67197 50.6234 9.64108 50.4944C9.60799 50.3642 9.57821 50.2738 9.55284 50.222C9.49549 50.1205 9.43151 50.0631 9.36202 50.0322C9.29364 50.0036 9.20429 49.9947 9.10061 50.0113L5.03604 50.4834C4.94007 50.4944 4.85955 50.5154 4.79999 50.5551C4.73933 50.5948 4.69079 50.6742 4.6544 50.79C4.62903 50.865 4.61138 50.9687 4.59925 51.101C4.58821 51.2345 4.58049 51.3294 4.58049 51.3989L4.26283 51.4375L3.665 46.3328L5.13972 46.1607Z" fill="#7E181C"/>
<path fill-rule="evenodd" clip-rule="evenodd" d="M10.3455 35.4339L10.0212 37.7017C9.44216 37.9675 8.96015 38.2102 8.56637 38.4363C8.1715 38.6602 7.67735 38.9481 7.07952 39.2978L7.04974 39.504L8.85867 39.7665C8.96015 39.7787 9.04066 39.7754 9.11457 39.7511C9.18626 39.7235 9.25024 39.6629 9.31421 39.5625C9.34179 39.5184 9.37488 39.45 9.40797 39.3606C9.44547 39.2669 9.47525 39.1742 9.49841 39.0805L9.81498 39.1257L9.38039 42.1755L9.06273 42.1303C9.07045 42.0586 9.07486 41.9549 9.08258 41.8192C9.09251 41.6847 9.08699 41.592 9.07486 41.5313C9.05059 41.4332 9.00758 41.3549 8.94691 41.3052C8.88735 41.26 8.80242 41.2313 8.69873 41.2082L4.62754 40.6335C4.53268 40.6214 4.44885 40.6214 4.38267 40.6456C4.31208 40.6655 4.2459 40.7306 4.17862 40.8298C4.12677 40.9059 4.08155 41.0096 4.04184 41.121C3.99883 41.2335 3.96904 41.3284 3.9514 41.4001L3.63594 41.3549L4.08486 38.2014L4.40253 38.2499C4.39922 38.3326 4.39591 38.4363 4.3937 38.5532C4.3937 38.6735 4.39922 38.7771 4.41576 38.8599C4.43451 38.9724 4.47863 39.0496 4.55143 39.0926C4.62313 39.14 4.70254 39.1687 4.79409 39.1831L6.73428 39.4588L6.75855 39.2911C6.5953 39.0562 6.40117 38.7771 6.17064 38.4595C5.94012 38.1407 5.74599 37.8914 5.59708 37.7116C5.3853 37.4679 5.21765 37.2793 5.09411 37.159C4.96726 37.0377 4.85145 36.9682 4.75218 36.9539C4.70254 36.9473 4.66173 36.9936 4.62313 37.0829C4.58121 37.1778 4.54592 37.3278 4.50621 37.5285L4.18744 37.4844L4.54592 34.9894L4.86027 35.0358C4.85145 35.3391 4.87351 35.6005 4.91873 35.8134C4.96726 36.0285 5.06764 36.2446 5.21765 36.4741C5.43715 36.795 5.62796 37.0631 5.79121 37.276C5.95225 37.4899 6.16182 37.7613 6.41551 38.0966C6.77068 37.887 7.20085 37.6289 7.71154 37.3355C8.22003 37.0377 8.71749 36.741 9.20281 36.4432C9.32635 36.3649 9.44767 36.2766 9.5657 36.1763C9.68372 36.0726 9.7852 35.9512 9.86571 35.8233C9.90542 35.7582 9.93962 35.6854 9.96609 35.6038C9.99697 35.5211 10.0135 35.4494 10.0268 35.3887L10.3455 35.4339Z" fill="#7E181C"/>
<path fill-rule="evenodd" clip-rule="evenodd" d="M12.5366 29.6776L11.3355 32.6656L11.0388 32.5487C11.0641 32.4759 11.0939 32.3755 11.1391 32.2355C11.1788 32.1031 11.202 32.0049 11.202 31.9443C11.202 31.8351 11.1788 31.7512 11.1303 31.695C11.0818 31.6354 11.0079 31.5836 10.9119 31.545L7.09441 30.0173C7.00727 29.9853 6.92785 29.9677 6.84623 29.9776C6.77012 29.9853 6.69071 30.0228 6.61349 30.1056C6.56055 30.1552 6.50099 30.2346 6.42378 30.3449C6.35208 30.453 6.29031 30.549 6.2495 30.6262L5.95169 30.5104L7.14625 27.5179L7.44296 27.637C7.422 27.7164 7.39332 27.8168 7.36354 27.937C7.33045 28.0551 7.3128 28.1576 7.30728 28.247C7.30067 28.3628 7.32493 28.4422 7.38008 28.5062C7.43634 28.5669 7.51024 28.6154 7.60068 28.6452L11.4149 30.1739C11.5031 30.2159 11.5903 30.2291 11.6631 30.2192C11.7447 30.2103 11.8241 30.1695 11.8991 30.0857C11.9454 30.0405 12.0039 29.9655 12.0723 29.8519C12.1418 29.7383 12.1991 29.6357 12.2366 29.5552L12.5366 29.6776Z" fill="#7E181C"/>
<path fill-rule="evenodd" clip-rule="evenodd" d="M13.4704 17.9072C13.4318 17.9722 13.38 18.0649 13.316 18.1995C13.2532 18.323 13.2223 18.4553 13.2245 18.5954C13.2245 18.7234 13.2884 18.8557 13.4076 18.9925C13.5289 19.1337 13.7308 19.3025 14.0098 19.5021L17.3883 21.9287L16.9637 22.5177L11.2148 22.8321L13.4252 24.4138C13.7021 24.6134 13.9227 24.7458 14.0892 24.8142C14.2591 24.8782 14.4091 24.8892 14.5293 24.855C14.6231 24.8329 14.7345 24.7712 14.8657 24.6675C14.9992 24.5594 15.0985 24.4756 15.1658 24.4072L15.4261 24.5914L13.9745 26.6187L13.7131 26.4323C13.7672 26.3407 13.8223 26.2304 13.8775 26.1025C13.9315 25.9756 13.9602 25.8499 13.9613 25.7396C13.9558 25.605 13.9017 25.4738 13.7958 25.3524C13.6888 25.2256 13.4826 25.0535 13.1759 24.8351L10.9413 23.2303C10.8299 23.1519 10.7118 23.0924 10.5905 23.056C10.4659 23.0174 10.3412 23.013 10.221 23.0317C10.0886 23.056 9.9662 23.1034 9.85148 23.1751C9.73457 23.2413 9.62206 23.3317 9.50514 23.4442L9.24483 23.2556L10.5177 21.4842L15.5595 21.2118L13.7649 19.9246C13.4826 19.7216 13.2532 19.5881 13.0888 19.5264C12.9223 19.4591 12.78 19.447 12.6531 19.4778C12.5549 19.5065 12.4435 19.5672 12.3189 19.6698C12.1921 19.769 12.0917 19.8462 12.0233 19.9179L11.7729 19.737L13.2145 17.7219L13.4704 17.9072Z" fill="#7E181C"/>
<path fill-rule="evenodd" clip-rule="evenodd" d="M23.5208 13.1291C23.4601 13.1876 23.4094 13.246 23.3631 13.2913C23.3178 13.3398 23.2715 13.4082 23.2141 13.4942C23.1469 13.5946 23.1292 13.6817 23.1535 13.7711C23.1777 13.8549 23.2141 13.931 23.2715 14.0027L23.6929 14.5299C23.7811 14.6336 23.8517 14.7219 23.9057 14.7792C23.9609 14.8454 24.026 14.9248 24.1054 15.0175C23.9973 15.3142 23.7811 15.6903 23.4568 16.1315C23.1336 16.5771 22.7961 16.9422 22.4476 17.218C22.12 17.486 21.7714 17.6801 21.4074 17.8103C21.0401 17.9449 20.6684 17.9956 20.2912 17.968C19.9195 17.9449 19.5522 17.8346 19.1904 17.6404C18.8308 17.4496 18.4999 17.165 18.1966 16.79C17.9153 16.4337 17.709 16.0609 17.5877 15.6716C17.4598 15.28 17.4245 14.8851 17.4697 14.4891C17.5149 14.1009 17.6451 13.7236 17.8602 13.3574C18.0797 12.9913 18.3764 12.657 18.7514 12.3537C19.0095 12.1486 19.2731 11.9864 19.54 11.875C19.8103 11.7592 20.0441 11.6831 20.2438 11.6423L20.3 11.307L20.5791 11.0797L21.9402 12.7111L21.6589 12.9361C21.0986 12.5655 20.6111 12.357 20.1919 12.2942C19.7772 12.2379 19.3944 12.3449 19.0481 12.6217C18.6422 12.9493 18.4701 13.3795 18.5352 13.9145C18.6003 14.4494 18.8815 15.0285 19.3823 15.6517C19.9162 16.3157 20.4434 16.7503 20.9618 16.9477C21.4791 17.1463 21.938 17.0889 22.3362 16.7702C22.5204 16.619 22.6626 16.4591 22.7663 16.2881C22.8634 16.115 22.923 15.9594 22.945 15.8249L22.2115 14.9061C22.1497 14.8311 22.0858 14.7737 22.0174 14.7528C21.9468 14.7186 21.8564 14.7186 21.7416 14.7494C21.6534 14.7737 21.553 14.8101 21.4438 14.8697C21.3324 14.9248 21.2376 14.9767 21.1714 15.0175L20.9706 14.7737L23.3211 12.8776L23.5208 13.1291Z" fill="#7E181C"/>
<path fill-rule="evenodd" clip-rule="evenodd" d="M37.0333 4.44714C36.9583 4.47802 36.8524 4.52545 36.7124 4.59273C36.5756 4.65671 36.4675 4.73943 36.387 4.8354C36.302 4.92584 36.2623 5.06372 36.2668 5.24571C36.2701 5.4233 36.3219 5.68361 36.409 6.02885L36.9672 8.11022C37.1304 8.72128 37.0521 9.26838 36.7366 9.75149C36.4179 10.2368 35.9171 10.571 35.2321 10.7574C34.4324 10.9637 33.764 10.9538 33.2291 10.7111C32.6952 10.4673 32.3434 10.025 32.1735 9.38199L31.4069 6.52079C31.3848 6.42593 31.3462 6.35424 31.2911 6.29908C31.2404 6.24173 31.1576 6.20092 31.044 6.17114C30.9646 6.15569 30.8719 6.15349 30.7672 6.15569C30.6613 6.16672 30.5752 6.17114 30.5135 6.18106L30.4307 5.87112L33.3669 5.08688L33.4497 5.39572C33.3669 5.4233 33.2831 5.45529 33.2026 5.49499C33.1166 5.5325 33.0349 5.57551 32.9533 5.62846C32.8585 5.68361 32.8066 5.75972 32.7901 5.84244C32.7768 5.92627 32.7835 6.0112 32.8066 6.10937L33.56 8.92755C33.7111 9.48236 33.9394 9.85628 34.2505 10.0405C34.5659 10.2291 34.9564 10.2556 35.4263 10.1353C35.8818 10.0096 36.2083 9.77686 36.3936 9.42721C36.5811 9.07866 36.6032 8.63415 36.4576 8.09478L35.9546 6.1954C35.8631 5.85788 35.7726 5.61522 35.6811 5.45529C35.5906 5.30528 35.4869 5.19939 35.3722 5.15086C35.2873 5.11335 35.1549 5.0924 34.9718 5.0924C34.7898 5.08909 34.6597 5.0924 34.5891 5.10122L34.5041 4.78355L36.9517 4.13058L37.0333 4.44714Z" fill="#7E181C"/>
<path fill-rule="evenodd" clip-rule="evenodd" d="M47.9892 4.03562C47.912 4.04114 47.8039 4.05327 47.6616 4.06981C47.5226 4.09298 47.3913 4.14592 47.2788 4.22534C47.1752 4.30034 47.1024 4.42609 47.0582 4.60477C47.0119 4.78015 46.9887 5.04377 46.9854 5.39232L46.9281 9.54734L46.2001 9.53962L42.6595 4.99855L42.6208 7.72076C42.6164 8.05828 42.6341 8.31528 42.676 8.49066C42.719 8.66935 42.7918 8.79619 42.89 8.87892C42.9617 8.944 43.0786 8.99363 43.2407 9.04216C43.3996 9.09401 43.5253 9.1282 43.6235 9.14364L43.6202 9.46461L41.1285 9.42711L41.1307 9.11386C41.2377 9.10283 41.3557 9.08187 41.4947 9.0543C41.6348 9.02562 41.7495 8.97598 41.841 8.91642C41.9491 8.8359 42.0219 8.72119 42.0649 8.56015C42.108 8.40242 42.1311 8.13439 42.1311 7.75827L42.1708 5.00406C42.173 4.86508 42.1554 4.73934 42.1135 4.61691C42.0738 4.49227 42.0109 4.38858 41.9226 4.30034C41.8278 4.20548 41.7197 4.13048 41.5973 4.07643C41.477 4.02459 41.3336 3.97716 41.1792 3.94628V3.62199L43.361 3.65398L46.467 7.63583L46.499 5.42872C46.5023 5.08017 46.4858 4.81986 46.4417 4.64448C46.3964 4.47351 46.3258 4.34557 46.2266 4.26174C46.1516 4.20217 46.0324 4.14482 45.8824 4.09629C45.7269 4.04665 45.6023 4.01908 45.5074 3.99481L45.5162 3.68597L47.9947 3.71906L47.9892 4.03562Z" fill="#7E181C"/>
<path fill-rule="evenodd" clip-rule="evenodd" d="M54.2419 10.9748L51.1226 10.1718L51.2031 9.85747C51.2726 9.87291 51.3796 9.89607 51.5219 9.91813C51.6609 9.94571 51.7602 9.95232 51.8208 9.94571C51.9278 9.93247 52.005 9.89607 52.0602 9.83761C52.112 9.78577 52.1517 9.70415 52.1793 9.60819L53.2106 5.62413C53.2316 5.53589 53.2349 5.44875 53.2194 5.37154C53.2007 5.29654 53.1499 5.22264 53.0595 5.15646C53.0043 5.11123 52.9194 5.0638 52.8003 4.99872C52.6856 4.94027 52.583 4.89284 52.4937 4.85975L52.5731 4.55311L55.6924 5.35941L55.6107 5.66825C55.5324 5.65612 55.431 5.63847 55.3085 5.62413C55.1861 5.60758 55.0802 5.60207 54.992 5.60758C54.8806 5.61531 54.7989 5.65391 54.7438 5.71458C54.693 5.77965 54.6533 5.85797 54.6291 5.94731L53.5989 9.92806C53.5735 10.0218 53.5735 10.109 53.5889 10.1829C53.6077 10.2579 53.6617 10.3329 53.75 10.4024C53.7974 10.441 53.8867 10.4873 54.007 10.5446C54.1283 10.5954 54.2342 10.6373 54.3191 10.6682L54.2419 10.9748Z" fill="#7E181C"/>
<path fill-rule="evenodd" clip-rule="evenodd" d="M65.6626 10.1974C65.5788 10.1654 65.4949 10.1367 65.4122 10.1234C65.3262 10.1047 65.2324 10.0992 65.1331 10.1047C64.9997 10.1091 64.8839 10.1323 64.7923 10.172C64.6986 10.2128 64.5927 10.2701 64.4735 10.3639C64.3114 10.493 64.0776 10.6783 63.7742 10.9297C63.4709 11.1779 63.1235 11.4504 62.7341 11.7713C62.3877 12.0537 62.0094 12.3692 61.6002 12.7111C61.1888 13.0475 60.7939 13.3795 60.4178 13.6873L59.6964 13.3056C59.7968 12.2975 59.9005 11.2816 59.9997 10.2437C60.1056 9.20685 60.1762 8.48438 60.206 8.07517C60.2159 7.92847 60.2126 7.80824 60.1906 7.7211C60.1696 7.62955 60.1244 7.52366 60.0439 7.39682C59.9876 7.31299 59.9325 7.24019 59.8795 7.18725C59.8266 7.13872 59.7516 7.07805 59.6545 7.00856L59.8078 6.72509L62.5819 8.1965L62.4363 8.47445C62.1561 8.36526 61.9565 8.29577 61.8429 8.28474C61.7282 8.2693 61.6609 8.28805 61.63 8.33989C61.6168 8.36746 61.6068 8.39835 61.5991 8.43144C61.5914 8.46342 61.5826 8.51196 61.5693 8.57703C61.534 8.83073 61.4921 9.24987 61.437 9.84439C61.3851 10.4367 61.2969 11.3412 61.17 12.5412C61.7381 12.0658 62.2124 11.6621 62.5995 11.3301C62.9834 10.9992 63.3231 10.7036 63.6132 10.4499C63.7577 10.3242 63.8867 10.2084 63.9959 10.0915C64.1073 9.98226 64.1801 9.89623 64.2154 9.82453C64.2573 9.74953 64.2342 9.65467 64.146 9.53996C64.0621 9.43407 63.8746 9.28075 63.5834 9.09765L63.7345 8.80977L65.8148 9.90946L65.6626 10.1974Z" fill="#7E181C"/>
<path fill-rule="evenodd" clip-rule="evenodd" d="M71.972 16.9412L71.736 16.7228C71.8308 16.5077 71.8827 16.2518 71.8926 15.9562C71.9025 15.6628 71.8551 15.4345 71.7437 15.2768C71.6974 15.204 71.6191 15.1213 71.5154 15.0253C71.4128 14.9172 71.3246 14.84 71.2562 14.7738L70.6396 14.2102L69.1329 15.8592L69.5664 16.2662C69.6756 16.3621 69.7881 16.4394 69.8995 16.4934C70.012 16.5485 70.1421 16.5772 70.2855 16.5684C70.3694 16.5629 70.4896 16.5243 70.6418 16.4504C70.794 16.3765 70.9187 16.3037 71.0124 16.232L71.2451 16.4449L69.6182 18.2284L69.3811 18.0133C69.4484 17.9207 69.5145 17.7861 69.5807 17.6141C69.6491 17.4387 69.6844 17.3063 69.6844 17.2181C69.6844 17.089 69.6535 16.9688 69.5906 16.8585C69.5245 16.7504 69.4329 16.6434 69.3149 16.5342L68.8781 16.1382L67.7497 17.3736C67.6317 17.5015 67.5501 17.6141 67.4949 17.7056C67.4475 17.7983 67.4299 17.8898 67.4475 17.9769C67.4585 18.0586 67.5082 18.1512 67.5821 18.2395C67.6604 18.3321 67.7707 18.4479 67.9229 18.588C67.9935 18.6476 68.0773 18.727 68.1777 18.8152C68.277 18.9013 68.3685 18.9719 68.4534 19.0303C68.5439 19.0987 68.6399 19.1561 68.7281 19.2024C68.8241 19.2509 68.9024 19.2686 68.9752 19.2653C69.1572 19.2542 69.4053 19.2024 69.7076 19.1108C70.012 19.016 70.2315 18.941 70.3605 18.8726L70.5756 19.0711L69.2796 20.3263L65.268 16.6622L65.4864 16.4283C65.5437 16.4746 65.6287 16.5342 65.7379 16.6147C65.8459 16.6897 65.9254 16.7383 65.9827 16.7581C66.0886 16.7989 66.1768 16.8033 66.2463 16.7813C66.3191 16.7548 66.3919 16.7008 66.4592 16.6236L69.2211 13.6068C69.2873 13.5362 69.3292 13.4634 69.3502 13.3984C69.3734 13.3278 69.3568 13.2362 69.3083 13.1171C69.2796 13.0476 69.2234 12.9605 69.145 12.8513C69.0689 12.7432 69.0116 12.6671 68.9686 12.6141L69.1803 12.3814L72.9735 15.8437L71.972 16.9412Z" fill="#7E181C"/>
<path fill-rule="evenodd" clip-rule="evenodd" d="M74.9826 28.3318L73.777 26.4556C74.0627 25.817 74.2833 25.2975 74.4344 24.896C74.5888 24.4934 74.7554 24.008 74.9352 23.4444L74.8193 23.2646L73.3468 24.2176C73.2608 24.2672 73.2001 24.3268 73.1648 24.3952C73.1273 24.4625 73.1185 24.554 73.1373 24.6676C73.1461 24.7173 73.1693 24.8011 73.2123 24.907C73.252 25.0107 73.2917 25.1 73.3248 25.1684L73.0545 25.3416L71.3725 22.733L71.6416 22.5576C71.6912 22.6216 71.7585 22.7043 71.8423 22.808C71.9284 22.9083 71.9912 22.9767 72.0398 23.0076C72.1324 23.0738 72.2174 23.1003 72.2902 23.097C72.3663 23.0925 72.4501 23.0595 72.5339 23.001L75.9786 20.7851C76.0558 20.7299 76.1165 20.6726 76.1529 20.6119C76.197 20.5523 76.2025 20.4575 76.1838 20.3372C76.1628 20.2424 76.1319 20.1387 76.0856 20.0229C76.0437 19.9126 76.0084 19.8232 75.9808 19.7604L76.2499 19.5883L78.0147 22.3215C78.4085 22.937 78.6126 23.4632 78.628 23.9044C78.6391 24.3434 78.4515 24.6864 78.0633 24.9412C77.7213 25.1618 77.3805 25.2412 77.0474 25.1805C76.711 25.1177 76.3569 24.9224 75.9841 24.5993C75.8804 24.8816 75.7646 25.2136 75.6356 25.5931C75.501 25.9692 75.3719 26.3597 75.2407 26.76C75.1955 26.8869 75.1502 27.0579 75.1017 27.263C75.0499 27.4693 75.0411 27.627 75.0741 27.7417C75.0929 27.8057 75.1171 27.8774 75.1624 27.9678C75.2021 28.0572 75.2319 28.1178 75.2506 28.1531L74.9826 28.3318ZM77.1048 23.6595C77.4324 23.4488 77.6077 23.204 77.6419 22.9216C77.6761 22.6458 77.5835 22.3414 77.3662 22.005L77.1886 21.7336L75.1536 23.0495L75.319 23.3109C75.5341 23.6474 75.7922 23.8503 76.0856 23.9198C76.3834 23.9904 76.7242 23.9044 77.1048 23.6595Z" fill="#7E181C"/>
<path fill-rule="evenodd" clip-rule="evenodd" d="M76.6068 33.0934C76.4932 32.757 76.4292 32.4261 76.4137 32.1085C76.3994 31.7897 76.4137 31.5106 76.4612 31.2724L76.0983 31.0926L75.9902 30.7639L77.9635 30.0536L78.0749 30.39C77.9116 30.529 77.7484 30.6889 77.5774 30.8731C77.4086 31.0595 77.2697 31.2603 77.1539 31.4665C77.0347 31.6772 76.9531 31.9044 76.9112 32.1394C76.8693 32.3677 76.8902 32.6136 76.9774 32.8762C77.0954 33.2258 77.2697 33.4663 77.5024 33.5986C77.7351 33.7277 77.9833 33.7519 78.2436 33.6626C78.4576 33.5931 78.6098 33.4519 78.7003 33.2457C78.7907 33.0383 78.8326 32.7471 78.8271 32.3809C78.8271 32.1394 78.8271 31.9187 78.8238 31.7147C78.8216 31.5106 78.8271 31.3209 78.8326 31.1389C78.8569 30.7209 78.976 30.3734 79.1911 30.1054C79.4029 29.8341 79.6819 29.6355 80.0217 29.5296C80.2334 29.4546 80.4541 29.4315 80.6824 29.459C80.9118 29.4833 81.1379 29.5638 81.353 29.6874C81.557 29.8098 81.7501 29.9896 81.931 30.2212C82.1163 30.4584 82.2586 30.7297 82.3622 31.043C82.4659 31.3496 82.5189 31.6485 82.5244 31.9441C82.531 32.2419 82.5167 32.4758 82.4836 32.66L82.7924 32.8177L82.9071 33.1574L81.0408 33.8203L80.9283 33.4839C81.1004 33.3383 81.2769 33.1762 81.4501 33.0019C81.6221 32.8265 81.76 32.66 81.8593 32.4956C81.9674 32.318 82.0336 32.1316 82.07 31.9386C82.1019 31.7423 82.0832 31.5316 82.0071 31.3077C81.9133 31.0286 81.7578 30.829 81.5438 30.6999C81.3243 30.5742 81.1004 30.5488 80.8721 30.6293C80.6548 30.701 80.5004 30.8389 80.4154 31.0374C80.3272 31.2382 80.2853 31.5228 80.2908 31.8801C80.2886 32.0963 80.2908 32.3147 80.2941 32.5353C80.2941 32.757 80.2908 32.9534 80.282 33.1298C80.2665 33.5534 80.1617 33.9053 79.9731 34.1843C79.7856 34.4689 79.5022 34.6741 79.1227 34.7965C78.8878 34.8748 78.6363 34.898 78.3782 34.8616C78.1168 34.823 77.8807 34.7358 77.6712 34.5946C77.4384 34.4435 77.2344 34.245 77.0546 34.0001C76.8803 33.7586 76.7281 33.4552 76.6068 33.0934Z" fill="#7E181C"/>
<path fill-rule="evenodd" clip-rule="evenodd" d="M78.5066 42.0126L78.179 38.8106L78.4933 38.7775C78.5066 38.847 78.5264 38.9529 78.5518 39.0974C78.5794 39.2397 78.6036 39.3356 78.6334 39.3841C78.682 39.4845 78.7426 39.5496 78.8154 39.5761C78.8827 39.6058 78.9698 39.6147 79.0724 39.6058L83.1624 39.1834C83.255 39.1746 83.3366 39.1481 83.405 39.1062C83.469 39.0632 83.5208 38.9882 83.5506 38.8812C83.5738 38.815 83.5903 38.7124 83.6047 38.5812C83.6201 38.4499 83.6289 38.3385 83.6289 38.2469L83.9499 38.2172L84.2786 41.4181L83.9631 41.4523C83.9444 41.3718 83.9234 41.2692 83.897 41.1534C83.8694 41.0331 83.8363 40.9283 83.7988 40.8489C83.7536 40.7486 83.6907 40.6824 83.6146 40.6559C83.5374 40.6283 83.4469 40.614 83.3543 40.6283L79.2699 41.0497C79.1684 41.0618 79.089 41.0839 79.0206 41.1302C78.9577 41.1732 78.9092 41.2493 78.8761 41.3552C78.8573 41.4159 78.8452 41.5129 78.8331 41.6453C78.8242 41.7799 78.822 41.8924 78.8275 41.9806L78.5066 42.0126Z" fill="#7E181C"/>
<path fill-rule="evenodd" clip-rule="evenodd" d="M82.063 51.3856L82.1016 51.0691C82.3586 51.0172 82.6344 50.9135 82.9366 50.7624C83.2421 50.6102 83.4131 50.4591 83.4528 50.3036C83.4716 50.222 83.4947 50.1106 83.5201 49.9859C83.5411 49.8591 83.5598 49.7521 83.5686 49.666L83.5896 49.4697L79.0783 48.9337C78.9801 48.9248 78.8919 48.9281 78.8147 48.9579C78.7353 48.9855 78.668 49.0462 78.6117 49.1454C78.5842 49.2039 78.5478 49.2965 78.5058 49.4256C78.4628 49.5591 78.4319 49.666 78.4121 49.7554L78.0933 49.719L78.475 46.496L78.7904 46.5335C78.7904 46.614 78.7904 46.7276 78.7871 46.8688C78.7838 47.0155 78.7904 47.1104 78.8081 47.1655C78.8389 47.2747 78.8875 47.3575 78.957 47.3983C79.0243 47.4468 79.1114 47.4689 79.2118 47.4843L83.7628 48.0237L83.7859 47.8317C83.7981 47.7424 83.8047 47.631 83.8102 47.5008C83.8201 47.3751 83.8234 47.2703 83.8234 47.1799C83.8201 47.0243 83.69 46.8324 83.4286 46.6173C83.1693 46.3978 82.9256 46.2324 82.6895 46.121L82.7248 45.8011L84.3772 45.9986L83.7131 51.5831L82.063 51.3856Z" fill="#7E181C"/>
<path fill-rule="evenodd" clip-rule="evenodd" d="M80.1759 61.4294C80.2002 61.3334 80.2156 61.2419 80.2212 61.1613C80.2267 61.0753 80.2245 60.9904 80.209 60.9065C80.1914 60.7753 80.1484 60.644 80.0877 60.5271C80.0237 60.4047 79.9487 60.2778 79.8638 60.151C79.6851 59.8962 79.4877 59.6237 79.2748 59.3326C79.0575 59.0414 78.8236 58.7237 78.5655 58.3818C78.399 58.159 78.2699 58.0112 78.1663 57.9317C78.0604 57.8589 77.8651 57.7663 77.5806 57.6582L76.814 57.3626C76.7235 57.3284 76.632 57.3107 76.5526 57.3218C76.4709 57.3317 76.3904 57.3736 76.311 57.4563C76.2735 57.4949 76.2195 57.5722 76.1312 57.7034C76.0496 57.8314 75.9922 57.9317 75.9647 57.9946L75.6613 57.8799L76.8261 54.8488L77.1261 54.9602C77.1008 55.0364 77.0754 55.1422 77.0379 55.2801C77.0015 55.4235 76.9827 55.5239 76.9805 55.5845C76.986 55.6959 77.0169 55.7787 77.0688 55.8426C77.1261 55.8978 77.2011 55.9529 77.296 55.9893L78.2512 56.3533C78.3361 56.3853 78.4078 56.4118 78.4751 56.4339C78.538 56.4526 78.5964 56.4658 78.645 56.4658C78.7001 56.4658 78.7718 56.4647 78.8656 56.4493C78.9571 56.4339 79.0751 56.4151 79.2207 56.3908C79.6399 56.3269 80.0392 56.2684 80.4153 56.1978C80.7947 56.136 81.1488 56.0699 81.4819 56.0092C81.6517 55.9805 81.7995 55.9342 81.9198 55.8768C82.04 55.825 82.1437 55.7599 82.2319 55.6904C82.2948 55.6342 82.3566 55.5669 82.415 55.4698C82.4713 55.3827 82.5187 55.3 82.5551 55.2239L82.8529 55.343L81.6639 58.4424L81.3639 58.3277C81.4664 58.0376 81.5183 57.8358 81.5282 57.7266C81.537 57.6141 81.5095 57.5424 81.4521 57.5247C81.4245 57.5126 81.3606 57.5126 81.2646 57.5126C81.1675 57.5192 81.0098 57.5369 80.798 57.5611C80.5995 57.5832 80.3248 57.6262 79.9697 57.6758C79.6156 57.7365 79.1965 57.8049 78.7178 57.8909C79.299 58.6685 79.7094 59.2013 79.9421 59.498C80.1814 59.7958 80.3337 59.9591 80.4009 59.9877C80.4892 60.0164 80.573 59.9933 80.6612 59.9039C80.7462 59.8168 80.8399 59.6568 80.9425 59.4252L81.2392 59.5377L80.4759 61.5419L80.1759 61.4294Z" fill="#7E181C"/>
<path fill-rule="evenodd" clip-rule="evenodd" d="M73.9289 44.0012C73.9289 60.5275 60.5329 73.9268 44.0044 73.9268C27.4714 73.9268 14.0721 60.5275 14.0721 44.0012C14.0721 27.466 27.4714 14.07 44.0044 14.07C60.5329 14.07 73.9289 27.466 73.9289 44.0012ZM62.6033 59.2105C61.6084 56.8975 60.4811 54.761 59.2468 52.8705C57.9519 50.8762 56.5367 49.139 55.041 47.7117C53.4351 46.1774 51.7188 44.9851 49.9463 44.1688C48.7749 43.6295 47.5781 43.2556 46.3659 43.0438V41.654C46.3659 40.3491 45.307 39.2869 44 39.2869C42.6962 39.2869 41.6362 40.3491 41.6362 41.654V43.0438C40.4229 43.2556 39.2262 43.6295 38.0592 44.1688C36.2855 44.9851 34.5726 46.1774 32.9589 47.7117C31.4643 49.139 30.048 50.8762 28.7564 52.8705C27.5233 54.761 26.3927 56.8975 25.4011 59.2105C24.9036 60.372 25.4397 61.7166 26.5978 62.2195C27.7593 62.7126 29.1028 62.1743 29.6024 61.0151C31.3937 56.8291 33.6472 53.3756 36.1179 51.0207C37.8937 49.3221 39.7435 48.2191 41.6362 47.7194V51.4377C41.6362 52.7171 40.6965 53.2179 40.2619 53.4815C40.1229 53.5665 39.824 53.7462 39.6839 53.8334C38.8048 54.4014 37.7967 55.2805 36.8547 56.4916C35.155 58.6712 33.8292 61.6427 33.1298 64.8601C32.8585 66.0977 33.6405 67.3099 34.8748 67.5801C36.1113 67.8471 37.3246 67.0695 37.5948 65.833C38.1551 63.2729 39.1688 60.9511 40.4593 59.3021C41.1134 58.4594 42.4502 57.0431 44 57.0431C45.5519 57.0431 46.8865 58.4594 47.5439 59.3021C48.8333 60.9511 49.8514 63.2729 50.4084 65.833C50.6765 67.0695 51.8942 67.8471 53.1251 67.5801C54.3583 67.3099 55.1447 66.0977 54.8745 64.8601C54.1741 61.6427 52.8494 58.6712 51.1485 56.4916C50.2066 55.2805 49.1962 54.4014 48.3238 53.8334C48.1793 53.7462 47.8803 53.5665 47.7381 53.4815C47.3079 53.2179 46.3659 52.7171 46.3659 51.4377V47.7194C48.2598 48.2191 50.1062 49.3221 51.8854 51.0207C54.3528 53.3756 56.6062 56.8291 58.4008 61.0151C58.8972 62.1743 60.2406 62.7126 61.4021 62.2195C62.5602 61.7166 63.1007 60.372 62.6033 59.2105ZM46.0284 21.276V21.3532C46.0284 21.3532 46.0284 31.321 46.0284 34.865C46.0284 35.5091 46.0284 35.9404 46.0284 36.0606C46.0284 36.8394 46.5931 37.9677 47.8142 38.2292C50.5584 38.8104 53.691 40.4131 56.5213 42.7504C59.2987 45.0402 61.9073 48.0481 64.2754 51.7002C64.9615 52.758 66.38 53.058 67.4388 52.3719C68.1139 51.9329 68.4779 51.2016 68.4779 50.4516C68.4779 50.0247 68.361 49.5923 68.1084 49.2052C65.4865 45.1715 62.5669 41.8161 59.431 39.2241C56.6459 36.9232 53.7351 35.2764 50.7581 34.308V29.0577C55.0444 30.2346 59.5137 32.6733 63.3599 35.968C64.3195 36.7853 65.7612 36.675 66.5829 35.7165C67.4046 34.7602 67.2888 33.3153 66.3314 32.4957C63.8761 30.3901 61.0745 28.5194 58.2365 27.091C55.7326 25.8237 53.2255 24.9048 50.7581 24.3379V21.276C50.7581 19.9722 49.7003 18.9122 48.3954 18.9122C47.0851 18.9122 46.0284 19.9722 46.0284 21.276ZM39.61 18.9122C38.304 18.9122 37.2452 19.9722 37.2452 21.276V24.3379C34.7777 24.9048 32.2706 25.8237 29.7657 27.091C26.9254 28.5194 24.1271 30.3901 21.6696 32.4957C20.71 33.3153 20.5986 34.7602 21.4203 35.7165C22.2421 36.675 23.6815 36.7853 24.6433 35.968C28.4895 32.6733 32.9556 30.2346 37.2452 29.0577V34.308C34.2682 35.2764 31.3584 36.9232 28.5689 39.2241C25.4353 41.8161 22.5145 45.1715 19.8927 49.2052C19.6445 49.5923 19.5221 50.0247 19.5221 50.4516C19.5221 51.2016 19.8927 51.9329 20.5666 52.3719C21.6244 53.058 23.0396 52.758 23.7245 51.7002C26.0949 48.0481 28.7024 45.0402 31.4798 42.7504C34.3101 40.4131 37.4459 38.8104 40.1891 38.2292C41.4112 37.9677 41.9715 36.8394 41.9715 36.0606C41.9715 35.9404 41.9715 35.5091 41.9715 34.865C41.9715 31.321 41.9715 21.3532 41.9715 21.3532V21.276C41.9715 19.9722 40.9138 18.9122 39.61 18.9122Z" fill="#7E181C"/>
</svg>
