<?xml version="1.0" encoding="UTF-8"?><svg id="b" xmlns="http://www.w3.org/2000/svg" viewBox="0 0 378.9359 378.9365"><g id="c"><path d="M193.6636,252.6243h-7.3156v-80.0477c-.0691-5.5581-1.0514-10.1191-8.053-10.3989-4.9639-.1997-8.8792,3.3669-8.9472,10.3989-.5554,23.8845-1.1638,47.7702-1.6676,71.6558-.3038,14.4225,6.6104,26.0908,22.3262,26.0908,15.7148-.0011,22.6287-11.6683,22.324-26.0908-.5027-23.8867-1.1102-47.7708-1.6667-71.6558-.0669-7.032-3.9831-10.598-8.9471-10.3989-7.0018.2798-7.983,4.8408-8.053,10.3989v80.0477Z" fill="#b33023" fill-rule="evenodd" stroke-width="0"/><path d="M45.339,125.3134c-.6425.4437-2.2874-.6743-3.6303.0004-1.3395.6685-1.8812,1.4768-2.2826,2.2837-.4061.8082,0,3.2251,2.6872,4.974,2.6868,1.7422,11.9742,3.5548,13.7959,3.2755,1.8201-.2836,3.2229-4.065,1.6815-4.3443-1.5408-.2813-5.4635-1.4022-6.5849-3.2197-1.1209-1.8255-2.941-5.1885-2.8008-11.7713.1412-6.5845,2.4886-10.2125,3.3929-10.9134.903-.7002,2.2279.5411,2.5231.951.2946.4052,2.2417,6.0546,2.5028,6.3174.2662.2665.215,1.7718-.995,1.1214-1.2089-.65-2.5199-1.1214-3.6422-.2789-1.1203.8384-2.1016,1.8197-.8401,3.2204,1.2612,1.4001,2.8008,1.2636,3.6439.9817.8384-.2793,2.3792-.7004,1.9598.1418-.4205.8393-.2804,4.342-.2804,4.342,0-.0009-1.2636,1.5414,0,2.6634,1.2595,1.1171,3.5033,1.1182,3.5033.1392,0-.9808,0-3.926.2804-5.6043.2798-1.682.8421-4.485,1.963-5.0452,1.1197-.5601,1.9608-.139,3.7814-1.2595,1.8201-1.1186,3.7842-4.0618,3.9249-5.7459.1375-1.68,1.2583-10.6452,2.2427-12.0474.9796-1.4018,3.5012-2.2434,1.1177-4.485-2.3813-2.2402-11.7681-3.2219-16.252.2797-4.4835,3.5023-8.1279,8.4067-10.5098,15.1313-2.3803,6.7278-2.8014,10.2316-1.9609,13.7349.8401,3.4963,1.4114,4.7138.7785,5.1576v-.0004h0ZM59.6429,112.7238s-.4964.2506-.7464.9909c-.2443.7438-.369-5.4573-.369-7.6904,0-2.2342-1.6126-2.2342-3.2277-2.1095q-1.6109.1216-2.4811.2448c.8315-2.0735,1.5848-3.6005,3.0944-5.6691,1.9465-2.6622,4.8997-5.5305,8.3216-5.8692,1.9778-.1959.8697,6.2048.7434,7.9404-.1206,1.7384-.3716,7.1987-.4966,8.3143-.1204,1.116-1.237.8691-2.8495,1.243-1.6152.3684-1.989,2.6053-1.989,2.6047Z" fill="#b33023" fill-rule="evenodd" stroke-width="0"/><path d="M116.2165,42.4553c-1.3529.7284-1.9769,1.6644-.7281,3.8488,1.2479,2.1833,2.7042,1.7691,3.8473,5.7206,1.1448,3.9513,3.4326,11.9603,3.953,13.2085.5198,1.2462.3117,3.5357.3117,4.4718s.6245,3.7441,2.7042,3.3279c2.0791-.4173,1.1432-2.9117.936-4.1596-.2075-1.2488-3.0157-11.5445-3.7441-13.1044-.7281-1.5616-2.0808-5.4084-2.2874-6.8649-.2087-1.4563-.2087-2.8082-1.4569-4.16-1.2479-1.3529-2.1844-3.0164-3.5357-2.2889Z" fill="#b33023" fill-rule="evenodd" stroke-width="0"/><path d="M125.993,40.3756c-.6234.2075-1.665.5207-1.768,1.7686-.1047,1.2471,1.2477,2.8082,2.0797,3.7443.8326.9345,1.6629,1.9756,1.9763,3.1198.3117,1.1426,3.1204,8.3207,4.0558,8.7363.9362.4164,1.8722-.832,1.8722-2.7042s-.4162-4.2636-1.2477-5.096c-.8326-.832-1.3524-1.9757-1.3524-3.6404s-1.1432-3.4321-2.2878-4.8884c-1.1437-1.4565-2.7036-1.2479-3.3281-1.0401Z" fill="#b33023" fill-rule="evenodd" stroke-width="0"/><path d="M132.5451,23.8378c-.7657.1051-2.288.626-2.5997,1.4575-.3117.8326,0,2.1833,1.2467,3.4321,1.2494,1.2479,1.9778,2.497,2.1848,3.4326.2077.9351,4.4718,10.4004,5.512,12.8959,1.0396,2.4961,2.7042,7.3851,4.1605,10.5045,1.4565,3.1198,3.6589,8.8695,5.5125,9.8804,1.8546,1.0105,2.6993-1.9527,1.5843-3.3948-1.1139-1.4432-1.0645-.8687-2.7291-3.678-1.6635-2.8082-8.3207-18.4077-8.7354-19.6559-.4162-1.2499-1.9651-5.9171-1.9651-7.4776s1.2366-3.6514.3006-5.1066c-.4136-1.458-3.7056-2.3919-4.4722-2.2901Z" fill="#b33023" fill-rule="evenodd" stroke-width="0"/><path d="M252.2293,61.6855c.2692,2.5103,1.4346,10.2221,5.3795,10.4907,3.9451.2692,4.2132-4.2143,3.3165-5.7381-.8957-1.526-6.0966-7.2618-6.0966-7.2618-2.1971-2.3994-2.7647.9699-2.5995,2.5092Z" fill="#b33023" fill-rule="evenodd" stroke-width="0"/><path d="M340.7893,112.8363c-.3907.1716-1.1741.9791-1.4665,1.5665-.2943.5861-.8804,1.6629-1.3705,1.76-.4879.0972-3.5201.7828-4.2051.9787-.6827.1942-2.7372.4879-3.1285,1.0746-.3919.5867-1.4665,1.6635-1.4665,1.6635,0-.0006,0,1.1729.8798,1.1729s.8798.782.8798.782c0-.0006-.0978,1.6624-.5857,1.3694-.4894-.2943-.6679-.0972-1.3704-.7504-.703-.653-6.327-6.0246-6.327-6.0246.0011-.0017-1.254-1.9583-1.5545-2.5111-.3021-.5526-.3531-1.5058-1.3067-1.5058-.9538-.0009-2.1085.6022-2.4096,1.4554-.1322.3733-.2199,2.0808.7524,3.2028,1.2503,1.4404,3.7782,2.3931,5.1894,3.3242,2.5094,1.6571,4.2525,3.2755,5.6802,4.8611,1.4267,1.5843,4.544,5.0192,5.3893,6.8688.8448,1.8484.0532,2.5366-.582,2.3777-.6329-.1583-1.955-.951-2.4826-1.3735-.5284-.4237-1.0036-.0526-1.0036-.0526,0,0,.1497.5284,1.201,2.1393,1.0497,1.6114,1.8207,4.1341,2.451,4.2031.6312.0701,4.133-2.1016,3.5033-4.4128-.6309-2.3127-1.9619-4.6931-2.3824-5.2539-.4196-.5612-.1392-1.331.9105-.841,1.0514.4908,2.3123,1.2612,4.1336,1.2612s2.451.6301,3.0127-.1397c.5606-.7719,1.751-2.1717,1.8907-2.5926.1407-.4205,1.0512-.3499,2.0325.7007.9802,1.0502,2.6611,2.0316,3.362.9808.7004-1.0508-.2793-2.3824.6307-2.7323.9107-.3499,1.1909-1.1209,1.6817-.4896.4906.6297.91,1.3307,1.2604.9101.3499-.4211,1.0508-.9808,1.5403-1.7512.4911-.771.2103-2.1717-.5606-2.102-.7689.0695-1.9602.4205-2.5916.6307-.6297.2103-1.5408.2798-1.8907.8401-.3493.5601-.4906.841-.9811.841-.4902-.0006-1.1905.2804-1.9615-.4902-.7698-.7708-.9111-1.3305-1.6809-1.4011-.7704-.0706-2.5216.49-2.5922.8405-.0695.3499.49,1.1915-.9105,1.3312-1.4007.1401-4.9034-.4201-5.394-.1397-.4908.2798.0701,1.1909-.632,1.4007-.6998.2098-1.8207.9806-2.3807.6303-.5602-.351-1.6111-1.75-1.6111-1.75,0-.0011-.9806-1.612.6303-1.612,1.612-.0006,4.0635-.4205,4.5541-.4908.4906-.071,1.2604.1403,1.1203-.5606s1.261-.2804.7004-.9808c-.5602-.7013-1.0502-1.1909,0-1.3305,1.0514-.1407,4.974,0,7.1461-.3505,2.1711-.351,2.3118-1.1909,2.521-1.9619.2109-.7704-1.4001-2.2417-2.1014-2.0319-.6992.2102-1.4702,1.5414-2.451,1.9619-.9808.4194-4.133,1.261-4.4835,1.4022-.3493.1392-2.5459.6297-3.0125.6297-.4673-.0006-2.7085-1.6815-.9107-1.8913,1.7978-.2113,3.9455-.7476,4.9034-1.4713.9568-.7247,1.8918-3.1522,1.7517-3.713-.1409-.5612-1.5309-.6211-1.9211-.4524Z" fill="#b33023" fill-rule="evenodd" stroke-width="0"/><path d="M323.1402,123.617c-.9206.3675-1.5657,1.2887-1.2885,2.1175.2755.8277,1.7489,1.0118,1.9327,2.0244.3089,1.6991-2.4605,2.025-3.4969,2.025,0,0-3.2225-3.4978-3.5898-4.142-.3696-.6445-1.5659-4.05-2.6714-3.4066-1.1033.6451-1.9321,2.486-1.2879,3.5904.6445,1.1049,1.7489,1.7495,2.9456,2.9458,1.1963,1.1962,2.3936,2.4854,2.3936,2.9456,0,.4587-.6445,1.5642-1.8414,1.8414-1.1962.2755-4.4186.644-4.9697-.0923-.5528-.7371-1.1055-2.3019-.9206-3.4057.1826-1.1055.275-3.5904-.9208-2.7615-1.1962.8277-.8283,1.5648-1.5657,2.3007-.7359.7363-1.3799,3.0382-.5516,3.9588.8283.9195,2.9453,2.0244,5.5225,1.9327,2.5778-.0923,3.7747-.5522,4.603-.5522.8287-.0006,2.0261-1.0135,2.1168-.1843.0929.8283.6451,4.2334,2.0246,4.0502,1.3816-.1843,3.1305-.9201,2.8539-2.117-.275-1.1967-1.9332-4.05-1.9332-4.05.0006-.0006-.2755-2.1175.461-1.8409.7369.2755,2.3005.5516,3.3141.6434,1.0126.092,2.9453-.5516,2.486-1.8407-.4613-1.2887-2.8544-3.7741-3.3143-4.5106-.4602-.7374-1.3814-1.8401-2.3017-1.4723Z" fill="#b33023" fill-rule="evenodd" stroke-width="0"/><path d="M258.3905,39.0232c-.2431.0498-1.8562,2.359-3.5994,4.8751-.0982-.0079-.1806-.0116-.2411-.0116-.8054,0-4.1637.2692-5.3737-.5378-1.2085-.8071-2.9565-2.1499-3.7625-2.2842-.8069-.1343-1.8817.4035-2.2841,1.7474-.4031,1.3432-.2694,2.6872,1.6124,4.7026,1.8808,2.0156,2.2848,1.7463,4.0311,1.3434.8092-.1881,1.8207-.3166,2.8469-.428-.6949.9637-1.2286,1.6571-1.4468,1.8265-.9351.7264-3.8473,4.1602-5.6159,5.4084-1.7676,1.2473-6.5658,3.3881-6.3434,3.5357.2214.147-1.1021.3392-1.2488-1.1437-.1459-1.4846-1.039-.2092-2.4953.6239-1.4565.8315-.5203,2.6001-.7286,3.6402-.2075,1.0396-.1763,1.7972,1.7984,1.4867,1.9769-.3137,3.9041-2.4227,6.1921-3.5669,2.2889-1.1443,6.3635-3.0164,8.1311-4.8875,1.3975-1.4818,4.1605-5.1714,5.6674-7.3718,2.0362-.1991,5.9636-.1985,6.8143-.1985.9412-.0006,1.8806.8066,3.3592.6717,1.4777-.1345,3.0897-.806,2.1499-2.0156-.9409-1.2089-1.7469-2.686-3.226-2.2831-1.4771.4025-2.9166.2497-3.8575.3834-.4231.0588-1.5622-.0663-2.7589-.2236.7168-.9467,1.4432-1.8656,1.8345-2.4837.7284-1.1452,1.1447-1.456,1.665-1.768.5198-.3128,1.6646-1.3518,2.288-2.3919.6237-1.0407.2081-3.8479-.6234-4.473-.832-.6243-2.3925-.2075-3.121,1.1448-.7281,1.3513-1.1448,4.5764-1.6641,4.6794Z" fill="#b33023" fill-rule="evenodd" stroke-width="0"/><path d="M189.7807,99.881c-.6526,0-1.3052.0116-1.9561.0371-.4926-3.3939-2.3691-7.4913-6.4622-7.6166-3.0987-.0944-5.0171.1281-8.1821.1079-3.121-.0208-5.2023-1.1055-6.5706-2.8688.8028,4.2175,2.0192,8.4602,6.6954,9.193,2.0447.3203,4.2519.2034,6.3221.215,3.0934.0182,4.7271.4248,5.8724,1.1151-7.9442.7088-15.1386,3.5988-17.6075,10.745-2.202,6.3719-1.5633,21.9121-2.9904,29.0598-3.3482-.0006-6.6965,0-10.043,0-8.7088-.1652-11.2813,7.1455-11.8697,16.3546-1.5069,25.9288-3.2214,51.848-4.519,77.7878-1.0236,20.4595-5.3488,29.7162-11.8148,36.7323,4.7468-.0006,9.4925,0,14.2382,0,1.9428-1.9014,3.5287-4.3422,6.9597-9.3646-1.3741,4.5752-2.6431,7.1978-3.9843,9.3646,4.1191-.0006,8.2351,0,12.3548,0,2.3464-4.6166,2.9666-10.1179,3.2268-15.7515,1.338-29.0376,2.5714-58.0772,3.8567-87.1147.151-4.6794,1.704-7.4652,5.4981-7.5173,6.2749-.0009,12.5486,0,18.8235,0,.0006-12.8624,0-25.7242,0-38.5868-4.4818-.9892-7.8539-4.9978-7.8539-9.7701,0-5.5114,4.4951-10.0065,10.0059-10.0065s10.0059,4.4956,10.0059,10.0065c0,4.7723-3.3716,8.7815-7.8545,9.7701.0006,12.8626,0,25.7255,0,38.5868,6.2749-.0009,12.5492,0,18.8241,0,3.7936.0515,5.3466,2.8379,5.4985,7.5173,1.2855,29.0364,2.5173,58.0783,3.8563,87.1147.2602,5.633.8804,11.1363,3.2272,15.7515,4.1182-.0006,8.2353,0,12.3538,0-1.3408-2.1674-2.6096-4.7882-3.9833-9.3646,3.4306,5.0218,5.016,7.4637,6.9599,9.3646,4.7457-.0006,9.4908,0,14.2365,0-6.4644-7.0178-10.7896-16.2727-11.8127-36.7323-1.2992-25.9398-3.0121-51.8587-4.5194-77.7878-.5889-9.2091-3.162-16.5192-11.8702-16.3546-3.3461-.0006-6.6948,0-10.0424,0-1.4273-7.1483-.7901-22.6874-2.9904-29.0598-2.4695-7.1478-9.6639-10.0351-17.6086-10.745,1.1473-.6908,2.7795-1.0969,5.8729-1.1151,2.0707-.0133,4.2774.1053,6.3227-.215,4.6756-.7337,5.892-4.9755,6.6943-9.193-1.3677,1.7628-3.4486,2.8486-6.5695,2.8688-3.1655.0197-5.0834-.2017-8.1826-.1079-4.0931.1249-5.9696,4.2227-6.4622,7.6166-.6505-.0255-1.3035-.0371-1.9561-.0371Z" fill="#b33023" fill-rule="evenodd" stroke-width="0"/><path d="M189.4679,0c104.3555,0,189.4681,85.1129,189.4681,189.4684s-85.1126,189.4681-189.4681,189.4681S0,293.8245,0,189.4684,85.112.0004,189.4679.0004v-.0004h0ZM189.4679,6.6714C88.7872,6.6714,6.6703,88.7872,6.6703,189.4684s82.1169,182.7976,182.7976,182.7976,182.797-82.1164,182.797-182.7976S290.1491,6.6714,189.4679,6.6714Z" fill="#b33023" fill-rule="evenodd" stroke-width="0"/><path d="M23.2723,184.3092l8.7805-.154.0154.9004c-2.0863.327-3.8112,1.3115-5.1641,2.9591-1.3513,1.6412-2.0117,3.5197-1.9757,5.6234.024,1.3554.3568,2.4466,1.0057,3.2764.6436.824,1.4618,1.2318,2.4568,1.2149,1.5292-.0281,3.1178-2.0347,4.7728-6.0222l.0174-.0541c.101-.2448.2491-.6084.4482-1.0974,1.1134-2.7531,2.2783-4.597,3.5005-5.5315.5501-.4121,1.1368-.7307,1.7613-.9489.6309-.2193,1.2859-.3366,1.9847-.3482,2.2221-.0393,4.0671.7687,5.5485,2.427,1.4745,1.6575,2.2359,3.8011,2.2814,6.426.024,1.4209-.2341,2.9134-.7757,4.4756-.5415,1.5556-.8054,2.4073-.8028,2.5448.0064.395.13.6728.3696.8294.2399.1545.6801.2544,1.3151.2903l.0165.9532-7.7434.1352-.0139-.8176c1.836-.369,3.3137-1.2711,4.4383-2.7254,1.1304-1.4485,1.6757-3.129,1.6427-5.0489-.0212-1.2031-.3106-2.1625-.8744-2.882-.564-.7195-1.293-1.0742-2.1812-1.0589-1.2977.0223-2.5566,1.5801-3.7709,4.6646l-.1534.3887c-.8856,2.2131-1.57,3.7608-2.0464,4.6459-.4767.8792-.951,1.5457-1.4294,1.9926-.7166.6876-1.5078,1.2053-2.3605,1.5642-.8592.3516-1.7746.54-2.758.558-2.3637.0399-4.3044-.7846-5.822-2.4768-1.5168-1.6922-2.2962-3.9191-2.344-6.6742-.0266-1.5573.2165-3.1852.7326-4.8774.5157-1.6997.7721-2.6102.7704-2.7514-.0079-.4046-.1555-.7322-.4385-.9875-.283-.257-.6769-.4037-1.1872-.4419l-.017-.9716h0ZM31.7256,222.6656c-1.2196.2154-2.0424.5951-2.4699,1.14-.4274.5441-.5692,1.3808-.4306,2.5055l-.8697.154-2.3751-13.4682.8697-.154c.2437,1.1064.6627,1.8461,1.2557,2.2103.5883.3649,1.4985.4396,2.7181.2242l15.1307-2.6677c1.2196-.215,2.0484-.6011,2.4742-1.1516.4323-.5516.5739-1.3831.4263-2.4944l.8699-.1534,2.3749,13.4676-.8873.1568c-.257-1.1167-.6753-1.8542-1.2509-2.2163-.5808-.3611-1.4852-.4355-2.7042-.2208l-15.1318,2.668h0ZM42.501,255.3321c-2.125-.5363-3.9133-1.494-5.3702-2.8713-1.4558-1.3779-2.5263-3.1163-3.2112-5.2243-.5065-1.5614-.7178-3.0932-.6297-4.6054.0903-1.5052.4778-2.958,1.1724-4.3492.727-1.5388,1.7676-2.8608,3.1146-3.971,1.3535-1.1066,2.9559-1.9639,4.8163-2.5682,3.5108-1.1405,6.7235-.9759,9.6274.5044,2.9108,1.4771,4.9294,3.9551,6.0599,7.4323.4836,1.4861.7172,3.0324.7013,4.6316-.0159,1.5996-.0015,2.4493.0292,2.5454.1085.3319.2752.558.5061.6758.2379.1158.6153.1684,1.1415.1403l.2847.8729-7.3596,2.3919-.2836-.874c1.724-.9032,2.9218-2.0522,3.5898-3.4459.6605-1.399.7322-2.9054.2066-4.5226-.6367-1.9609-1.9598-3.1757-3.9712-3.6503-2.0102-.4743-4.6378-.1811-7.8841.8738-3.3924,1.1008-5.7991,2.4393-7.2142,4.0071-1.423,1.5648-1.8169,3.3261-1.1834,5.2752.4014,1.2334,1.1351,2.3043,2.2093,3.2139,1.0757.9148,2.4408,1.6242,4.0888,2.1344l-.4406,1.3831h0ZM51.2405,271.7663l6.1559-3.8451,3.8966,6.2361-6.1554,3.8462c-1.0506.6561-1.9167.9259-2.5957.8107-.6786-.1129-1.3439-.6408-1.9997-1.579l-.7491.4677,7.247,11.5982.7487-.4677c-.5571-.96-.7412-1.7798-.5454-2.4609.1959-.6818.8184-1.3509,1.869-2.0067l13.0298-8.1433c1.0502-.6556,1.924-.9227,2.6102-.7991.6902.1212,1.3469.6473,1.9703,1.5781l.7635-.4773-7.2476-11.5994-.7481.4677c.549.9918.7328,1.8223.5406,2.4871-.1927.6648-.8139,1.3258-1.8641,1.9819l-5.3717,3.3568-3.8962-6.2372,5.3717-3.3555c1.0497-.6563,1.9162-.9246,2.598-.8066.6822.1184,1.3475.6472,1.9975,1.5753l.7481-.4677-7.247-11.5982-.7481.4677c.5528.9748.7328,1.7995.5395,2.4727-.1901.67-.8129,1.3391-1.8637,1.9954l-13.0291,8.1416c-1.0508.6558-1.9248.9223-2.6203.8054-.6951-.1184-1.3524-.643-1.9757-1.5738l-.7487.4679,7.247,11.5966.7492-.4683c-.5565-1.0002-.7397-1.8296-.5438-2.4892.1956-.6616.8172-1.3205,1.8669-1.9772v-.0011h0ZM83.6688,305.2114l8.0127-7.4718c.9137-.8526,1.3973-1.6187,1.458-2.3005.062-.6812-.2677-1.4517-.9924-2.3155l.646-.602,5.3022,5.6854-.6462.602c-.7979-.7863-1.5472-1.1733-2.2475-1.1594-.6966.0084-1.5032.4374-2.4094,1.2821l-7.9612,7.4229c-1.2441,1.16-2.3071,1.9735-3.1916,2.4343-.883.4598-1.7972.7137-2.7302.7637-1.2392.0446-2.5199-.2677-3.8361-.9425-1.3226-.6801-2.5959-1.6794-3.8294-3.0015-2.1932-2.3532-3.2929-4.6007-3.31-6.748-.0174-2.1471,1.0525-4.2231,3.2103-6.2344l8.4336-7.8651c.9064-.8442,1.3895-1.6193,1.4468-2.3133.0622-.6983-.2707-1.4728-.9997-2.324l.6462-.6033,9.3256,10.0024-.6451.6015c-.8155-.7863-1.5683-1.1771-2.2603-1.1638-.6929.0127-1.4919.4428-2.3972,1.2876l-9.6242,8.9748c-1.3396,1.2488-2.0649,2.4264-2.1786,3.5383-.1103,1.107.3739,2.2432,1.4565,3.4044,1.2849,1.3784,2.7068,1.9896,4.2587,1.8298,1.5532-.1594,3.241-1.0849,5.0622-2.7829v-.0009h0ZM91.3093,317.726l3.3233-2.1546,5.0997,3.7041-1.2657,4.4059c-.0483.207-.1148.4003-.2002.5878-.0807.1815-.1785.3461-.2862.4947-.3068.4211-.6515.6037-1.0317.5539-.3838-.059-1.0827-.4572-2.1037-1.199l-.5187.7148,10.2921,7.4769.5187-.7135c-.4327-.3134-.6966-.6749-.7991-1.0864-.0993-.41-.0483-1.0233.1609-1.8452l5.7248-22.0846-2.1488-1.5594-18.9897,12.0129c-.7391.4651-1.3895.7247-1.9581.782-.5698.0472-1.0885-.0955-1.568-.4434l-.5187.7137,5.8963,4.2832.5203-.7142-.2694-.1948c-.6715-.4874-1.0804-.9525-1.2237-1.4001-.138-.4454-.0303-.9159.3323-1.4144.1077-.1487.2454-.2969.4162-.4514.1667-.1497.3623-.3085.597-.4683v-.0006h0ZM95.9749,314.7002l6.1372-3.9494-1.9619,6.9827-4.1753-3.0333h0ZM122.6941,319.0098c.5232-1.1218.6807-2.0213.4763-2.6866-.2044-.6717-.8049-1.2636-1.7989-1.7793l.3733-.8022,9.0763,4.2334,4.4653,17.5386,4.0719-8.7333c.523-1.1209.6839-2.0128.4857-2.668-.1995-.6492-.8043-1.2462-1.8163-1.7824l.3812-.8165,7.0719,3.2978-.3727.7996c-1.0353-.4297-1.8748-.5067-2.5199-.2326-.6413.2682-1.2303.9706-1.7532,2.0921l-8.3413,17.8874-2.4541-1.1437-6.1383-23.9334-6.2228,13.3445c-.5247,1.1224-.685,2.0149-.4838,2.6776.2002.6621.806,1.2583,1.8064,1.7894l-.3722.7985-7.0736-3.2967.3733-.7996c1.03.4406,1.8675.5245,2.5141.2443.6473-.281,1.2346-.9796,1.759-2.1022l6.4925-13.9265h0ZM182.4364,346.2342l.9553-10.9155c.1094-1.2456-.0451-2.1381-.4546-2.686-.4104-.5469-1.1701-.8995-2.2878-1.0566l.0775-.8804,7.7451.6786-.0775.8798c-1.1199-.0504-1.9358.1635-2.4466.6413-.5125.4726-.8251,1.3333-.933,2.5667l-.9487,10.8421c-.1482,1.6948-.3941,3.0116-.744,3.944-.3493.9328-.8584,1.7336-1.5174,2.3968-.891.8596-2.051,1.485-3.4815,1.8656-1.4384.3791-3.0535.4881-4.854.3308-3.2049-.2813-5.5256-1.2153-6.9752-2.8001-1.449-1.5833-2.0437-3.8421-1.7862-6.7819l1.0051-11.4868c.1068-1.2346-.0521-2.134-.4726-2.6888-.4209-.5601-1.1872-.9128-2.2979-1.0561l.0764-.8809,13.6238,1.1911-.0774.8792c-1.1327-.0378-1.9535.1751-2.4596.6494-.5059.473-.8118,1.3262-.9206,2.5596l-1.1463,13.111c-.1598,1.8229.0903,3.1843.7487,4.0852.6595.8968,1.7798,1.4172,3.3615,1.5558,1.877.163,3.3424-.3319,4.3889-1.4901,1.0482-1.1574,1.6811-2.9743,1.8988-5.4539h0ZM195.5845,335.5397c-.172-1.225-.5288-2.0649-1.0645-2.5109-.5357-.452-1.3614-.6224-2.4776-.5145l-.1231-.8729,9.9156-1.3949,13.2994,12.2763-1.3423-9.5408c-.172-1.2271-.5235-2.0623-1.0465-2.5034-.5209-.4349-1.3539-.6054-2.4938-.5039l-.1247-.8925,7.728-1.0864.1231.8734c-1.1033.2038-1.8497.5956-2.2412,1.1771-.3913.5745-.5044,1.4841-.3312,2.71l2.7477,19.5441-2.6813.3769-18.1848-16.7294,2.0507,14.5802c.1714,1.2265.5218,2.0643,1.0523,2.5109.5288.4449,1.3602.6164,2.4895.5172l.1233.8744-7.7275,1.0849-.1233-.8734c1.1044-.1918,1.851-.5773,2.2417-1.1651s.5018-1.494.3297-2.7211l-2.1393-15.2161h0ZM238.9803,342.9576c.3409,1.1905.8043,1.9714,1.3912,2.3389.5872.3675,1.4335.4211,2.539.1656l.2416.8485-13.146,3.7698-.2433-.85c1.0763-.3568,1.766-.85,2.0666-1.4792.3027-.6224.2813-1.5346-.0605-2.7244l-4.2349-14.7707c-.3409-1.1909-.8129-1.9731-1.405-2.3389-.5941-.3727-1.4346-.4278-2.5257-.1645l-.2422-.8485,13.1454-3.7709.2486.8665c-1.0827.3733-1.7729.8676-2.073,1.4777-.2978.6149-.2793,1.5211.0633,2.7122l4.2349,14.7679h0ZM261.2162,339.267l1.3428-.7174-2.1499-22.8249c-.0811-.8702.0011-1.6384.2437-2.2916.2491-.6567.632-1.1347,1.155-1.4389l-.4141-.7805-6.3472,3.3748.4141.7796c.8024-.3724,1.4475-.5475,1.9381-.5203.4917.0275.8569.2622,1.0916.7013.086.1626.1592.3521.2203.5672.0622.215.1105.472.1365.774l1.2143,12.192-9.8482-8.2877c-.2147-.2002-.3718-.3568-.4653-.4688-.1013-.1143-.1804-.2257-.2383-.3362-.2118-.3988-.2231-.7603-.0272-1.0868.1901-.3224.6202-.6638,1.2829-1.0173l.1847-.0967-.4231-.7981-11.0492,5.8755.4141.7811c.6387-.3004,1.2276-.3913,1.7575-.2776.534.1178,1.2361.5325,2.1009,1.2514l17.4659,14.646h0ZM279.5162,329.2632l-.5548-.6854c.8474-.7316,1.2881-1.4485,1.3209-2.1526.0318-.705-.3398-1.5403-1.1197-2.5019l-9.6682-11.9401c-.7788-.9637-1.5196-1.4994-2.2082-1.6056-.6908-.1116-1.4863.1682-2.3867.8362l-.5559-.6871,16.431-13.3052,4.1414,5.1167-.6625.5363c-1.3827-1.2816-2.6585-1.9257-3.8415-1.9289-1.1787-.0058-2.5794.6477-4.2057,1.9651l-2.6613,2.1541,5.9181,7.3081.3091-.2501c1.0259-.8326,1.5526-1.7437,1.5786-2.7488.02-1.0008-.4593-2.2517-1.4485-3.7464l.7004-.5666,7.2899,9.0014-.6998.5681c-1.2786-1.3061-2.4185-2.0447-3.4104-2.2236-.9924-.1817-2.0235.1656-3.0827,1.0225l-.2293.1869,4.6989,5.8017c.7339.9058,1.3185,1.3481,1.7639,1.3237.4407-.0223,1.2228-.4864,2.3373-1.3885,1.7457-1.4144,2.786-2.8591,3.1268-4.34.3409-1.4814.042-3.2431-.8931-5.2851l.7683-.6222,3.7301,6.8074-16.4863,13.3498h0ZM301.9502,293.1151l.3006-.3579c.96-1.1447,1.3539-2.2591,1.1787-3.3502-.1705-1.087-.9287-2.194-2.2672-3.3174-1.3932-1.1692-2.6405-1.7204-3.7533-1.6571-1.1136.0642-2.2221.7586-3.3302,2.0791l7.8713,6.6036h0ZM308.1869,298.3493l-5.1205-4.2965.5022-.599,12.3512,2.4813,5.736-6.8366-.6766-.5677c-.4518.4488-.953.7408-1.4977.8644-.5391.1264-1.329.0914-2.3554-.1051l-9.4723-1.7002c.6436-1.4393.8332-2.8183.5782-4.1457-.2634-1.3278-.9371-2.4502-2.0273-3.3641-1.6155-1.3571-3.3907-1.7394-5.3271-1.1447-1.9428.5904-3.9571,2.1338-6.0475,4.6256l-8.5696,10.2114.6769.5681c.7565-.8272,1.4841-1.252,2.1838-1.2754.6998-.0238,1.5238.3585,2.4768,1.1581l11.7666,9.872c.9487.7959,1.4717,1.5457,1.5753,2.2438.1036.6962-.1948,1.4841-.8867,2.365l.6766.5664,8.9392-10.6525-.6876-.5543c-.8071.9244-1.5622,1.4118-2.2661,1.4575-.7015.0423-1.5436-.3458-2.5285-1.1714v-.0004h0ZM327.7611,282.1021l-7.6803-4.2568.4376-.7878c1.9698.7592,3.9551.7704,5.9508.0195,1.9907-.7459,3.5033-2.0415,4.5217-3.8813.659-1.1883.9148-2.2979.7672-3.3418-.1422-1.0343-.6488-1.7963-1.5191-2.2788-1.338-.7414-3.7172.2027-7.144,2.8284l-.0414.0376c-.2118.1609-.5213.402-.9377.7273-2.3404,1.825-4.272,2.8419-5.798,3.0393-.6824.0819-1.3509.0654-2.0001-.0579-.6546-.1264-1.2818-.3516-1.8939-.6908-1.9439-1.0778-3.1365-2.701-3.59-4.8762-.4492-2.1732-.035-4.4097,1.2377-6.7055.6891-1.2445,1.6592-2.4067,2.908-3.4888,1.2488-1.0774,1.9019-1.6826,1.9688-1.8015.1927-.3484.2236-.65.0946-.9038-.1306-.2564-.463-.5606-.9944-.9096l.4625-.8352,6.7744,3.755-.3973.7151c-1.775-.5983-3.5059-.5543-5.2059.1429-1.7028.6886-3.017,1.8716-3.9472,3.5505-.5825,1.0519-.8129,2.0288-.6844,2.9335.1285.9038.582,1.576,1.3599,2.0082,1.1357.6277,3.0046-.0903,5.5974-2.1558l.328-.2602c1.8738-1.4738,3.2399-2.4704,4.0948-2.9992.8523-.5241,1.5955-.8629,2.2342-1.0115.9643-.2369,1.9089-.2905,2.8263-.1736.9203.1225,1.8068.4188,2.668.8957,2.067,1.1458,3.3345,2.8321,3.8022,5.0547.4688,2.2236.0309,4.5423-1.3067,6.9522-.7545,1.3625-1.7804,2.6506-3.0732,3.8586-1.2951,1.2126-1.9729,1.8731-2.0421,1.9975-.1948.352-.231.712-.1146,1.0746.1178.3626.3855.6876.8075.9759l-.4715.8496h0ZM340.4154,245.0338l-14.3444-5.5067c-1.1559-.4449-1.8922-.9731-2.2039-1.5822-.307-.6063-.2856-1.4548.0684-2.5442l-.8405-.3224-4.9008,12.7674.8236.3158c.446-1.0295.9961-1.6676,1.6508-1.9177.6494-.2538,1.5579-.1572,2.7143.2866l14.3442,5.5062c1.1565.4437,1.8967.9764,2.2125,1.5923.3218.617.3001,1.467-.0611,2.541l.8251.3154,4.8998-12.7684-.8236-.316c-.4608,1.0358-1.0135,1.6805-1.6603,1.928-.6472.2463-1.5489.148-2.7048-.2952h.0006ZM330.228,208.0865l6.0741,1.4028-.1927.83c-1.6687-.2205-2.9468-.0347-3.8239.5537-.8781.5867-1.4983,1.6667-1.8641,3.2495l-.3495,1.5176,17.724,4.091c1.2063.2793,2.1132.251,2.7184-.0772.6048-.3285,1.063-1.0433,1.3764-2.1445l.8611.1971-3.0764,13.326-.8611-.1976c.215-1.0879.1221-1.924-.2847-2.5045-.4078-.5814-1.2147-1.0098-2.4206-1.2891l-17.7255-4.0916-.3499,1.5176c-.3647,1.5816-.2802,2.8246.2532,3.7256.5331.9021,1.6015,1.6227,3.1996,2.1558l-.1991.859-6.0741-1.4011,5.0149-21.7199h0ZM343.3346,189.3755l6.9981.1227c1.237.0217,2.1174-.1939,2.6403-.6404.5241-.4475.823-1.2419.9017-2.385l.8824.0159-.239,13.6721-.8819-.0148c-.0154-1.1203-.2804-1.9184-.7991-2.3951-.5198-.4784-1.3986-.7307-2.6368-.7519l-5.5682-.0967-10.9606,5.9531c-.9345.5044-1.577.9929-1.9295,1.4601-.3445.4679-.5262,1.0285-.5389,1.6742l-.8995-.0165.2214-12.6719.9006.0159c-.0112.6511.0568,1.1214.2124,1.4204.1485.2984.3939.4503.7438.4572.1306.0021.2607-.0133.411-.0521.1418-.0393.2978-.1015.4645-.1933l8.6723-4.4717-7.9294-4.4235c-.1933-.1285-.3997-.2255-.6121-.2883-.213-.0573-.4248-.0903-.632-.094-.3913-.0079-.6975.1838-.9053.5825-.2087.3924-.3196.9721-.3317,1.7367l-.0037.1896-.9006-.0159.1195-6.8378.9.017-.0032.1896c-.0081.4492.1328.8734.422,1.2583.2888.3881.7339.7466,1.3439,1.0838l9.9374,5.4996Z" fill="#b33023" fill-rule="evenodd" stroke-width="0"/><path d="M156.9797,305.0187l-.0159-1.0853c1.9136,0,3.1311-.1068,3.6509-.3203.5134-.2118.7721-.6301.7721-1.2593v-10.6877c0-.5288-.1259-.8914-.3802-1.081-.2544-.1912-.7316-.2798-1.4363-.2798-.1646-.0006-.534.0169-1.1177.0573-.3282.0159-.6043.0292-.8197.0376v-1.0873c1.2816-.0935,2.5263-.3117,3.7337-.6451,1.2037-.3334,2.3839-.786,3.5435-1.3651l1.1819-.0006v15.0506c0,.6037.2544,1.0135.7631,1.2276.5033.2087,1.5837.3285,3.2425.3535v1.0849c-1.0662-.041-2.1361-.0686-3.2161-.0897-1.0752-.0208-2.1556-.0287-3.2425-.0287-1.4989,0-2.7806.0084-3.8352.0287-1.0544.02-1.9969.0487-2.8241.0897h0ZM180.996,297.0176c-.953.437-1.6747.9431-2.1679,1.5191-.4911.5788-.7365,1.2096-.7365,1.893,0,1.0104.4465,1.8742,1.3312,2.5868.8845.7105,1.9428,1.0647,3.1884,1.0647,1.1181,0,2.0658-.2836,2.8391-.8554.7788-.5724,1.1658-1.254,1.1658-2.0479.0006-.779-.4396-1.493-1.3134-2.143-.874-.6558-2.3103-1.3252-4.3066-2.0166v-.0006h0ZM183.4007,294.2572c.7363-.448,1.2881-.9328,1.6523-1.4548.3653-.5235.5516-1.0905.5516-1.6991,0-.7948-.3285-1.4563-.9907-1.9784-.6616-.523-1.5043-.7815-2.5161-.7815-.9223,0-1.6965.2133-2.3262.6457-.6303.4278-.9478.962-.9478,1.5961,0,.6827.3441,1.3041,1.0375,1.863.6951.5554,1.8765,1.1602,3.5394,1.8107v-.0017h0ZM178.8556,296.1866c-1.2407-.6914-2.1674-1.4022-2.7716-2.1292-.6041-.7331-.9053-1.5058-.9053-2.317,0-1.3168.6887-2.3936,2.0666-3.2245,1.3715-.832,3.1835-1.2467,5.4296-1.2467,1.9332-.0006,3.4969.3458,4.6936,1.0401,1.1926.6951,1.7909,1.6051,1.7909,2.7196,0,.7481-.3126,1.4279-.9328,2.0368-.6202.6121-1.6635,1.2456-3.1363,1.9046,1.7319.6202,2.9977,1.3365,3.8037,2.1514.8118.8129,1.2126,1.7845,1.2126,2.9123.0006,1.5949-.7294,2.8958-2.1975,3.8919-1.4618.9939-3.3907,1.4925-5.78,1.4925-2.4631-.0006-4.4334-.4359-5.9128-1.3082-1.4771-.8719-2.2194-2.0156-2.2194-3.4268,0-.9871.3973-1.851,1.1975-2.5869.7959-.7326,2.0138-1.3692,3.6613-1.9093v-.0006h0ZM192.9063,303.9121l1.6152-1.243c.5252.3718,1.0534.6468,1.5893.8279.5308.1809,1.0911.2723,1.6852.2723,1.8175-.0006,3.3264-.6578,4.5243-1.9795,1.1915-1.3162,1.7897-3.0104,1.7897-5.084v-.0742c-.7582.9536-1.5996,1.6702-2.5373,2.1434-.9377.4726-1.9651.711-3.0781.711-1.7691,0-3.1841-.4848-4.2381-1.456-1.0546-.9744-1.5833-2.2863-1.5833-3.9408,0-2.0357.72-3.6688,2.1563-4.9075,1.4399-1.2383,3.3264-1.8553,5.6684-1.8553,2.5641,0,4.5498.6945,5.9589,2.0857,1.4033,1.3906,2.1091,3.3493,2.1091,5.8836,0,1.4266-.2538,2.7636-.7689,4.0013-.514,1.2344-1.2503,2.3127-2.2088,3.2302-1.028.9532-2.1822,1.6779-3.4656,2.1627-1.2801.4853-2.6739.7284-4.1738.7284-1.0222-.0006-1.9491-.1242-2.7748-.3658-.8324-.2469-1.5848-.6249-2.2678-1.1388v-.0017h0ZM200.6823,297.1498c.9064,0,1.6476-.3036,2.2099-.9085.5617-.6095.8474-1.4033.8474-2.3813,0-1.585-.3334-2.8396-1.0014-3.7689-.667-.9259-1.5685-1.3906-2.6963-1.3906-.8787-.0009-1.5588.3377-2.0404,1.012-.481.6738-.72,1.6333-.72,2.8677,0,1.4215.3074,2.5418.9174,3.3519.6091.8103,1.4346,1.2181,2.4834,1.2181v-.0006h0ZM219.4378,295.5708c-.9281,0-1.6742.3128-2.2252.9328-.5559.6219-.832,1.4693-.832,2.5386,0,1.4841.3392,2.6898,1.012,3.6072.6732.9218,1.5301,1.3816,2.5751,1.3816.9111,0,1.6163-.3233,2.1185-.9695.5039-.6466.7519-1.5552.7519-2.7312,0-1.5185-.2969-2.6903-.8893-3.5182-.5994-.8266-1.4309-1.2413-2.5109-1.2413h0ZM227.2136,288.8334l-1.6146,1.2288c-.5145-.3632-1.0433-.6329-1.5891-.814-.541-.1815-1.1029-.2718-1.6852-.2718-1.8169-.0006-3.3319.6578-4.5297,1.9799-1.2014,1.3151-1.8004,3.0101-1.8004,5.0834l.0006.0732c.7672-.9615,1.6146-1.6858,2.5534-2.1674.9377-.4827,1.9593-.7232,3.0779-.7232,1.7581-.0006,3.1725.4891,4.2323,1.4687,1.0598.9823,1.5897,2.3034,1.5897,3.9646,0,2.0246-.7221,3.6531-2.1567,4.8875-1.4415,1.2329-3.327,1.8516-5.6686,1.8516-2.565-.0006-4.5509-.6966-5.9589-2.0868-1.405-1.3906-2.1089-3.3529-2.1089-5.8941,0-1.4282.2544-2.7566.7618-3.9822.5044-1.2265,1.2458-2.2996,2.2206-3.2249,1.0231-.9542,2.1764-1.6742,3.4596-2.1558,1.2818-.4816,2.6746-.7243,4.174-.7243,1.0231,0,1.9491.1238,2.7711.3669.8208.2463,1.5779.6251,2.2713,1.14Z" fill="#b33023" fill-rule="evenodd" stroke-width="0"/><path d="M189.4679,64.7699c68.6815,0,124.6987,56.0169,124.6987,124.6985,0,46.9191-26.1481,87.9224-64.6117,109.1993l-2.4079-4.8146c36.7034-20.3883,61.6398-59.5644,61.6398-104.3847,0-65.7183-53.6012-119.3184-119.3189-119.3184-65.7192-.0011-119.3189,53.6001-119.3189,119.3184,0,45.0263,25.1644,84.3596,62.1427,104.6672l-2.4062,4.8142c-38.7408-21.1964-65.1155-62.3551-65.1155-109.4814,0-68.6821,56.0169-124.6981,124.6979-124.6985Z" fill="#b33023" fill-rule="evenodd" stroke-width="0"/></g></svg>