<svg width="88" height="88" viewBox="0 0 88 88" fill="none" xmlns="http://www.w3.org/2000/svg">
<path d="M44 0C19.7383 0 0 19.7383 0 44C0 68.2617 19.7383 88 44 88C68.2617 88 88 68.2617 88 44C88 19.7383 68.2617 0 44 0ZM86.9237 44C86.9237 67.6683 67.6683 86.9237 44 86.9237C20.3317 86.9237 1.0749 67.6683 1.0749 44C1.0749 20.3317 20.3317 1.0749 44 1.0749C67.6683 1.0749 86.9237 20.3317 86.9237 44Z" fill="#B62537"/>
<path d="M44 1.641C20.6427 1.641 1.63963 20.6427 1.63963 44C1.63963 67.3573 20.6427 86.359 44 86.359C67.3573 86.359 86.359 67.3573 86.359 44C86.359 20.6427 67.3573 1.641 44 1.641ZM85.9566 44C85.9566 67.1349 67.1349 85.9566 44 85.9566C20.8651 85.9566 2.04477 67.1349 2.04477 44C2.04477 20.8651 20.8651 2.04477 44 2.04477C67.1349 2.04477 85.9566 20.8651 85.9566 44Z" fill="#B62537"/>
<path fill-rule="evenodd" clip-rule="evenodd" d="M30.6238 6.17935C30.5638 7.76169 32.0316 6.93096 32.966 6.85867C33.2947 6.83411 36.2493 5.6801 35.8346 6.89413C35.5768 7.64847 34.6083 7.40021 34.0095 7.46841C33.292 7.55162 32.4844 7.8108 31.8283 8.11226C31.1872 8.40554 31.6646 8.8175 32.1775 8.68927C32.6481 8.56923 33.0942 8.52695 33.5825 8.55423C34.7461 8.62243 35.9738 8.96073 36.9327 9.64004C37.4211 9.98652 38.8138 11.3642 37.9353 11.7817C37.4047 12.034 36.6749 11.2947 36.2971 10.9646C35.6859 10.4312 35.2808 9.9606 34.4774 9.70688C33.0287 9.25128 31.55 9.53364 30.4015 10.5281C29.3552 11.4352 28.5859 12.4651 28.3417 13.8346C28.2408 14.4007 27.9966 16.4332 27.0635 15.7593C26.0323 15.0145 27.5014 12.5974 27.7729 12.1677C27.9065 11.9522 28.1644 11.6671 28.4399 11.3683C28.6186 11.1733 29.021 10.7013 29.3279 10.3507C29.4943 10.1598 30.0413 9.64004 30.2596 9.46817C30.5829 9.21308 30.7179 8.75748 30.1164 8.78476C29.5489 8.80931 29.2979 9.14761 28.605 9.43816C27.9134 9.73144 26.136 11.367 25.7977 10.3985C25.3803 9.19808 28.0375 8.71519 28.7577 8.42873C28.9242 8.36189 29.1506 8.28414 29.3266 8.2173C29.4684 8.1641 29.6539 8.03997 29.6785 8.00723C29.8258 7.81216 29.9322 7.52843 29.8749 7.38657C29.729 7.03054 29.4657 6.58994 29.4643 6.21891C29.7563 5.95428 30.3142 5.93518 30.6238 6.17935Z" fill="#B62537"/>
<path fill-rule="evenodd" clip-rule="evenodd" d="M28.2775 54.7531L25.1674 53.0902L24.1348 54.8895C24.8796 55.3983 25.2397 56.1676 25.3406 57.057L30.887 60.0266L32.5853 57.0597L29.808 55.5743L38.3936 39.5871C38.4332 39.523 38.4168 39.4562 38.3363 39.4112L37.0241 38.71C36.9327 38.6678 36.874 38.6909 36.8372 38.7578L28.2775 54.7544V54.7531Z" fill="#B62537"/>
<path fill-rule="evenodd" clip-rule="evenodd" d="M33.4079 55.9999H55.963C56.4214 55.9999 56.7965 56.3777 56.7965 56.8388V62.0251C56.7965 62.4875 56.4214 62.864 55.963 62.864H33.4079C32.9482 62.864 32.5717 62.4875 32.5717 62.0251V56.8388C32.5717 56.3764 32.9482 55.9999 33.4079 55.9999ZM33.6848 56.7297H55.6084C55.8594 56.7297 56.0626 56.9343 56.0626 57.1866V61.6772C56.0626 61.9282 55.8594 62.1342 55.6084 62.1342H33.7925C33.5415 62.1342 33.3369 61.9282 33.3369 61.6772V57.0761C33.3369 56.8865 33.4938 56.731 33.6834 56.731L33.6848 56.7297Z" fill="#B62537"/>
<path fill-rule="evenodd" clip-rule="evenodd" d="M31.8965 30.3223V31.996H39.5572V30.3223H31.8965Z" fill="#B62537"/>
<path fill-rule="evenodd" clip-rule="evenodd" d="M31.8965 32.8677V34.5414H39.5572V32.8677H31.8965Z" fill="#B62537"/>
<path fill-rule="evenodd" clip-rule="evenodd" d="M31.8965 35.4144V37.0868H39.5572V35.4144H31.8965Z" fill="#B62537"/>
<path fill-rule="evenodd" clip-rule="evenodd" d="M61.3471 46.5795H61.8245C61.9582 46.5795 62.0646 46.6682 62.0646 46.7718V47.3229C62.3074 47.1865 62.4738 46.9287 62.4738 46.6327V44.3465C62.4738 44.0505 62.3074 43.7899 62.0646 43.6563V44.105C62.0646 44.2087 61.9568 44.2987 61.8245 44.2987H61.3471C61.2148 44.2987 61.1057 44.2114 61.1057 44.105V43.6563C60.8628 43.7899 60.6992 44.0505 60.6992 44.3465V46.6327C60.6992 46.9287 60.8628 47.1865 61.1057 47.3229V46.7718C61.1057 46.6668 61.2134 46.5795 61.3471 46.5795ZM30.3046 39.9896C30.0345 39.9855 29.7794 40.006 29.6403 40.2229C29.2256 40.879 29.3197 42.685 29.3197 43.4066H27.3486L26.8575 42.9251V39.6363C27.3349 38.8669 28.534 38.294 30.7465 38.2968L35.5345 38.3022C35.6845 38.3022 35.7418 38.4304 35.6968 38.5109L33.0709 43.4012L30.3046 43.4066V39.9882V39.9896ZM37.1359 44.2837H44.1255C44.3628 44.2837 44.5552 44.4774 44.5552 44.7121V45.1486C44.5552 45.3832 44.3601 45.5769 44.1255 45.5769H36.6094C37.0063 45.8961 37.4237 46.5508 37.6297 46.9519H38.2067C38.2067 46.9519 39.2953 47.5957 39.1684 48.4347C39.0402 49.2708 38.7824 49.4632 38.0144 50.107C37.2464 50.7522 35.8346 52.1695 35.2589 52.9443C34.6806 53.7164 34.6806 54.8759 35.3217 54.8759H44.5511V54.8772H53.8446C53.9346 54.8772 54.011 54.854 54.0765 54.8118C54.4748 54.558 54.4053 53.6073 53.9087 52.9443C53.3317 52.1709 51.9226 50.7522 51.1533 50.107C50.3839 49.4632 50.1288 49.2708 49.9993 48.4347C49.9488 48.095 50.0947 47.7894 50.2898 47.5425C50.2939 47.5357 50.2994 47.5289 50.3034 47.5248L50.3062 47.5234C50.3103 47.5166 50.3144 47.5139 50.3171 47.5084L50.3185 47.5043C50.3225 47.4989 50.328 47.4934 50.3307 47.4907L50.3321 47.488C50.3375 47.4825 50.343 47.4771 50.3471 47.473V47.4702C50.3539 47.4662 50.3566 47.4607 50.3621 47.4539H50.3635C50.3689 47.4484 50.373 47.4416 50.3798 47.4361V47.4348C50.3853 47.4293 50.3908 47.4211 50.3962 47.417L50.418 47.3966C50.4194 47.3925 50.4249 47.3884 50.4276 47.3829C50.6868 47.1169 50.9596 46.9546 50.9637 46.9533H51.5393C51.8531 46.2194 52.3755 45.6233 52.8884 45.1745C53.6373 44.5197 54.3589 44.1801 54.3589 44.1801H56.0272C57.4158 42.5841 59.2287 42.033 61.1084 41.7138V42.6932C60.4536 42.7532 59.9366 43.3084 59.9366 43.9755V47.0283C59.9366 47.6994 60.4536 48.2519 61.1084 48.3119V50.0156C60.4536 50.0729 59.9366 50.6295 59.9366 51.2979V54.288C59.9366 54.9973 60.5136 55.5757 61.223 55.5757H61.9528C62.6593 55.5757 63.2405 54.9973 63.2405 54.288V51.2979C63.2405 50.6295 62.7221 50.0729 62.0687 50.0156V48.3119C62.7221 48.2519 63.2405 47.6994 63.2405 47.0283V43.9755C63.2405 43.3084 62.7221 42.7532 62.0687 42.6932V41.5678C62.2992 41.5365 62.527 41.4805 62.7589 41.4505C65.1665 41.0508 65.1556 40.1533 65.1556 40.2283V38.3172H38.7155L39.8082 38.8874C39.8982 38.927 39.9568 39.032 39.8859 39.1466L37.1373 44.2824L37.1359 44.2837ZM62.066 50.9787V51.3961C62.066 51.5025 61.9582 51.5898 61.8259 51.5898H61.3471C61.2148 51.5898 61.1057 51.5025 61.1057 51.3961V50.9787C60.8628 51.1124 60.6992 51.3729 60.6992 51.6689V53.8924C60.6992 54.3261 61.0552 54.6808 61.4862 54.6808H61.6854C62.1178 54.6808 62.4738 54.3248 62.4738 53.8924V51.6689C62.4738 51.3729 62.3101 51.1151 62.066 50.9787ZM38.0335 52.2132H51.0264C51.2624 52.2132 51.4575 52.4082 51.4575 52.6429V53.0794C51.4575 53.3154 51.2624 53.5091 51.0264 53.5091H38.0335C37.7961 53.5091 37.6038 53.3154 37.6038 53.0794V52.6429C37.6038 52.4082 37.7961 52.2132 38.0335 52.2132ZM40.3156 49.4072H48.7443C48.9803 49.4072 49.174 49.6037 49.174 49.8383V50.2748C49.174 50.5108 48.9803 50.7045 48.7443 50.7045H40.3156C40.081 50.7045 39.8845 50.5108 39.8845 50.2748V49.8383C39.8845 49.6037 40.0782 49.4072 40.3156 49.4072ZM40.6375 46.765H48.4224C48.657 46.765 48.8521 46.9601 48.8521 47.1947V47.6312C48.8521 47.8658 48.657 48.0595 48.4224 48.0595H40.6375C40.4043 48.0595 40.2092 47.8672 40.2092 47.6312V47.1947C40.2092 46.9587 40.4015 46.765 40.6375 46.765ZM47.3993 44.2837H50.8914C51.1274 44.2837 51.3197 44.4774 51.3197 44.7121V45.1486C51.3197 45.3832 51.1246 45.5769 50.8914 45.5769H47.3993C47.1715 45.5769 46.971 45.3832 46.971 45.1486V44.7121C46.971 44.4747 47.1647 44.2837 47.3993 44.2837Z" fill="#B62537"/>
<path fill-rule="evenodd" clip-rule="evenodd" d="M40.1751 30.3223V31.996H41.4955V30.3223H40.1751Z" fill="#B62537"/>
<path fill-rule="evenodd" clip-rule="evenodd" d="M32.8963 28.7973C35.2385 28.669 37.7716 27.8819 39.98 26.762L40.6675 28.283C38.2367 29.452 35.5004 30.2323 33.296 30.3428L32.8963 28.7973Z" fill="#B62537"/>
<path fill-rule="evenodd" clip-rule="evenodd" d="M42.4518 27.4045L41.7602 25.9095V25.9081L40.5611 26.4865L41.2486 27.9883L42.4518 27.4045Z" fill="#B62537"/>
<path fill-rule="evenodd" clip-rule="evenodd" d="M40.1751 32.8677V34.5414H41.4955V32.8677H40.1751Z" fill="#B62537"/>
<path fill-rule="evenodd" clip-rule="evenodd" d="M40.1751 35.4144V37.0868H41.4955V35.4144H40.1751Z" fill="#B62537"/>
<path fill-rule="evenodd" clip-rule="evenodd" d="M49.5136 27.871L51.9363 26.5342L57.0311 35.7814L54.6099 37.1155L49.5136 27.871ZM51.0551 29.1519L52.1422 28.5435L52.4369 29.0564L51.3483 29.6634L51.0551 29.1519ZM51.6744 30.265L52.7643 29.658L53.0589 30.1695L51.9676 30.7752L51.6744 30.265Z" fill="#B62537"/>
<path fill-rule="evenodd" clip-rule="evenodd" d="M46.6613 25.3325H49.5737V37.1059H46.6613V25.3325ZM42.4477 24.2467H45.7065V37.1073H42.4477V24.2467ZM43.453 25.9081H44.6998V26.4892H43.453V25.9081ZM43.453 27.1849H44.6998V27.766H43.453V27.1849ZM43.453 28.4603H44.6998V29.0414H43.453V28.4603ZM43.453 29.7357H44.6998V30.3168H43.453V29.7357ZM47.4934 27.1849H48.7416V27.766H47.4934V27.1849ZM47.4934 28.4603H48.7416V29.0414H47.4934V28.4603ZM47.4934 29.7357H48.7416V30.3168H47.4934V29.7357Z" fill="#B62537"/>
<path fill-rule="evenodd" clip-rule="evenodd" d="M43.9918 69.0296C30.2023 69.0296 18.9745 57.795 18.9745 44.015C18.9745 30.22 30.2023 18.9854 43.9918 18.9854C57.7814 18.9854 69.0255 30.22 69.0255 44.015C69.0255 57.795 57.7814 69.0296 43.9918 69.0296ZM74.4751 43.1925L72.0852 42.8828C71.9911 42.8678 71.9283 42.8364 71.8669 42.7587C71.8506 42.3699 71.8356 41.9825 71.8056 41.6101C71.8356 41.5324 71.8983 41.486 71.9911 41.471L74.3209 40.849C74.3523 40.834 74.3973 40.819 74.3973 40.7248C74.3673 40.5229 74.3523 40.291 74.3059 40.0278V39.9964C74.2732 39.7468 74.2432 39.5149 74.2118 39.313C74.1968 39.2202 74.1504 39.2202 74.1027 39.2202H71.6951C71.6037 39.2202 71.5259 39.1889 71.4782 39.1275C71.4004 38.7551 71.3227 38.3827 71.2449 37.9939C71.2776 37.9162 71.3227 37.8712 71.4154 37.8398L73.6525 36.9081C73.6839 36.8931 73.7303 36.8767 73.6989 36.784C73.6525 36.5821 73.6061 36.3652 73.5284 36.1169V36.0856C73.4506 35.8373 73.3879 35.6054 73.3415 35.4035C73.3101 35.3258 73.2651 35.3258 73.2174 35.3258L70.8261 35.6518C70.7334 35.6668 70.672 35.6518 70.5929 35.589C70.4851 35.2166 70.361 34.8606 70.2205 34.5032C70.2519 34.4105 70.2982 34.3477 70.376 34.3013L72.4726 33.1064C72.504 33.09 72.5353 33.06 72.504 32.9823C72.4426 32.7804 72.3485 32.5635 72.2557 32.3302L72.2393 32.3152V32.3002C72.1316 32.0506 72.0388 31.8487 71.9597 31.6482C71.9283 31.5704 71.8819 31.5854 71.8356 31.5854L69.5071 32.2225C69.4129 32.2525 69.3352 32.2375 69.2574 32.1761C69.1019 31.8337 68.9314 31.5077 68.7609 31.183C68.7609 31.0739 68.8073 31.0112 68.8864 30.9498L70.7961 29.4916C70.8261 29.4588 70.8575 29.4288 70.8261 29.3511C70.7184 29.1656 70.6092 28.9637 70.4851 28.7454C70.4851 28.7454 70.4851 28.7304 70.4701 28.7304V28.7154C70.3296 28.4821 70.2205 28.2803 70.1127 28.1097C70.0663 28.032 70.0186 28.0484 69.9722 28.0634L67.7515 28.995C67.6574 29.0414 67.581 29.025 67.4882 28.9787C67.285 28.6677 67.0844 28.373 66.8812 28.0784C66.8498 27.9692 66.8812 27.8929 66.959 27.8151L68.6668 26.1086C68.6995 26.0773 68.7295 26.0459 68.6832 25.9681C68.5604 25.8126 68.4199 25.6271 68.2644 25.4102H68.2494V25.3939H68.2344C68.0775 25.177 67.9384 25.0064 67.8142 24.8359C67.7515 24.7732 67.7051 24.7882 67.6737 24.8196L65.5921 26.0145C65.4994 26.0773 65.4066 26.0773 65.3139 26.0309C65.0806 25.7662 64.8473 25.488 64.5991 25.2247C64.5677 25.1306 64.5827 25.0378 64.6455 24.9601L66.1214 23.0517C66.1514 23.0203 66.1678 22.974 66.105 22.9112C65.9659 22.7557 65.8104 22.5866 65.6235 22.4147V22.3997H65.6085V22.3847H65.5921C65.4216 22.1978 65.2511 22.0423 65.097 21.9032C65.0342 21.8404 64.9878 21.8718 64.9565 21.8868L63.0467 23.3614C62.969 23.4227 62.8749 23.4391 62.7821 23.4077C62.5188 23.1745 62.2392 22.9262 61.9732 22.7093C61.9282 22.6002 61.9282 22.5238 61.9909 22.4311L63.2009 20.3358C63.2173 20.3044 63.2323 20.2581 63.1709 20.2117C62.999 20.0725 62.8285 19.932 62.6116 19.7765V19.7615H62.5952V19.7465C62.3783 19.591 62.1915 19.4519 62.0373 19.3264C61.9596 19.28 61.9282 19.3114 61.8968 19.3428L60.189 21.0492C60.1112 21.127 60.0335 21.1584 59.9407 21.142C59.6297 20.9251 59.3351 20.7232 59.0241 20.5213C58.9777 20.4436 58.9627 20.3508 59.0091 20.2581L59.9407 18.0387C59.9557 17.9923 59.9721 17.9459 59.893 17.8996C59.7225 17.7904 59.5206 17.6827 59.2887 17.5422H59.2737C59.2737 17.5422 59.2737 17.5272 59.2587 17.5272C59.0404 17.403 58.8372 17.2939 58.6517 17.1848C58.5739 17.1548 58.5425 17.1848 58.5125 17.2161L57.053 19.1259C56.9902 19.2186 56.9275 19.25 56.8197 19.25C56.4937 19.0781 56.1663 18.9076 55.8253 18.7535C55.7625 18.6757 55.7475 18.598 55.7789 18.5052L56.4159 16.1767C56.4159 16.1453 56.4309 16.084 56.3532 16.0526C56.1513 15.9748 55.9494 15.8821 55.7011 15.7729H55.6698C55.4365 15.6652 55.2196 15.5874 55.0177 15.5097C54.9413 15.4783 54.9086 15.5247 54.8936 15.5561L53.6987 17.6349C53.6509 17.729 53.5882 17.7754 53.4954 17.7904C53.138 17.6513 52.782 17.5272 52.4082 17.418C52.3469 17.3553 52.3305 17.2789 52.3468 17.1848L52.6729 14.7963C52.6729 14.7485 52.6729 14.7035 52.5951 14.6871C52.3932 14.6257 52.16 14.563 51.9117 14.5016V14.4852H51.8817C51.6321 14.4239 51.4138 14.3611 51.2119 14.3147C51.1192 14.2997 51.1042 14.3297 51.0892 14.3775L50.1561 16.5968C50.1261 16.6882 50.0797 16.736 50.002 16.766C49.6146 16.6882 49.2408 16.6119 48.8684 16.5341C48.807 16.4877 48.7743 16.41 48.7743 16.3158V13.911C48.7743 13.8796 48.7743 13.8182 48.6815 13.8182C48.4797 13.7718 48.2464 13.7405 47.9981 13.7091H47.9681C47.7035 13.6791 47.4702 13.6477 47.2684 13.6327C47.1756 13.6163 47.1592 13.6627 47.1592 13.6941L46.5236 16.0212C46.5072 16.114 46.4608 16.1767 46.3831 16.2231C46.012 16.1917 45.6219 16.1617 45.2331 16.1453C45.1718 16.099 45.1254 16.0212 45.1254 15.9284L44.8144 13.5386C44.7994 13.5072 44.783 13.4608 44.7066 13.4608C44.5961 13.4458 44.4883 13.4458 44.3642 13.4458H43.6058C43.4816 13.4458 43.3725 13.4458 43.2648 13.4608C43.187 13.4608 43.1706 13.5072 43.1706 13.5386L42.8583 15.9284C42.8433 16.0212 42.8105 16.099 42.7341 16.1453C42.3454 16.1617 41.9716 16.1917 41.5842 16.2231C41.5228 16.1767 41.4764 16.114 41.4601 16.0212L40.8394 13.6941C40.823 13.6627 40.808 13.6163 40.7303 13.6327C40.5134 13.6477 40.2801 13.6791 40.0319 13.7091H40.0005C39.7372 13.7405 39.504 13.7718 39.3021 13.8182C39.2243 13.8182 39.2093 13.8796 39.2093 13.911V16.3158C39.2243 16.41 39.1943 16.4877 39.1302 16.5341C38.7428 16.6119 38.3704 16.6882 37.998 16.766C37.9039 16.736 37.8575 16.6882 37.8275 16.5968L36.9108 14.3775C36.8958 14.3297 36.8631 14.2997 36.7867 14.3147C36.5835 14.3611 36.3516 14.4239 36.1033 14.4852H36.0869C36.0719 14.4852 36.0719 14.4852 36.0719 14.5016C35.8237 14.563 35.5904 14.6257 35.4035 14.6871C35.3108 14.7035 35.3271 14.7485 35.3271 14.7963L35.6368 17.1848C35.6531 17.2789 35.6368 17.3553 35.5754 17.418C35.218 17.5272 34.8456 17.6513 34.4882 17.7904C34.4105 17.7754 34.3477 17.729 34.3013 17.6349L33.09 15.5561C33.075 15.5247 33.0436 15.4783 32.9659 15.5097C32.764 15.5874 32.5621 15.6652 32.3139 15.7729H32.2825C32.0492 15.8821 31.8323 15.9748 31.6455 16.0526C31.5691 16.084 31.5691 16.1453 31.5841 16.1767L32.2047 18.5052C32.2361 18.598 32.2211 18.6757 32.1747 18.7535C31.8323 18.9076 31.4913 19.0781 31.1653 19.25C31.0725 19.25 30.9948 19.2186 30.932 19.1259L29.4875 17.2161C29.4561 17.1848 29.4261 17.1548 29.3483 17.1848C29.1765 17.2939 28.9596 17.403 28.7427 17.5272V17.5422H28.7113C28.4931 17.6827 28.2925 17.7904 28.1057 17.8996C28.0429 17.9459 28.0593 17.9923 28.0743 18.0387L28.9909 20.2581C29.0373 20.3508 29.0373 20.4436 28.9746 20.5213C28.6799 20.7232 28.3689 20.9251 28.0743 21.142C27.9665 21.1584 27.8874 21.127 27.811 21.0492L26.1182 19.3428C26.0868 19.3114 26.0404 19.28 25.9777 19.3264C25.8072 19.4519 25.6203 19.591 25.4184 19.7465L25.4034 19.7615H25.387V19.7765C25.1865 19.932 24.9996 20.0725 24.8441 20.2117C24.7677 20.2581 24.7977 20.3044 24.8127 20.3358L26.0241 22.4311C26.0718 22.5238 26.0868 22.6002 26.0404 22.7093C25.7608 22.9262 25.4962 23.1745 25.2329 23.4077C25.1238 23.4391 25.031 23.4227 24.9532 23.3614L23.0435 21.8868C23.0122 21.8718 22.9658 21.8404 22.903 21.9032C22.7475 22.0423 22.592 22.1978 22.4065 22.3847L22.3915 22.3997C22.3915 22.3997 22.3915 22.4147 22.3751 22.4147C22.2046 22.5866 22.0341 22.7557 21.8936 22.9112C21.8309 22.974 21.8636 23.0203 21.8786 23.0517L23.3532 24.9601C23.4159 25.0378 23.4309 25.1306 23.3996 25.2247C23.1677 25.488 22.933 25.7662 22.7011 26.0309C22.592 26.0773 22.5143 26.0773 22.4215 26.0145L20.3249 24.8196C20.2949 24.7882 20.2485 24.7732 20.2008 24.8359C20.0616 25.0064 19.9211 25.177 19.7656 25.3939H19.7506V25.4102C19.5801 25.6271 19.4396 25.8126 19.3305 25.9681C19.2691 26.0459 19.3005 26.0773 19.3305 26.1086L21.0397 27.8151C21.1174 27.8929 21.1488 27.9692 21.1324 28.0784C20.9155 28.373 20.7137 28.6677 20.5118 28.9787C20.434 29.025 20.3413 29.0414 20.2485 28.995L18.0264 28.0634C17.9964 28.0484 17.95 28.032 17.9023 28.1097C17.7932 28.2803 17.6704 28.4821 17.5449 28.7154H17.5299V28.7454C17.3907 28.9637 17.2816 29.1656 17.1889 29.3511C17.1411 29.4288 17.1725 29.4588 17.2039 29.4916L19.1286 30.9498C19.2077 31.0112 19.2391 31.0739 19.2391 31.183C19.0672 31.5077 18.9131 31.8337 18.7412 32.1761C18.6634 32.2375 18.5857 32.2525 18.4929 32.2225L16.1631 31.5854C16.1331 31.5854 16.0853 31.5704 16.0389 31.6482C15.9612 31.8487 15.8684 32.0506 15.7743 32.3002H15.7593V32.3302C15.6515 32.5635 15.5738 32.7804 15.496 32.9823C15.4647 33.06 15.511 33.09 15.5424 33.1064L17.6226 34.3013C17.7168 34.3477 17.7631 34.4105 17.7781 34.5032C17.639 34.8606 17.5299 35.2166 17.4058 35.589C17.3444 35.6518 17.2666 35.6668 17.1725 35.6518L14.7812 35.3258C14.7499 35.3258 14.6885 35.3258 14.6721 35.4035C14.6107 35.6054 14.548 35.8373 14.4866 36.0856H14.4716V36.1169C14.4089 36.3652 14.3461 36.5821 14.2997 36.784C14.2847 36.8767 14.3311 36.8931 14.3625 36.9081L16.5818 37.8398C16.676 37.8712 16.7223 37.9162 16.7537 37.9939C16.676 38.3827 16.5982 38.7551 16.5368 39.1275C16.4741 39.2052 16.3963 39.2202 16.3036 39.2202H13.8973C13.8646 39.2202 13.8182 39.2202 13.8032 39.313C13.7718 39.5149 13.7254 39.7468 13.6941 39.9964V40.0278C13.6627 40.291 13.6327 40.5229 13.6163 40.7248C13.6013 40.819 13.6477 40.834 13.6791 40.849L16.0089 41.471C16.1017 41.486 16.1631 41.5324 16.2108 41.6101C16.1794 41.9825 16.1481 42.3699 16.1331 42.7587C16.0853 42.8364 16.0239 42.8678 15.9148 42.8828L13.5236 43.1925C13.4922 43.1925 13.4458 43.2088 13.4458 43.2866C13.4308 43.5035 13.4308 43.7367 13.4308 43.9836V44.03C13.4308 44.2783 13.4308 44.5115 13.4458 44.7284C13.4458 44.8062 13.4922 44.8225 13.5236 44.8225L15.9148 45.1322C16.0239 45.1486 16.0853 45.1786 16.1331 45.2577C16.1481 45.6437 16.1794 46.0175 16.2108 46.4049C16.1631 46.4826 16.1017 46.529 16.0089 46.544L13.6791 47.1647C13.6477 47.1811 13.6013 47.1961 13.6163 47.2888C13.6327 47.4907 13.6627 47.724 13.6941 47.9722V48.0186C13.7254 48.2669 13.7555 48.5001 13.8032 48.702C13.8032 48.7948 13.8646 48.7948 13.8973 48.7948H16.3036C16.3963 48.7948 16.4741 48.8098 16.5368 48.8712C16.5982 49.2599 16.676 49.6323 16.7537 50.0211C16.7223 50.0975 16.676 50.1452 16.5818 50.1752L14.3625 51.1069C14.3161 51.1233 14.2847 51.1369 14.2997 51.231C14.3461 51.4165 14.4089 51.6498 14.4716 51.8981V51.9294H14.4866C14.548 52.1777 14.6107 52.411 14.6721 52.6115C14.6885 52.6892 14.7499 52.6892 14.7812 52.6892L17.1725 52.3632C17.2666 52.3482 17.3444 52.3632 17.4058 52.426C17.5149 52.7984 17.639 53.1558 17.7781 53.5118C17.7631 53.6045 17.7168 53.6673 17.6226 53.6987L15.5424 54.9086C15.511 54.9236 15.4647 54.955 15.496 55.0327C15.5738 55.2346 15.6515 55.4515 15.7593 55.6848V55.7148C15.8684 55.9644 15.9612 56.1649 16.0389 56.3668C16.0703 56.4296 16.1331 56.4296 16.1631 56.4146L18.4929 55.7939C18.5857 55.7625 18.6634 55.7775 18.7412 55.8403C18.8967 56.1663 19.0672 56.5073 19.2391 56.8333C19.2391 56.9411 19.2077 57.0038 19.1136 57.0666L17.2039 58.5248C17.1725 58.5562 17.1411 58.5862 17.1725 58.6639C17.2816 58.8508 17.3907 59.0513 17.5149 59.2696C17.5299 59.2696 17.5299 59.2846 17.5299 59.2846V59.301H17.5449C17.6704 59.5329 17.7932 59.7347 17.9023 59.9053C17.9337 59.968 17.98 59.968 18.0264 59.9516L20.2485 59.02C20.3413 58.9736 20.434 58.99 20.5118 59.0363C20.7137 59.3473 20.9155 59.642 21.1324 59.9366C21.1488 60.0458 21.1174 60.1235 21.0397 60.2013L19.3305 61.9077C19.3005 61.9391 19.2691 61.9691 19.3305 62.0469C19.4396 62.2024 19.5801 62.3879 19.7356 62.6062H19.7506V62.6212H19.7656C19.9211 62.838 20.0616 63.0086 20.2008 63.1791C20.2485 63.2418 20.2949 63.2254 20.3249 63.1954L22.4215 62.0005C22.5143 61.9391 22.592 61.9391 22.7011 61.9841C22.933 62.2488 23.1677 62.5284 23.3996 62.7917C23.4309 62.8844 23.4159 62.9785 23.3532 63.0563L21.8786 64.9633C21.8636 64.996 21.8309 65.0424 21.8936 65.1038C22.0341 65.2593 22.1882 65.4298 22.3751 65.6003C22.3751 65.6003 22.3751 65.6153 22.3915 65.6153V65.6303H22.4065C22.592 65.8172 22.7475 65.9727 22.903 66.1119C22.9658 66.1746 23.0122 66.1432 23.0435 66.1282L24.9532 64.6536C25.031 64.5909 25.1238 64.5759 25.2165 64.6073C25.4811 64.8405 25.7608 65.0888 26.0241 65.3057C26.0718 65.4134 26.0718 65.5062 26.0091 65.5853L24.8127 67.6792C24.7814 67.7106 24.7677 67.7569 24.8278 67.8197C24.9996 67.9438 25.1865 68.083 25.387 68.2385V68.2548H25.4034V68.2685C25.6203 68.424 25.8072 68.5645 25.9777 68.6886C26.0404 68.735 26.0718 68.7036 26.1018 68.6736L27.811 66.9658C27.8874 66.888 27.9665 66.8566 28.0743 66.873C28.3689 67.0899 28.6649 67.2918 28.9746 67.4937C29.021 67.5701 29.0373 67.6642 28.9909 67.7569L28.0593 69.9763C28.0429 70.0227 28.0429 70.0691 28.1057 70.1155C28.2762 70.2259 28.478 70.3323 28.7113 70.4728H28.7263C28.7263 70.4879 28.7427 70.4878 28.7427 70.4878C28.9596 70.6133 29.1615 70.7211 29.3483 70.8302C29.4261 70.8616 29.4561 70.8302 29.4875 70.7989L30.932 68.8891C30.9948 68.7977 31.0562 68.765 31.1653 68.765C31.4913 68.9369 31.8323 69.1074 32.1584 69.2629C32.2211 69.3393 32.2361 69.4184 32.2047 69.5112L31.5841 71.8233C31.5691 71.8697 31.5691 71.916 31.6455 71.9474C31.8323 72.0252 32.0342 72.1179 32.2825 72.2271H32.2989C32.3139 72.2271 32.3139 72.2271 32.3139 72.2421C32.5471 72.3348 32.764 72.4276 32.9659 72.489C33.0436 72.5217 33.075 72.489 33.09 72.4439L34.3013 70.3801C34.3327 70.2873 34.3941 70.2396 34.4882 70.2259C34.8456 70.3651 35.2016 70.4879 35.5754 70.597C35.6368 70.6584 35.6531 70.7375 35.6368 70.8302L35.3108 73.2051C35.3108 73.2515 35.3108 73.2965 35.3885 73.3129C35.5904 73.3743 35.8237 73.437 36.0719 73.5134H36.1033C36.3516 73.5911 36.5835 73.6389 36.7703 73.6853C36.8631 73.7166 36.8795 73.6703 36.8958 73.6389L37.8275 71.4032C37.8575 71.3254 37.9039 71.2804 37.983 71.249C38.3704 71.3254 38.7428 71.4031 39.1302 71.4659C39.1943 71.5123 39.2093 71.59 39.2093 71.6828V74.089C39.2093 74.1341 39.2093 74.1818 39.3021 74.1968C39.504 74.2282 39.7372 74.2596 39.9855 74.2896H40.0319C40.2801 74.3373 40.5134 74.3523 40.7153 74.3837C40.808 74.3837 40.823 74.3359 40.8394 74.3059L41.4601 71.9774C41.4764 71.8847 41.5228 71.8233 41.5842 71.7919C41.958 71.8233 42.3454 71.8383 42.7341 71.8533C42.8105 71.916 42.8433 71.9774 42.8583 72.0716L43.1679 74.4614C43.1679 74.4914 43.1843 74.5378 43.262 74.5542H44.7039C44.7816 74.5378 44.7966 74.4914 44.8116 74.4614L45.1226 72.0716C45.1226 71.9774 45.169 71.916 45.2318 71.8533C45.6192 71.8383 46.0093 71.8233 46.3803 71.7919C46.4594 71.8233 46.5045 71.8847 46.5358 71.9774L47.1579 74.3059C47.1579 74.3359 47.1892 74.3837 47.2656 74.3837C47.4689 74.3523 47.7008 74.3359 47.9654 74.2896H47.9954C48.26 74.2596 48.4783 74.2282 48.6952 74.1968C48.7716 74.1818 48.7716 74.1354 48.7716 74.089V71.6828C48.7716 71.59 48.8043 71.5123 48.8657 71.4659C49.2381 71.4031 49.6255 71.3254 49.9993 71.249C50.077 71.2804 50.1384 71.3254 50.1698 71.4032L51.0864 73.6389C51.1014 73.6703 51.1328 73.7166 51.2106 73.6853C51.4111 73.6389 51.6293 73.5911 51.8926 73.5134H51.9253C52.1736 73.437 52.3905 73.3743 52.5938 73.3129C52.6701 73.2965 52.6701 73.2515 52.6701 73.2051L52.3441 70.8302C52.3278 70.7375 52.3591 70.6584 52.4069 70.597C52.7793 70.4879 53.1353 70.3651 53.494 70.2259C53.5868 70.2396 53.6482 70.2873 53.6959 70.3801L54.8909 72.4439C54.9222 72.489 54.9536 72.5217 55.0314 72.489C55.2169 72.4276 55.4338 72.3348 55.6834 72.2421V72.2271H55.6984C55.9467 72.1179 56.1649 72.0252 56.3504 71.9474C56.4282 71.916 56.4132 71.8697 56.4132 71.8233L55.7762 69.5112C55.7598 69.4184 55.7598 69.3393 55.8225 69.2629C56.1636 69.1074 56.4909 68.9369 56.832 68.765C56.9247 68.765 57.0038 68.7977 57.0502 68.8891L58.5248 70.7989C58.5398 70.8302 58.5876 70.8616 58.6489 70.8302C58.8344 70.7211 59.0363 70.6133 59.271 70.4878V70.4728H59.286C59.5179 70.3323 59.7197 70.2259 59.8903 70.1155C59.9694 70.0691 59.953 70.0227 59.938 69.9763L59.0241 67.7569C58.9777 67.6642 58.9777 67.5701 59.0241 67.4937C59.3351 67.2918 59.6447 67.0899 59.9407 66.873C60.0335 66.8566 60.1262 66.888 60.189 66.9658L61.8968 68.6736C61.9282 68.7036 61.9596 68.735 62.0373 68.6886C62.2078 68.5645 62.3934 68.424 62.5952 68.2685V68.2548H62.6116C62.6116 68.2548 62.6116 68.2385 62.6266 68.2385C62.8285 68.083 63.0154 67.9438 63.1709 67.8197C63.2323 67.7569 63.2173 67.7106 63.2023 67.6792L61.9909 65.584C61.9282 65.5062 61.9282 65.4134 61.9732 65.3057C62.2542 65.0888 62.5175 64.8405 62.7821 64.6073C62.8899 64.5759 62.969 64.5909 63.0618 64.6536L64.9715 66.1282C65.0028 66.1432 65.0342 66.1746 65.097 66.1119C65.2511 65.9727 65.4216 65.8172 65.6085 65.6303V65.6153H65.6235V65.6003C65.8104 65.4298 65.9809 65.2593 66.1214 65.1038C66.1678 65.0424 66.1514 64.996 66.1214 64.9633L64.6605 63.0563C64.5827 62.9785 64.5677 62.8844 64.5991 62.7917C64.8473 62.5284 65.0792 62.2488 65.3139 61.9841C65.4066 61.9377 65.498 61.9377 65.5921 62.0005L67.6737 63.1954C67.7051 63.2254 67.7515 63.2418 67.8142 63.1791C67.9384 63.0086 68.0775 62.838 68.248 62.6212V62.6062H68.2644C68.4185 62.3879 68.559 62.2024 68.6832 62.0469C68.7295 61.9691 68.6982 61.9377 68.6668 61.9077L66.959 60.1999C66.8812 60.1235 66.8662 60.0458 66.8812 59.9366C67.0831 59.642 67.285 59.3473 67.4869 59.0363C67.5796 58.99 67.6574 58.9736 67.7501 59.02L69.9872 59.9516C70.0186 59.9666 70.065 59.9666 70.1114 59.9053C70.2205 59.7347 70.3296 59.5329 70.4688 59.301V59.2846H70.4838V59.2696C70.6079 59.0513 70.7334 58.8495 70.8261 58.6639C70.8725 58.5862 70.8261 58.5562 70.7948 58.5248L68.885 57.0652C68.8059 57.0038 68.7609 56.9411 68.7609 56.8333C68.9301 56.5073 69.1019 56.1649 69.2561 55.8389C69.3338 55.7775 69.4129 55.7625 69.5057 55.7939L71.8356 56.4132C71.8819 56.4296 71.9283 56.4296 71.9597 56.3668C72.0525 56.1649 72.1452 55.9644 72.238 55.7148V55.6998L72.2543 55.6834C72.3471 55.4515 72.4412 55.2346 72.5026 55.0327C72.534 54.955 72.5026 54.9236 72.4712 54.9072L70.3746 53.6987C70.2969 53.6673 70.2505 53.6045 70.2355 53.5118C70.3596 53.1558 70.4838 52.7984 70.5929 52.426C70.6706 52.3632 70.732 52.3482 70.8248 52.3632L73.216 52.6892C73.2638 52.6892 73.3102 52.6892 73.3402 52.6115C73.3879 52.411 73.4506 52.1777 73.527 51.9294V51.8981C73.6048 51.6498 73.6512 51.4165 73.6989 51.231C73.7289 51.1369 73.6825 51.1219 73.6512 51.1069L71.4154 50.1752C71.3227 50.1438 71.2763 50.0975 71.2436 50.0211C71.3377 49.6323 71.3991 49.2599 71.4768 48.8712C71.5246 48.8098 71.6023 48.7948 71.6937 48.7948H74.1013C74.1491 48.7948 74.1954 48.7948 74.2104 48.702C74.2418 48.5001 74.2732 48.2669 74.3046 48.0186V47.9722C74.3509 47.724 74.366 47.4907 74.3973 47.2888C74.3973 47.1961 74.3509 47.1811 74.3196 47.1647L71.9897 46.544C71.8983 46.529 71.8356 46.4826 71.8042 46.4049C71.8342 46.0161 71.8492 45.6437 71.8656 45.2577C71.9283 45.1786 71.9897 45.1486 72.0838 45.1322L74.4737 44.8225C74.5051 44.8225 74.5515 44.8062 74.5678 44.7284V43.2852C74.5515 43.2088 74.5051 43.1925 74.4737 43.1925H74.4751Z" fill="#B62537"/>
<path fill-rule="evenodd" clip-rule="evenodd" d="M41.7452 60.3513C41.7452 60.4618 41.6442 60.5546 41.5228 60.5546H39.3294C39.2066 60.5546 39.1084 60.4632 39.1084 60.3513V59.908C39.1084 59.7961 39.2066 59.7061 39.3294 59.7061H41.5228C41.6469 59.7061 41.7452 59.7961 41.7452 59.908V60.3513ZM39.1438 58.4716C39.1438 58.3611 39.2434 58.2697 39.3662 58.2697H41.486C41.6101 58.2697 41.7111 58.3611 41.7111 58.4716V58.9027C41.7111 59.0131 41.6101 59.1045 41.486 59.1045H39.3662C39.2434 59.1045 39.1438 59.0131 39.1438 58.9027V58.4716ZM42.4654 59.3951L42.4368 59.3828L42.3631 59.3555L42.434 59.3214L42.4613 59.3092C42.6359 59.2246 42.7478 59.0377 42.7478 58.8331V58.1756C42.7478 57.8987 42.4927 57.6559 42.2035 57.6559H38.6064C38.3213 57.6559 38.0894 57.8891 38.0894 58.1756V58.8331C38.0894 59.0363 38.2013 59.2232 38.3745 59.3092L38.4018 59.3228L38.4714 59.3555L38.3991 59.3842L38.3704 59.3951C38.174 59.4674 38.043 59.6665 38.043 59.8875V60.65C38.043 60.9365 38.2586 61.1698 38.5232 61.1698H42.314C42.5786 61.1698 42.7955 60.9365 42.7955 60.65V59.8875C42.7955 59.6665 42.6632 59.4674 42.4654 59.3951Z" fill="#B62537"/>
<path fill-rule="evenodd" clip-rule="evenodd" d="M36.638 61.167H35.5249V58.5193C35.5222 58.417 35.439 58.4129 35.3994 58.4116C35.3435 58.4116 35.2808 58.4252 35.2207 58.4375L34.3927 58.6312V57.9955L35.2671 57.7746C35.3053 57.765 35.3449 57.7541 35.3831 57.7432C35.5331 57.7023 35.6886 57.66 35.8332 57.6586H36.5002C36.5903 57.66 36.638 57.7091 36.638 57.8032V61.167Z" fill="#B62537"/>
<path fill-rule="evenodd" clip-rule="evenodd" d="M11.3519 25.6844C11.0777 25.3829 11.6329 24.5126 11.9098 25.0555C11.9507 25.4197 11.6015 25.773 11.3519 25.6844ZM17.1479 21.603C16.6636 21.618 14.994 21.8622 14.6379 22.0559C13.7868 22.5169 13.4498 22.963 12.9233 23.7569C12.7091 24.0775 12.4759 24.5181 12.1076 24.1866C11.8334 23.9424 11.5674 24.3162 11.2509 24.2207C10.9072 24.1197 10.9208 23.8142 10.7871 23.5537C10.5948 23.1813 10.1487 23.5878 9.89638 23.6314C9.69586 23.4936 9.82954 22.9248 9.63038 22.7857C8.97562 22.7775 8.82966 23.184 8.97835 23.7187C9.13658 24.2821 8.61005 24.6081 8.64824 25.1455C8.8283 25.3188 9.09839 25.2629 9.28663 25.1455C9.5349 25.2547 9.62629 25.5384 9.70541 25.7703C9.83772 26.1591 10.0082 25.9504 10.3165 25.9381C11.8811 25.8699 10.7912 27.8028 10.5839 28.5585C10.472 28.9664 10.3192 29.5543 10.5416 29.9512C10.6794 30.1968 11.064 30.9415 11.1432 31.1039C11.5005 31.7123 13.2534 32.5634 12.6423 31.2348C12.244 30.3714 11.4405 29.8476 11.5947 28.8095C11.7747 27.5941 11.9984 26.7006 12.5018 25.5821C12.9165 24.6627 13.784 23.8933 14.5588 23.2863C14.9408 22.9876 15.3377 22.7393 15.8383 22.7325C16.3417 22.7257 16.8778 22.9057 17.3648 22.6943C17.5844 22.3942 17.3798 21.8322 17.1479 21.603ZM14.5152 27.5259C14.5152 27.53 14.5138 27.5327 14.5138 27.5354C14.4633 28.1997 13.8672 28.2284 13.799 28.0115C13.7486 27.8601 14.0937 27.1016 14.4347 27.2967C14.462 27.3131 14.5206 27.4195 14.5193 27.4481C14.5193 27.4645 14.5193 27.4822 14.5165 27.5C14.5165 27.5081 14.5152 27.5177 14.5152 27.5259ZM13.2984 27.1971C12.9819 26.732 13.5439 26.17 13.6708 25.713C13.7254 25.638 13.7554 25.5357 13.8863 25.5261C14.0173 25.5179 13.9109 25.5125 14.1428 25.653C14.3733 25.7935 13.6122 27.6623 13.2984 27.1971ZM15.6665 23.9274C15.6324 23.9342 15.5805 23.9915 15.571 24.0133C15.3473 24.529 15.8329 26.1741 15.0063 26.1836C14.7198 25.728 15.2245 24.7854 14.5534 24.484C14.0487 24.2548 13.6885 24.5699 13.4457 24.9887C12.9274 25.8794 12.3395 26.8902 12.4431 28.0224C12.6123 28.3225 13.0461 28.2816 13.2288 28.5639C13.1129 28.9254 12.6532 29.0209 12.7869 29.5788C12.7923 29.602 12.8537 29.6743 12.8769 29.6825C14.2478 30.2336 14.2355 28.4153 15.2245 28.5517C15.4046 28.699 15.1577 29.2733 15.4209 29.4861C16.2053 29.5693 16.6022 28.4439 16.2503 27.856C15.721 26.9721 16.1439 26.7047 16.4017 25.848C16.4726 25.2519 17.0919 24.6954 16.5777 24.0693C16.4713 23.9165 15.8656 23.8865 15.6665 23.9274ZM10.1596 22.3328C10.352 22.1991 10.4284 22.2073 10.5361 21.9781C10.6425 21.7517 10.809 21.5771 11.0736 21.5662C11.3996 21.9468 10.7244 22.5824 11.2414 22.9043C11.7515 22.9453 11.5565 22.4392 12.0666 22.4801C12.4745 23.0312 11.6779 23.2031 11.9207 23.8565C12.731 24.1266 12.9751 22.9644 12.9547 22.3969C12.9397 22.0177 12.8564 21.4516 12.555 21.1897C12.2276 20.906 11.7829 20.5322 11.3764 20.3781C10.7939 20.1557 10.4461 20.5636 10.2006 21.0383C9.96731 21.4884 9.52262 21.8895 9.55127 22.4378C9.57173 22.8157 10.0287 22.4242 10.1596 22.3328ZM10.3165 26.5437C10.2974 26.5151 10.1487 26.4673 10.1037 26.4769C9.57309 26.5887 9.5349 27.5873 9.2498 27.3854C8.96334 27.1835 9.43395 26.541 9.10112 26.2068C8.13671 25.9845 8.71235 27.178 8.06987 27.5341C7.91573 27.4836 7.80523 27.4754 7.76568 27.3308C7.72612 27.1862 8.41907 26.0336 8.18718 25.9217C7.57198 25.5207 7.5215 26.1441 7.47785 26.6174C7.46012 26.8043 7.33462 27.1207 7.31143 27.1603C6.95132 27.7796 7.43829 28.1506 8.04122 28.3893C8.5132 28.5762 9.52262 28.8845 9.88683 28.4057C10.2238 27.9637 10.6889 27.0812 10.3165 26.5437Z" fill="#B62537"/>
<path fill-rule="evenodd" clip-rule="evenodd" d="M60.4809 9.10388C60.47 9.10115 60.4127 9.05068 60.3936 9.02885C59.9639 8.52687 59.0609 8.17903 58.4034 8.13674C58.3666 8.13401 58.3011 8.11901 58.2602 8.104C58.2602 8.104 58.2179 8.07536 58.2152 8.07126C58.0815 7.92122 57.8673 7.32511 58.353 7.47925C58.8849 7.6484 58.8822 7.68659 59.2778 7.82846C59.6311 7.95395 60.2122 8.14356 60.5273 8.29225C60.5382 8.2977 60.5505 8.30316 60.5614 8.30861C60.5846 8.32089 60.6051 8.33317 60.6255 8.34272H60.6187C60.6746 8.37545 60.7278 8.41092 60.7769 8.4573C61.193 8.83652 61.047 9.25256 60.4809 9.10388ZM58.9736 10.5143C59.08 9.88004 59.8889 10.5621 59.6952 10.9836C59.6857 11.0054 59.6188 11.0395 59.6011 11.0341C59.492 11 59.4128 10.9304 59.3392 10.854C59.2314 10.7462 58.9709 10.5389 58.9736 10.5143ZM59.9612 12.36C59.8248 12.7514 58.7758 12.0558 58.7976 11.5661C58.7976 11.547 58.8236 11.5033 58.8331 11.5019C59.1591 11.4583 60.099 11.9616 59.9612 12.36ZM59.1591 14.0719C59.1414 14.0978 59.0459 14.151 59.0173 14.1537C58.4512 14.1769 57.5768 13.8809 57.5618 13.2316C57.5536 12.8619 57.8401 12.641 58.1838 12.5973C58.3079 12.5823 58.4102 12.6164 58.5044 12.6669C58.6571 12.7474 58.8208 12.8019 58.9722 12.907C59.0064 12.9288 59.0377 12.952 59.0677 12.9765C59.436 13.2821 59.4388 13.694 59.1591 14.0719ZM57.1621 11.3696C56.9998 11.296 56.42 10.9877 56.4896 10.7449C56.5605 10.5553 56.8866 10.4325 57.529 10.8636C57.555 10.8813 57.6 10.9986 57.5945 11.0409C57.5659 11.296 57.5209 11.536 57.1621 11.3696ZM56.0013 12.8947C55.6562 12.6778 55.397 12.2986 55.4788 12.1199C55.8335 11.5224 57.0939 11.6152 57.0994 12.4227C57.1021 12.9015 56.3409 13.1088 56.0013 12.8947ZM57.3763 9.92233C57.4977 9.59222 57.9969 9.77501 58.0638 10.0574C58.0692 10.0806 58.0228 10.1351 57.9997 10.1392C57.7787 10.1815 57.5877 10.1897 57.3844 10.0014C57.3763 9.99326 57.3708 9.94006 57.3763 9.92233ZM53.9333 11.3546C54.0574 11.2346 54.2634 11.09 54.6385 11.401C54.6576 11.4174 54.7067 11.5033 54.7095 11.5265C54.8595 12.6341 53.1449 12.1458 53.9333 11.3546ZM52.2514 11.9671C51.9035 11.817 52.4287 9.8323 53.078 10.2729C53.726 10.7121 52.5979 12.1171 52.2514 11.9671ZM61.8164 8.1381C60.5805 7.43833 59.3133 6.90224 57.9083 6.65398C57.2235 6.53394 56.5578 8.01806 57.248 8.41911C57.5222 8.5787 58.5971 8.53369 58.5562 8.99066V8.99202C58.5071 9.27848 57.4554 8.73557 56.6274 9.19664C56.5769 9.22528 56.5387 9.24984 56.5142 9.27166C56.2659 9.44081 56.0613 9.73818 55.8308 9.95098C55.5948 10.1692 55.2537 10.6603 54.88 10.5976C54.5812 10.5457 54.0684 10.0574 54.1011 9.9919C54.2361 9.7259 54.6181 9.89368 54.8554 9.58813C55.2865 9.03295 55.1937 8.38637 55.4379 7.77662C55.6998 7.11913 56.7583 7.30465 56.7706 6.3607C56.7761 5.97603 56.4173 5.75777 56.154 5.49996L55.8267 5.2667C55.6712 5.16985 55.0259 5.1794 55.1296 5.65819C55.1801 5.89009 55.6002 6.5353 55.1774 6.6417C54.6031 6.78493 53.8051 6.52985 53.2499 6.38798C53.153 6.36343 52.456 6.11789 52.3496 6.13426C52.2637 6.1479 52.19 6.17109 52.1436 6.21474C51.9104 6.44936 51.9295 6.86132 52.1204 7.09049C52.1232 7.09321 52.1259 7.09731 52.13 7.1014C52.1395 7.11231 52.1736 7.14096 52.19 7.14505C52.3141 7.17642 52.7684 7.20507 52.7779 7.20507C53.0385 7.20234 53.4968 7.30738 53.831 7.4547V7.45197C54.1939 7.62248 54.3944 7.75343 53.9988 7.87347C53.992 7.8762 53.9851 7.87756 53.9783 7.88029L53.9729 7.88166C53.4013 8.07672 52.3742 7.57201 51.8067 7.86119C51.7876 7.86938 51.748 7.89939 51.7399 7.91167C51.6894 7.99897 51.5325 8.32089 51.7153 8.41911C51.8872 8.5105 52.1313 8.56506 52.2719 8.57734C52.3837 8.58689 53.1094 8.57461 53.4463 8.56097C53.5459 8.55688 53.6769 8.52005 53.7082 8.50777C53.7696 8.48049 53.8365 8.45866 53.9115 8.44775C54.1529 8.41229 54.3562 8.45866 54.2457 8.75467C54.1052 9.12434 52.767 9.49401 52.4137 9.40807C52.0591 9.32486 51.6662 9.79001 51.6526 9.86095C51.5898 10.187 51.6212 10.5484 51.4698 10.8936C51.2692 11.356 50.8518 11.9903 51.0796 12.5059C51.1397 12.6737 52.1818 12.7242 53.3768 12.8919C53.4586 12.9029 53.5391 12.9165 53.6196 12.9261C54.3766 13.042 55.1719 13.2071 55.8021 13.4799C56.0463 13.5849 56.2495 13.6668 56.4173 13.7309C57.2876 14.1742 58.1838 14.7307 58.3243 14.8931C59.0159 15.6924 60.0853 17.0074 60.4959 16.4454C60.4673 15.8834 60.1454 15.4742 59.9053 14.994C59.8043 14.7894 60.0799 14.7007 60.1876 14.5602C60.5901 14.0419 60.6924 13.2521 60.8274 12.63C60.9393 12.1103 61.0143 11.5811 61.1493 11.0668C61.3048 10.4762 60.5014 10.0724 59.9735 9.92097C59.9039 9.90051 59.7798 9.76955 59.7907 9.72863C59.8876 9.30713 60.6596 9.64678 61.1384 9.95098C61.3226 10.0683 61.7973 10.041 61.8969 9.87186C62.0455 9.61678 62.1438 9.29485 62.2747 9.09024C62.5884 8.5978 62.2174 8.36591 61.8164 8.1381Z" fill="#B62537"/>
<path d="M5.46048 46.2917C5.44274 46.027 5.45229 45.4077 5.45366 44.9876C5.70738 45.0162 6.0102 45.0326 6.31849 45.0353L6.32121 45.0708C6.05522 45.405 5.8888 45.8579 5.92017 46.3421C5.94745 46.7677 6.17662 47.0324 6.54629 47.0092C6.81092 46.9914 6.96506 46.87 7.13694 46.6163C7.39339 46.2385 7.53934 45.7951 7.84217 45.3845C8.18456 44.9276 8.52694 44.8103 8.9539 44.783C9.37131 44.7543 10.198 44.9358 10.2989 46.5058C10.3194 46.7991 10.3344 47.2615 10.3194 47.653C10.0984 47.6094 9.77918 47.563 9.48317 47.5316L9.48044 47.4948C9.70552 47.2806 9.87875 47.0337 9.84192 46.484C9.80782 45.9629 9.505 45.7256 9.19808 45.746C8.82841 45.7692 8.62243 45.8347 8.19683 46.7459C7.66893 47.8849 7.32109 47.9367 6.88186 47.9654C6.35122 47.9995 5.55733 47.758 5.46048 46.2917Z" fill="#B62537"/>
<path d="M8.7288 52.4423C8.18452 52.5365 6.95003 52.7888 6.43849 52.988C6.40848 52.7097 6.38939 52.6088 6.35255 52.4069C6.32255 52.2486 6.29526 52.104 6.21069 51.7603C6.86818 51.6975 7.85032 51.5448 8.35913 51.4506C8.31002 51.1083 8.28547 50.9405 8.23772 50.6799C8.18862 50.4208 8.13542 50.1684 8.06721 49.8819C7.30469 50.032 6.64583 50.1629 5.95288 50.3744C5.92423 50.1097 5.88604 49.9079 5.86558 49.7919C5.8342 49.6255 5.80965 49.4891 5.72507 49.1522C6.37847 49.1058 7.52567 48.923 8.0413 48.8261C8.54464 48.7334 10.1966 48.4701 10.3466 48.2028L10.3739 48.1973C10.4121 48.481 10.4394 48.6638 10.4762 48.8657C10.5157 49.0758 10.5608 49.2845 10.6153 49.4986C10.1461 49.4959 9.47086 49.6214 8.59784 49.7837C8.64422 50.1561 8.67287 50.3075 8.72334 50.5749C8.77108 50.8354 8.79427 50.9582 8.88976 51.3511C9.9401 51.1492 10.4244 51.0728 10.8363 50.8027L10.8595 50.8054C10.8813 51.0401 10.9127 51.2065 10.9618 51.4738C11 51.6757 11.0559 51.9417 11.1023 52.1122C10.4816 52.1463 9.3631 52.3318 8.7288 52.4423Z" fill="#B62537"/>
<path d="M10.8472 54.6399L10.8377 54.6112C10.2307 54.603 9.70412 54.6112 9.14348 54.6331C9.18713 54.8118 9.22396 54.9468 9.27716 55.1078C9.35218 55.3383 9.39174 55.4338 9.45995 55.5975C9.92237 55.2987 10.408 54.9618 10.8472 54.6399ZM7.80394 57.3299C7.73301 57.1143 7.67026 56.9247 7.57478 56.7024C8.05357 56.5223 8.73425 56.0817 9.05481 55.8689C8.99752 55.6479 8.93614 55.4365 8.8693 55.2333C8.80246 55.0314 8.71652 54.8118 8.65923 54.6603C8.26364 54.6672 7.41518 54.7285 6.99913 54.9413C6.9282 54.7026 6.90501 54.5867 6.84772 54.4121C6.78497 54.2225 6.72359 54.0574 6.6472 53.8664C6.93911 53.9251 7.46429 53.9783 7.68118 53.9919C8.13951 54.0192 8.78336 54.0479 9.28807 54.0601C9.74095 54.0738 10.4735 54.082 11.0368 54.0751C11.2005 54.0765 11.4665 54.082 11.6097 53.9797L11.6507 53.966C11.723 54.1911 11.7871 54.3616 11.8403 54.5007C11.9126 54.6999 11.9903 54.8922 12.079 55.0941C11.9453 55.161 11.6998 55.311 11.4883 55.4501C11.0641 55.7284 10.5403 56.0858 10.1447 56.3627C9.48041 56.8279 9.10528 57.098 8.77517 57.3517C8.63467 57.4608 8.28956 57.735 8.01265 58.0351C7.92944 57.7377 7.86942 57.5331 7.80394 57.3299Z" fill="#B62537"/>
<path d="M11.9617 61.1288C11.6711 61.268 10.4666 61.8286 9.95784 62.1301C9.83098 61.8477 9.68502 61.5913 9.52952 61.3648C9.89236 60.7919 10.5908 59.7716 10.9059 59.3282L11.8566 57.9764L11.8471 57.956L10.6167 58.5466C10.3834 58.6585 9.14894 59.3392 8.75199 59.6597C8.68787 59.4947 8.63058 59.3583 8.55828 59.2068C8.48872 59.0609 8.40141 58.8986 8.32366 58.7649C9.00843 58.6244 10.6726 57.8509 10.9932 57.6968C11.2401 57.5795 12.2563 57.1252 12.5864 56.7638L12.6178 56.7474C12.6942 56.9384 12.7897 57.1539 12.892 57.3667C12.9957 57.5849 13.1007 57.7882 13.1962 57.9532C12.9561 58.2315 12.4282 58.8917 12.1786 59.2641C11.6902 59.9953 11.3751 60.44 11.105 60.8451L11.1146 60.8656L11.9344 60.4727C12.4077 60.2463 13.6204 59.5833 13.8496 59.3187C13.8946 59.4442 13.9805 59.6393 14.0501 59.7852C14.1456 59.9844 14.1551 60.0035 14.2752 60.2067C13.6722 60.3581 12.2972 60.9679 11.9617 61.1275V61.1288Z" fill="#B62537"/>
<path d="M13.6628 65.9931C13.5004 66.09 13.1772 66.2864 12.8634 66.5361C12.3874 66.0409 12.1241 65.704 11.7803 65.1829C10.9469 63.9184 11.0819 62.9144 12.5551 61.9445C13.4609 61.3484 14.7745 60.976 15.9135 62.7071C16.2259 63.179 16.5601 63.7506 16.7142 64.0357C16.3882 64.1271 16.1331 64.2348 15.833 64.3781L15.8044 64.3358C15.9162 63.9456 15.8371 63.4178 15.4975 62.9008C14.9682 62.0973 14.1238 62.2405 13.1717 62.868C11.839 63.7451 11.8431 64.3753 12.3328 65.1188C12.5538 65.4557 12.7597 65.3725 12.9412 65.2538L13.3613 64.9769C13.555 64.85 13.7883 64.6959 13.941 64.3931L13.9738 64.3794C14.0761 64.5595 14.1989 64.7586 14.3162 64.9373C14.4703 65.1706 14.514 65.2388 14.6736 65.4421C14.4403 65.5334 13.9697 65.7994 13.6628 65.9931Z" fill="#B62537"/>
<path d="M17.8504 68.9819C17.4303 69.3407 16.4986 70.1891 16.1617 70.6215C15.9926 70.3978 15.9257 70.3201 15.7893 70.1659C15.6829 70.0445 15.5861 69.934 15.3364 69.683C15.8698 69.2929 16.6364 68.66 17.0265 68.3176C16.8083 68.0489 16.7019 67.9165 16.5273 67.7188C16.3527 67.5196 16.1781 67.3314 15.9735 67.1199C15.3951 67.6369 14.8945 68.0871 14.4061 68.6231C14.2479 68.4103 14.1115 68.2548 14.0351 68.1662C13.9232 68.0393 13.8305 67.9343 13.5877 67.6887C14.1251 67.315 15.0172 66.5702 15.4115 66.2251C15.7961 65.8881 17.0811 64.8173 17.0743 64.5118L17.0947 64.4927C17.2734 64.7178 17.3894 64.861 17.5244 65.0151C17.6663 65.1747 17.8109 65.3302 17.9678 65.4871C17.5626 65.7258 17.047 66.1773 16.3786 66.7639C16.6105 67.0599 16.7114 67.1758 16.8915 67.3791C17.0661 67.5796 17.1479 67.6724 17.4303 67.9629C18.231 67.2509 18.6089 66.9385 18.8244 66.4952L18.8449 66.4856C18.984 66.6766 19.0959 66.8035 19.2746 67.0081C19.411 67.1636 19.5951 67.3627 19.722 67.4855C19.2063 67.8306 18.3402 68.5631 17.8504 68.9819Z" fill="#B62537"/>
<path d="M20.7969 69.7908L20.775 69.7717C20.2471 70.0732 19.7997 70.3514 19.3291 70.6556C19.4587 70.7866 19.5583 70.8848 19.6851 70.9953C19.8679 71.1549 19.9498 71.2176 20.0916 71.3227C20.3372 70.8316 20.5841 70.2928 20.7969 69.7922V69.7908ZM19.5515 73.658C19.381 73.5093 19.2309 73.3783 19.0345 73.2338C19.355 72.8354 19.7165 72.1097 19.8829 71.7633C19.7206 71.6023 19.5596 71.4523 19.3987 71.3118C19.2391 71.1713 19.0522 71.0267 18.9267 70.9257C18.5884 71.1331 17.89 71.6187 17.6417 72.0143C17.4576 71.8451 17.3785 71.7564 17.2407 71.6364C17.0907 71.5055 16.9542 71.395 16.7906 71.2695C17.0702 71.1713 17.549 70.9489 17.744 70.8493C18.1519 70.6393 18.7194 70.3364 19.16 70.0882C19.5583 69.8686 20.1912 69.503 20.6727 69.2083C20.8132 69.1265 21.0451 68.9942 21.1161 68.8346L21.1447 68.8032C21.3207 68.9573 21.4639 69.0733 21.5799 69.1647C21.7449 69.2997 21.9086 69.4252 22.0887 69.5548C22.0082 69.6789 21.8731 69.934 21.7626 70.1618C21.5389 70.6174 21.2702 71.1917 21.0724 71.6323C20.7382 72.3703 20.5513 72.7945 20.3999 73.1819C20.3331 73.347 20.1776 73.7589 20.0916 74.1586C19.8679 73.9444 19.7124 73.7985 19.5515 73.658Z" fill="#B62537"/>
<path d="M21.3343 74.9934C21.1556 74.8652 21.0329 74.7834 20.7737 74.6142C21.3316 74.0167 21.9236 73.2092 22.2455 72.7604C22.708 72.1193 23.3709 71.2504 23.4637 70.7307L23.4759 70.7143C23.6533 70.8589 23.8033 70.9762 23.9766 71.1003C24.1484 71.2258 24.349 71.3513 24.5604 71.4959C24.1212 71.9297 23.3545 73.0073 23.199 73.2228C22.9412 73.5802 22.1978 74.5992 21.8118 75.3631C21.5567 75.1626 21.4421 75.0712 21.3343 74.9934Z" fill="#B62537"/>
<path d="M26.8589 75.6209C26.5424 76.1911 26.1932 76.8363 26.065 77.0696C25.6776 77.7666 25.0528 78.0763 23.525 77.4379L23.6615 77.0109C24.2835 77.2674 24.6545 77.2646 25.0583 76.6562C25.207 76.4339 25.5384 75.8501 25.7826 75.4095C26.2068 74.6442 26.9025 73.5257 26.8998 73.0128L26.9175 72.9814C27.1358 73.1178 27.3254 73.2324 27.5055 73.3306C27.6855 73.4302 27.8615 73.5202 28.0811 73.6266C27.6323 74.1627 27.1126 75.1626 26.8589 75.6209Z" fill="#B62537"/>
<path d="M28.0838 78.9084C27.796 78.7583 27.6664 78.6887 27.5464 78.6328C27.3472 78.5387 27.2108 78.4841 26.9257 78.3654C27.3622 77.6739 27.7933 76.7708 28.0279 76.2702C28.3635 75.5541 28.8532 74.5774 28.8491 74.0495L28.8573 74.0304C29.0578 74.1409 29.2283 74.2268 29.4206 74.3182C29.6143 74.4082 29.8326 74.4942 30.0686 74.5978C29.7166 75.1053 29.1628 76.307 29.0496 76.5471C28.8641 76.9468 28.3225 78.0844 28.0825 78.9084H28.0838Z" fill="#B62537"/>
<path d="M31.9919 76.4312L31.9633 76.4216C31.5841 76.895 31.269 77.3178 30.9416 77.7734C31.1107 77.8485 31.239 77.9017 31.3986 77.959C31.6264 78.0408 31.7259 78.0681 31.8965 78.1145C31.9442 77.5675 31.9756 76.9768 31.9919 76.4312ZM32.2498 80.4866C32.0356 80.4089 31.8487 80.3434 31.6127 80.2806C31.7641 79.7923 31.8351 78.9847 31.8637 78.6014C31.6536 78.5114 31.449 78.4296 31.2472 78.3586C31.0466 78.2863 30.8202 78.2209 30.666 78.1731C30.4273 78.4896 29.9567 79.1975 29.8708 79.6572C29.6375 79.5658 29.5311 79.5126 29.3579 79.4513C29.171 79.3844 29.0032 79.3312 28.8041 79.2767C29.0305 79.0816 29.3934 78.6983 29.5379 78.5346C29.8408 78.1895 30.2582 77.6998 30.5774 77.3083C30.8666 76.9577 31.3208 76.3862 31.6618 75.9346C31.7614 75.8078 31.9306 75.5991 31.9374 75.4245L31.9524 75.3849C32.1734 75.464 32.3493 75.52 32.4898 75.5622C32.6931 75.6277 32.8909 75.6837 33.105 75.7382C33.0764 75.8842 33.045 76.1693 33.0246 76.4216C32.9836 76.9291 32.9454 77.5606 32.9209 78.0422C32.8813 78.8538 32.8636 79.3149 32.8636 79.7309C32.8622 79.9096 32.8677 80.3502 32.9345 80.754C32.6494 80.6367 32.4503 80.5575 32.2498 80.4866Z" fill="#B62537"/>
<path d="M35.1089 78.9056C34.8757 79.986 35.0094 80.7949 35.8292 80.9708C36.7922 81.1782 37.1592 80.2697 37.3597 79.3394C37.5479 78.4636 37.612 77.4037 36.6776 77.2032C35.7364 77 35.3272 77.8853 35.1089 78.9056ZM38.455 79.5604C38.2259 80.6284 37.6461 81.8493 35.7296 81.4373C34.5647 81.1864 33.5962 80.6271 34.0177 78.6628C34.2632 77.5211 34.8375 76.3193 36.7486 76.7312C38.3868 77.0832 38.7797 78.049 38.455 79.5604Z" fill="#B62537"/>
<path d="M44.427 78.2086L44.3847 78.2072C44.2251 78.124 43.7299 78.0081 43.1202 77.9862C43.1147 78.1336 43.0574 79.083 43.0219 80.091C42.9851 81.0841 43.0438 82.1003 43.0738 82.264C42.7819 82.2381 42.7 82.2285 42.4436 82.219C42.2226 82.2108 42.0616 82.2054 41.7888 82.2163C41.9143 81.6052 41.9757 80.3038 41.9948 79.8291C42.0125 79.3258 42.0303 78.4159 42.0412 77.9467C41.5255 77.9289 40.864 77.9603 40.6689 78.0722L40.6239 78.0708C40.6757 77.8689 40.7303 77.5838 40.7371 77.4024C41.4178 77.4692 41.9757 77.4965 42.5991 77.5183C43.2757 77.5429 43.9291 77.5675 44.5988 77.5429C44.5265 77.7011 44.4733 77.9726 44.427 78.2086Z" fill="#B62537"/>
<path d="M45.791 79.9232C45.8837 81.0254 46.248 81.7607 47.0828 81.6897C48.0636 81.6079 48.1522 80.6312 48.0717 79.6832C47.9967 78.7897 47.7484 77.7571 46.7963 77.8375C45.836 77.918 45.7037 78.8838 45.791 79.9232ZM49.1835 79.574C49.2749 80.6626 49.0784 81.9994 47.1237 82.1644C45.9369 82.264 44.8457 82.0117 44.6779 80.0092C44.5797 78.8456 44.7788 77.5306 46.7267 77.3656C48.3964 77.2251 49.0539 78.034 49.1835 79.574Z" fill="#B62537"/>
<path d="M53.6414 78.731C53.7109 79.0461 53.9851 80.3461 54.1638 80.9095C53.861 80.9695 53.5786 81.0541 53.3222 81.155C52.8461 80.6721 52.0099 79.7623 51.6484 79.3544L50.5463 78.124L50.5244 78.1281L50.8218 79.4608C50.8791 79.7132 51.2638 81.0677 51.4861 81.5274C51.3115 81.5533 51.1669 81.5779 51.0019 81.6147C50.8436 81.6488 50.6649 81.6966 50.519 81.7443C50.5353 81.0445 50.1575 79.2494 50.0797 78.9015C50.0211 78.6355 49.8069 77.5429 49.5286 77.1391L49.5205 77.105C49.7251 77.0737 49.957 77.03 50.1861 76.9782C50.4221 76.925 50.6431 76.8691 50.8259 76.8131C51.0428 77.1091 51.568 77.7748 51.8735 78.0995C52.4764 78.7406 52.8379 79.1471 53.1735 79.5031L53.194 79.4977L52.9962 78.6096C52.8816 78.0981 52.5105 76.7681 52.3046 76.483C52.4369 76.4694 52.6456 76.4298 52.8038 76.3943C53.0193 76.3466 53.0412 76.3411 53.2649 76.2689C53.2758 76.8909 53.5609 78.3696 53.6414 78.731Z" fill="#B62537"/>
<path d="M58.7662 78.1908C58.8235 78.3709 58.9395 78.7297 59.1127 79.0911C58.5193 79.4431 58.132 79.6218 57.5454 79.8373C56.124 80.357 55.1773 79.9955 54.5717 78.3395C54.1979 77.3219 54.1379 75.9578 56.0831 75.2458C56.6151 75.0507 57.248 74.8557 57.5604 74.7711C57.5754 75.1094 57.6204 75.3822 57.6927 75.7068L57.6436 75.7246C57.2903 75.5254 56.757 75.4831 56.1772 75.6946C55.2742 76.026 55.2196 76.88 55.6111 77.9508C56.1595 79.4499 56.7747 79.589 57.6095 79.2835C57.9887 79.1457 57.956 78.9261 57.881 78.7228L57.7077 78.2495C57.6286 78.0326 57.5317 77.7693 57.2726 77.5525L57.2671 77.517C57.4649 77.4597 57.6886 77.3847 57.8891 77.311C58.151 77.2155 58.2261 77.1882 58.4607 77.0805C58.4975 77.3274 58.6476 77.8457 58.7662 78.1908Z" fill="#B62537"/>
<path d="M63.8093 73.0346C64.0685 73.4998 64.3754 74.0577 64.6523 74.5201C65.1038 75.2772 65.1202 76.0506 63.857 76.8036C62.5325 77.5934 61.9323 77.2742 61.4303 76.4339C61.3021 76.217 60.9706 75.6332 60.7374 75.2417C60.5723 74.9661 60.0226 73.9731 59.6529 73.7698L59.642 73.7521C59.8139 73.6662 60.0253 73.5475 60.2149 73.4343C60.4032 73.3211 60.5559 73.231 60.7906 73.0673C60.9856 73.6512 61.6376 74.7288 61.8054 75.0125C62.2242 75.715 62.5038 76.1679 62.6812 76.3234C62.9308 76.5403 63.3168 76.5717 63.6824 76.3521C64.5486 75.8378 64.299 75.2922 63.7547 74.3796C62.9922 73.0987 62.7235 72.6063 62.2365 72.2052C62.3756 72.1384 62.4998 72.0715 62.7194 71.9406C62.9158 71.8233 63.0195 71.7537 63.1641 71.6514C63.3496 72.2502 63.651 72.755 63.8093 73.0346Z" fill="#B62537"/>
<path d="M68.042 70.9762C68.2426 71.2285 69.0596 72.2762 69.4648 72.7058C69.2192 72.8927 69.0037 73.0905 68.8155 73.2938C68.1771 73.0687 67.0272 72.6158 66.5238 72.4085L64.9933 71.7837L64.9769 71.7974L65.8268 72.8654C65.9877 73.0673 66.9276 74.1177 67.3286 74.4342C67.1813 74.5324 67.0626 74.6183 66.9289 74.7233C66.8034 74.8243 66.6643 74.9443 66.5525 75.0507C66.2619 74.4151 65.1365 72.9664 64.9142 72.6868C64.745 72.474 64.0753 71.5846 63.6469 71.3431L63.6251 71.3158C63.7956 71.1985 63.9839 71.0567 64.168 70.9107C64.3576 70.7607 64.5309 70.6133 64.6714 70.4824C64.996 70.6543 65.7586 71.0226 66.176 71.1822C66.9985 71.4932 67.5019 71.7019 67.9588 71.8738L67.9752 71.8601L67.4091 71.1481C67.0817 70.7375 66.1664 69.7049 65.8568 69.5398C65.9673 69.4689 66.1391 69.3407 66.266 69.2411C66.4379 69.1033 66.4556 69.0897 66.6261 68.9273C66.9085 69.4811 67.8115 70.6856 68.0407 70.9762H68.042Z" fill="#B62537"/>
<path d="M70.9421 71.2954C70.7839 71.4482 70.6843 71.5559 70.4715 71.781C69.9804 71.1262 69.2888 70.4033 68.9028 70.0077C68.3531 69.4389 67.6137 68.6354 67.1172 68.454L67.1035 68.4376C67.2754 68.2889 67.4173 68.1607 67.5701 68.0134C67.7242 67.8647 67.8824 67.6915 68.0625 67.506C68.4131 68.0148 69.3393 68.9587 69.5248 69.1497C69.8317 69.4661 70.7047 70.3746 71.3895 70.8903C71.1481 71.1058 71.0376 71.2026 70.9421 71.2954Z" fill="#B62537"/>
<path d="M71.4945 64.9374C71.7224 65.3261 72.0825 65.9154 72.3935 66.4351C72.7059 66.9535 73.3224 67.9861 73.5993 68.4267C73.422 68.6231 73.2515 68.8537 73.1069 69.0869C72.3526 68.7514 71.5846 68.4322 70.792 68.1089C70.1741 67.862 69.5889 67.6205 69.1742 67.4678C68.9219 67.3764 68.5699 67.27 68.3994 67.2768L68.3776 67.259C68.5317 67.1104 68.6954 66.9303 68.8482 66.7421C69.0105 66.5525 69.1633 66.3642 69.2956 66.1882C69.4443 66.3151 69.7117 66.4665 69.8999 66.5688C70.2082 66.738 70.7579 66.9767 71.354 67.2277C71.796 67.4118 72.107 67.5537 72.4794 67.6887L72.4999 67.6669C72.3103 67.3395 71.901 66.7093 71.6978 66.4079C71.1931 65.6753 70.7989 65.1338 70.4005 64.8992C70.5315 64.7682 70.6365 64.6564 70.762 64.5118C70.8807 64.3726 70.9776 64.2608 71.0908 64.0957C71.2026 64.4054 71.3595 64.7055 71.4945 64.9374Z" fill="#B62537"/>
<path d="M76.9086 63.9402C76.4885 64.5077 76.247 64.876 75.9824 65.2661C75.7028 65.6794 75.6196 65.8008 75.1871 66.4747C74.636 65.9768 74.0727 65.5853 73.3156 65.0711C72.5326 64.5404 71.575 63.8447 71.2422 63.8761L71.2245 63.8638C71.5259 63.456 71.9051 62.8981 72.1207 62.5816C72.2939 62.3265 72.5899 61.8777 72.9705 61.2925C73.0605 61.4344 73.302 61.6513 73.4466 61.7495L73.4302 61.7741C73.1192 62.0073 72.7277 62.4957 72.3185 63.0986C72.6663 63.396 73.3115 63.8161 73.6184 64.0248C73.879 63.6415 74.0795 63.3346 74.28 62.9008C74.4164 63.0386 74.6074 63.2036 74.7834 63.3318C74.4137 63.6497 74.1968 63.9825 73.999 64.2744L74.6879 64.7423C75.3426 65.187 75.494 65.1747 75.7382 64.8146C76.0479 64.359 76.3029 63.8584 76.3589 63.4519L76.3834 63.4151C76.5621 63.651 76.7231 63.7874 76.9072 63.9402H76.9086Z" fill="#B62537"/>
<path d="M74.4601 59.4688C74.3578 59.6638 74.2937 59.8043 74.2473 59.938C74.5256 60.1153 74.8925 60.3063 74.9975 60.3609C75.2703 60.5041 75.4231 60.5901 75.6768 60.7237C75.7655 60.5696 75.8187 60.4823 75.876 60.3704C76.0956 59.9476 76.0629 59.5561 75.4163 59.2205C74.8707 58.9368 74.5992 59.2014 74.4601 59.4688ZM78.9575 60.1017C78.8565 60.2981 78.787 60.4605 78.6683 60.7046C78.3027 60.5887 77.9044 60.5068 77.4542 60.4305C77.0055 60.3541 76.6713 60.3118 76.4953 60.395C76.318 60.4768 76.2266 60.6692 76.0929 60.9393C76.4407 61.1043 77.6029 61.6909 78.0885 61.8191C77.9808 61.9964 77.8703 62.1942 77.7666 62.3906C77.6657 62.5857 77.577 62.7712 77.4993 62.954C76.9427 62.5502 75.7846 61.9555 75.419 61.7645C74.7915 61.4385 73.6539 60.8219 73.2801 60.8274L73.261 60.8165C73.4438 60.4809 73.5789 60.2204 73.7521 59.8876C73.9526 59.5029 74.0959 59.2123 74.31 58.8031C74.7493 57.9546 75.3167 57.926 75.8323 58.1947C76.3657 58.473 76.6658 59.0336 76.4134 59.7307L76.4257 59.7375C76.6181 59.3978 76.88 59.3037 77.1951 59.3351C77.4133 59.3569 77.4788 59.3665 77.8635 59.4169C78.3573 59.4824 78.9575 59.5711 79.2548 59.4865L79.2917 59.5056C79.1403 59.7661 79.0393 59.9448 78.9575 60.1017Z" fill="#B62537"/>
<path d="M80.001 57.7432C79.9069 57.9914 79.6395 58.5494 79.4635 58.9313C79.2439 58.799 78.9766 58.6571 78.6969 58.5262L78.7106 58.4921C79.0911 58.2997 79.4322 57.9587 79.6068 57.5058C79.7595 57.1075 79.6627 56.7719 79.3162 56.6383C79.0693 56.5441 78.8783 56.5892 78.6151 56.7474C78.2249 56.9834 77.9058 57.3258 77.4597 57.5713C76.9577 57.8428 76.5962 57.8059 76.1979 57.6531C75.8064 57.5031 75.1326 56.9929 75.6959 55.5252C75.8023 55.2496 75.981 54.8227 76.1597 54.4748C76.3411 54.6071 76.6112 54.7817 76.8677 54.9345L76.854 54.9686C76.5608 55.0696 76.3002 55.221 76.1024 55.7352C75.9155 56.2222 76.0915 56.566 76.378 56.6765C76.7258 56.8088 76.94 56.8361 77.7066 56.1854C78.6628 55.3724 79.0011 55.4706 79.4117 55.6288C79.9082 55.8198 80.5275 56.3723 80.001 57.7432Z" fill="#B62537"/>
<path d="M81.065 54.4571C81.0036 54.6685 80.9695 54.8118 80.8972 55.1119C80.1456 54.7872 79.1866 54.5007 78.656 54.3452C77.8962 54.1243 76.8554 53.7914 76.3357 53.8774L76.3152 53.8719C76.393 53.6564 76.453 53.4749 76.5117 53.2717C76.5717 53.0657 76.6249 52.8366 76.689 52.5869C77.2442 52.857 78.5169 53.2185 78.7719 53.2935C79.1962 53.4163 80.4034 53.7751 81.2532 53.8842C81.1496 54.1911 81.1018 54.3302 81.065 54.4571Z" fill="#B62537"/>
<path d="M78.1772 48.7402L78.1677 48.7839C78.0613 48.9271 77.8662 49.3977 77.7475 49.9965C77.8921 50.0252 78.8211 50.2325 79.81 50.4289C80.784 50.624 81.7975 50.7277 81.9625 50.7236C81.8916 51.01 81.8698 51.0878 81.818 51.3388C81.7757 51.5557 81.7443 51.7139 81.7116 51.984C81.1277 51.763 79.8537 51.4943 79.3872 51.4015C78.8934 51.3033 77.9985 51.1396 77.5375 51.0551C77.4365 51.5598 77.3629 52.2186 77.4406 52.4301L77.4338 52.4737C77.2428 52.3905 76.97 52.2909 76.7899 52.2555C76.9659 51.5939 77.0818 51.0469 77.2032 50.4344C77.3356 49.7715 77.4638 49.1303 77.5456 48.4647C77.6916 48.5615 77.9508 48.657 78.1772 48.7402Z" fill="#B62537"/>
<path d="M78.4309 44.9576C78.7938 45.2468 79.1703 45.521 80.5098 46.3844C80.9709 46.4226 81.2219 46.4444 81.5574 46.4499C81.8739 46.454 82.2667 46.4581 82.4945 46.4172C82.4523 46.6804 82.4372 46.855 82.4209 47.0528C82.4032 47.2588 82.395 47.3679 82.3868 47.7062C82.1835 47.6298 81.7266 47.548 81.4892 47.5275C81.155 47.5002 80.8986 47.4566 80.4375 47.4184C79.3108 47.8767 78.3436 48.3569 78.1022 48.4769C77.948 48.552 77.667 48.7279 77.5579 48.8452L77.5306 48.8425C77.5661 48.5942 77.5934 48.3542 77.6138 48.1045C77.6343 47.8549 77.6493 47.5985 77.6589 47.3188C77.8335 47.327 78.0122 47.2902 78.1636 47.2356C78.5401 47.1047 79.0584 46.9492 79.8823 46.5904L79.8837 46.5686C79.4431 46.2876 78.7979 45.9534 78.4187 45.7747C78.2372 45.686 77.9767 45.6124 77.8007 45.6124C77.8294 45.4309 77.8471 45.3068 77.8689 45.0503C77.8839 44.8607 77.9003 44.6779 77.8935 44.5074C78.0749 44.693 78.3259 44.8826 78.4309 44.9576Z" fill="#B62537"/>
<path fill-rule="evenodd" clip-rule="evenodd" d="M78.12 25.3024C78.0804 25.9804 77.3643 26.436 76.7995 26.7525C76.2457 27.0607 75.5105 26.3337 75.3863 25.8713C75.3263 25.6475 75.2663 24.9423 75.4668 24.7813C75.6973 24.5958 76.0302 24.7404 76.2634 24.5481C76.2853 24.5317 76.3112 24.428 76.3071 24.3994C76.2266 23.7324 77.2374 24.1525 77.768 24.5699C77.9276 24.6968 78.1268 25.181 78.12 25.3024ZM79.4881 29.6552C79.4445 29.4629 79.3026 28.9514 79.2863 28.6158V28.6172C79.2685 27.7387 79.0571 26.9748 78.9384 26.1072C78.8879 25.7308 78.6833 24.3312 79.3381 24.3421C79.3776 24.3421 79.4963 24.1975 79.5004 24.1525C79.5591 23.4636 79.1116 23.1922 78.4978 23.4418C78.1568 23.5809 77.9631 23.6273 77.6384 23.4145C77.5689 23.3695 76.9059 22.9917 76.2975 22.5879C75.9129 22.3328 74.7397 21.438 74.7397 21.438C74.205 21.1188 73.673 20.3085 73.3552 21.2347C73.7644 22.0573 74.6879 22.3505 75.3208 22.9248C75.6319 23.1976 75.8447 23.7937 75.2117 23.5823C74.5911 23.3613 73.8831 22.5961 73.5025 22.3792C73.1465 22.1718 72.324 22.0914 72.6077 22.7461C72.7755 23.1308 73.0851 23.4718 73.4698 23.6505C73.6826 23.7487 74.4301 23.9943 74.4738 24.1621C74.5897 24.4008 74.5379 24.9969 74.3687 25.2069C74.0904 25.548 73.347 25.0037 72.9883 24.7227C72.9678 24.7063 72.8137 24.6067 72.6009 24.4799C72.3662 24.3394 71.852 24.0966 71.5082 23.9411C71.3309 23.862 70.9667 23.7324 70.8603 23.701C70.4824 23.5891 69.2861 23.2931 69.5221 24.1402C69.5262 24.1539 69.5562 24.1975 69.5971 24.2248C69.7185 24.3121 70.0077 24.5003 70.3351 24.6804C70.6502 24.8523 72.088 25.297 72.6145 25.5807C73.111 25.8481 73.6839 25.9845 74.1068 26.3801C74.2855 26.5478 74.3496 26.6924 74.3865 26.8452C74.4233 26.9994 74.6074 27.9242 74.6074 28.2543C74.6074 29.0932 74.3919 30.0849 74.1955 30.7192C73.9936 31.3767 73.4111 32.4598 74.4738 32.4994C75.5323 32.5389 75.4914 29.0591 75.5527 28.2939C75.5705 28.0606 75.651 27.013 76.112 27.3977C76.8786 28.0402 76.6781 29.0837 76.7709 29.9403C76.7968 30.1859 77.0123 30.2527 77.2251 30.3168C77.296 30.3386 77.5716 30.3264 77.6043 30.2759C77.7789 29.9963 77.8048 29.6416 77.7871 29.3197C77.7571 28.7604 77.4897 27.9815 77.7107 27.4236C77.8635 27.1044 78.1049 26.9953 78.2168 27.3868C78.2223 27.4031 78.2264 27.4154 78.2318 27.429C78.2645 27.5464 78.3137 27.9119 78.3109 27.9897C78.2973 28.6185 78.536 30.2841 78.5687 30.325C78.8156 30.6537 79.2699 30.8324 79.5877 30.3987C79.6968 30.2677 79.5304 29.8476 79.4881 29.6552Z" fill="#B62537"/>
<path fill-rule="evenodd" clip-rule="evenodd" d="M47.8195 58.9681C47.8195 59.08 47.7199 59.17 47.5971 59.17H45.4268C45.3027 59.17 45.2018 59.08 45.2018 58.9681V58.4702C45.2018 58.3611 45.3027 58.2697 45.4268 58.2697V58.2724H47.5971C47.7171 58.2724 47.8195 58.3638 47.8195 58.473V58.9681ZM48.4074 57.6559H44.6166C44.3506 57.6559 44.1364 57.8891 44.1364 58.177V59.2846C44.1364 59.5711 44.3506 59.8043 44.6166 59.8043L47.5971 59.8057C47.7171 59.8057 47.8195 59.8984 47.8195 60.0076V60.354C47.8195 60.4645 47.7199 60.5546 47.5971 60.5546H45.4255C45.3368 60.5546 45.2631 60.5082 45.2277 60.4427H44.1364V60.65C44.1364 60.9365 44.3506 61.1698 44.6166 61.1698H48.4074C48.672 61.1698 48.8875 60.9365 48.8875 60.6487V58.177C48.8875 57.8891 48.672 57.6559 48.4074 57.6559Z" fill="#B62537"/>
<path fill-rule="evenodd" clip-rule="evenodd" d="M51.2965 59.8561C51.2965 59.7457 51.3947 59.6556 51.5175 59.6556H53.6877C53.8119 59.6556 53.9128 59.7457 53.9128 59.8561V60.354C53.9128 60.4645 53.8119 60.5559 53.6877 60.5559V60.5532H51.5175C51.3974 60.5532 51.2965 60.4604 51.2965 60.3527V59.8561ZM50.7059 61.1698H54.4994C54.7626 61.1698 54.9795 60.9365 54.9795 60.6487V59.541C54.9795 59.2546 54.7626 59.0213 54.4994 59.0213L51.5175 59.02C51.3974 59.02 51.2965 58.9272 51.2965 58.8181V58.4716C51.2965 58.3611 51.3947 58.2711 51.5175 58.2711H53.6905C53.7778 58.2711 53.8514 58.3161 53.8883 58.3829H54.9795V58.1742C54.9795 57.8878 54.7626 57.6559 54.4994 57.6559H50.7059C50.4426 57.6559 50.2284 57.8891 50.2284 58.177V60.6487C50.2284 60.9365 50.4426 61.1698 50.7059 61.1698Z" fill="#B62537"/>
</svg>
